<svg xmlns="http://www.w3.org/2000/svg" xmlns:xlink="http://www.w3.org/1999/xlink" contentStyleType="text/css" data-diagram-type="DESCRIPTION" height="601px" preserveAspectRatio="none" style="width:1182px;height:601px;background:#FFFFFF;" version="1.1" viewBox="0 0 1182 601" width="1182px" zoomAndPan="magnify"><?plantuml 1.2026.6?><defs/><g><!--cluster L1--><g class="cluster" data-qualified-name="L1" data-source-line="8" id="ent0002"><rect fill="none" height="125.62" rx="2.5" ry="2.5" style="stroke:#181818;stroke-width:1;" width="232" x="670.25" y="127.81"/><text fill="#000000" font-family="'Be Vietnam Pro'" font-size="13" font-weight="700" lengthAdjust="spacing" textLength="201.9443" x="685.2778" y="142.3784">T&#7847;ng tr&#236;nh di&#7877;n (Presentation)</text><text fill="#000000" font-family="'Be Vietnam Pro'" font-size="13" font-weight="700" lengthAdjust="spacing" textLength="95.3672" x="738.5664" y="157.6889">&#8212; Tr&#236;nh duy&#7879;t</text></g><!--cluster L2--><g class="cluster" data-qualified-name="L2" data-source-line="12" id="ent0004"><rect fill="none" height="125.62" rx="2.5" ry="2.5" style="stroke:#181818;stroke-width:1;" width="855" x="313.25" y="302.43"/><text fill="#000000" font-family="'Be Vietnam Pro'" font-size="13" font-weight="700" lengthAdjust="spacing" textLength="275.939" x="602.7805" y="316.9984">T&#7847;ng &#7913;ng d&#7909;ng / nghi&#7879;p v&#7909; (Application)</text><text fill="#000000" font-family="'Be Vietnam Pro'" font-size="13" font-weight="700" lengthAdjust="spacing" textLength="140.0103" x="670.7449" y="332.3089">&#8212; Next.js tr&#234;n Vercel</text></g><!--cluster L3--><g class="cluster" data-qualified-name="L3" data-source-line="19" id="ent0009"><rect fill="none" height="110.62" rx="2.5" ry="2.5" style="stroke:#181818;stroke-width:1;" width="638" x="152.25" y="477.05"/><text fill="#000000" font-family="'Be Vietnam Pro'" font-size="13" font-weight="700" lengthAdjust="spacing" textLength="270.042" x="336.229" y="491.6184">T&#7847;ng d&#7919; li&#7879;u &amp; d&#7883;ch v&#7909; (Data &amp; Services)</text></g><!--entity UI--><g class="entity" data-qualified-name="L1.UI" data-source-line="9" id="ent0003"><rect fill="#F1F1F1" height="60.6211" rx="2.5" ry="2.5" style="stroke:#181818;stroke-width:0.5;" width="199.2246" x="686.64" y="176.81"/><rect fill="#F1F1F1" height="10" style="stroke:#181818;stroke-width:0.5;" width="15" x="865.8646" y="181.81"/><rect fill="#F1F1F1" height="2" style="stroke:#181818;stroke-width:0.5;" width="4" x="863.8646" y="183.81"/><rect fill="#F1F1F1" height="2" style="stroke:#181818;stroke-width:0.5;" width="4" x="863.8646" y="187.81"/><text fill="#000000" font-family="'Be Vietnam Pro'" font-size="13" lengthAdjust="spacing" textLength="159.2246" x="701.64" y="209.3784">React Client Components</text><text fill="#000000" font-family="'Be Vietnam Pro'" font-size="13" lengthAdjust="spacing" textLength="147.5767" x="701.64" y="224.6889">(Tailwind CSS, Zustand)</text></g><!--entity RSC--><g class="entity" data-qualified-name="L2.RSC" data-source-line="13" id="ent0005"><rect fill="#F1F1F1" height="60.6211" rx="2.5" ry="2.5" style="stroke:#181818;stroke-width:0.5;" width="209.8506" x="942.32" y="351.43"/><rect fill="#F1F1F1" height="10" style="stroke:#181818;stroke-width:0.5;" width="15" x="1132.1706" y="356.43"/><rect fill="#F1F1F1" height="2" style="stroke:#181818;stroke-width:0.5;" width="4" x="1130.1706" y="358.43"/><rect fill="#F1F1F1" height="2" style="stroke:#181818;stroke-width:0.5;" width="4" x="1130.1706" y="362.43"/><text fill="#000000" font-family="'Be Vietnam Pro'" font-size="13" lengthAdjust="spacing" textLength="71.1445" x="957.32" y="383.9984">App Router</text><text fill="#000000" font-family="'Be Vietnam Pro'" font-size="13" lengthAdjust="spacing" textLength="169.8506" x="957.32" y="399.3089">(React Server Components)</text></g><!--entity SA--><g class="entity" data-qualified-name="L2.SA" data-source-line="14" id="ent0006"><rect fill="#F1F1F1" height="60.6211" rx="2.5" ry="2.5" style="stroke:#181818;stroke-width:0.5;" width="146.3105" x="329.09" y="351.43"/><rect fill="#F1F1F1" height="10" style="stroke:#181818;stroke-width:0.5;" width="15" x="455.4005" y="356.43"/><rect fill="#F1F1F1" height="2" style="stroke:#181818;stroke-width:0.5;" width="4" x="453.4005" y="358.43"/><rect fill="#F1F1F1" height="2" style="stroke:#181818;stroke-width:0.5;" width="4" x="453.4005" y="362.43"/><text fill="#000000" font-family="'Be Vietnam Pro'" font-size="13" lengthAdjust="spacing" textLength="89.8955" x="344.09" y="383.9984">Server Actions</text><text fill="#000000" font-family="'Be Vietnam Pro'" font-size="13" lengthAdjust="spacing" textLength="106.3105" x="344.09" y="399.3089">(x&#7917; l&#253; nghi&#7879;p v&#7909;)</text></g><!--entity API--><g class="entity" data-qualified-name="L2.API" data-source-line="15" id="ent0007"><rect fill="#F1F1F1" height="60.6211" rx="2.5" ry="2.5" style="stroke:#181818;stroke-width:0.5;" width="206.4355" x="510.03" y="351.43"/><rect fill="#F1F1F1" height="10" style="stroke:#181818;stroke-width:0.5;" width="15" x="696.4655" y="356.43"/><rect fill="#F1F1F1" height="2" style="stroke:#181818;stroke-width:0.5;" width="4" x="694.4655" y="358.43"/><rect fill="#F1F1F1" height="2" style="stroke:#181818;stroke-width:0.5;" width="4" x="694.4655" y="362.43"/><text fill="#000000" font-family="'Be Vietnam Pro'" font-size="13" lengthAdjust="spacing" textLength="131.3647" x="525.03" y="383.9984">Route Handlers / API</text><text fill="#000000" font-family="'Be Vietnam Pro'" font-size="13" lengthAdjust="spacing" textLength="166.4355" x="525.03" y="399.3089">(webhook, upload, search)</text></g><!--entity CRON--><g class="entity" data-qualified-name="L2.CRON" data-source-line="16" id="ent0008"><rect fill="#F1F1F1" height="60.6211" rx="2.5" ry="2.5" style="stroke:#181818;stroke-width:0.5;" width="155.4893" x="751.5" y="351.43"/><rect fill="#F1F1F1" height="10" style="stroke:#181818;stroke-width:0.5;" width="15" x="886.9893" y="356.43"/><rect fill="#F1F1F1" height="2" style="stroke:#181818;stroke-width:0.5;" width="4" x="884.9893" y="358.43"/><rect fill="#F1F1F1" height="2" style="stroke:#181818;stroke-width:0.5;" width="4" x="884.9893" y="362.43"/><text fill="#000000" font-family="'Be Vietnam Pro'" font-size="13" lengthAdjust="spacing" textLength="54.6025" x="766.5" y="383.9984">Cron job</text><text fill="#000000" font-family="'Be Vietnam Pro'" font-size="13" lengthAdjust="spacing" textLength="115.4893" x="766.5" y="399.3089">(h&#7911;y &#273;&#417;n qu&#225; h&#7841;n)</text></g><!--entity DB--><g class="entity" data-qualified-name="L3.DB" data-source-line="20" id="ent0010"><path d="M682.57,521.55 C682.57,511.55 728.2502,511.55 728.2502,511.55 C728.2502,511.55 773.9304,511.55 773.9304,521.55 L773.9304,561.1711 C773.9304,571.1711 728.2502,571.1711 728.2502,571.1711 C728.2502,571.1711 682.57,571.1711 682.57,561.1711 L682.57,521.55" fill="#F1F1F1" style="stroke:#181818;stroke-width:0.5;"/><path d="M682.57,521.55 C682.57,531.55 728.2502,531.55 728.2502,531.55 C728.2502,531.55 773.9304,531.55 773.9304,521.55" fill="none" style="stroke:#181818;stroke-width:0.5;"/><text fill="#000000" font-family="'Be Vietnam Pro'" font-size="13" lengthAdjust="spacing" textLength="71.3604" x="692.57" y="548.1184">PostgreSQL</text><text fill="#000000" font-family="'Be Vietnam Pro'" font-size="13" lengthAdjust="spacing" textLength="68.1167" x="692.57" y="563.4289">(Supabase)</text></g><!--entity SB--><g class="entity" data-qualified-name="L3.SB" data-source-line="21" id="ent0011"><rect fill="#F1F1F1" height="60.6211" rx="2.5" ry="2.5" style="stroke:#181818;stroke-width:0.5;" width="133.7422" x="299.38" y="511.05"/><rect fill="#F1F1F1" height="10" style="stroke:#181818;stroke-width:0.5;" width="15" x="413.1222" y="516.05"/><rect fill="#F1F1F1" height="2" style="stroke:#181818;stroke-width:0.5;" width="4" x="411.1222" y="518.05"/><rect fill="#F1F1F1" height="2" style="stroke:#181818;stroke-width:0.5;" width="4" x="411.1222" y="522.05"/><text fill="#000000" font-family="'Be Vietnam Pro'" font-size="13" lengthAdjust="spacing" textLength="93.7422" x="314.38" y="543.6184">Supabase Auth</text><text fill="#000000" font-family="'Be Vietnam Pro'" font-size="13" lengthAdjust="spacing" textLength="60.874" x="314.38" y="558.9289">&amp; Storage</text></g><!--entity PAYOS--><g class="entity" data-qualified-name="L3.PAYOS" data-source-line="22" id="ent0012"><path d="M588.5586,527.9628 C591.8574,521.0501 596.761,521.335 601.4432,526.4851 C604.6878,520.1936 610.4157,519.3892 614.7206,525.3346 C618.0914,518.9483 623.2426,519.0436 626.7317,525.2214 C632.1318,521.1462 636.8788,520.9427 639.4611,528.3462 C647.2107,530.2735 648.5605,536.6587 642.6061,541.7915 C649.8677,548.0452 649.4219,552.8705 640.5679,556.9585 C637.6179,563.3839 630.96,564.9597 627.0492,557.9234 C623.9097,563.4395 618.3169,562.8536 615.1129,557.9976 C611.9107,564.3079 605.8769,565.5127 601.6743,559.0503 C596.7684,564.3678 591.7466,563.6747 588.4827,557.2116 C579.9784,555.7259 577.8688,549.0787 583.4112,542.688 C576.8267,535.6709 580.1776,529.7485 588.5586,527.9628" fill="#F1F1F1" style="stroke:#181818;stroke-width:0.5;"/><text fill="#000000" font-family="'Be Vietnam Pro'" font-size="13" lengthAdjust="spacing" textLength="38.2573" x="594.12" y="546.2684">PayOS</text></g><!--entity RESEND--><g class="entity" data-qualified-name="L3.RESEND" data-source-line="23" id="ent0013"><path d="M476.5333,519.4339 C479.5477,511.3892 487.2334,509.486 492.6805,516.8914 C496.5062,509.8733 503.3891,509.038 507.7234,516.3578 C512.1584,509.8974 518.796,510.7318 521.5119,518.075 C527.0134,512.3442 535.0588,511.5599 537.6566,521.1373 C543.0063,523.5876 543.6866,527.8355 539.36,531.8277 C545.4923,534.9052 546.14,539.5821 540.1272,543.4605 C544.4573,546.9949 543.0556,551.1247 538.3541,552.9762 C543.9439,557.0906 544.4737,561.9468 538.0042,565.7304 C535.256,573.6487 528.6044,576.8459 522.2071,569.5094 C519.1044,576.7601 513.8536,580.2472 507.126,573.3822 C500.0953,578.3351 494.0165,577.3136 491.744,568.1847 C485.5583,574.1717 479.0521,572.7424 476.6192,564.2617 C470.1451,562.0045 469.0572,557.6317 473.9746,552.7562 C468.9844,550.8818 466.349,547.1382 471.119,542.5366 C467.0794,537.8856 468.5753,531.9604 474.7473,530.3495 C470.0447,526.2143 470.6981,521.845 476.5333,519.4339" fill="#F1F1F1" style="stroke:#181818;stroke-width:0.5;"/><text fill="#000000" font-family="'Be Vietnam Pro'" font-size="13" lengthAdjust="spacing" textLength="45.5825" x="483.46" y="538.6184">Resend</text><text fill="#000000" font-family="'Be Vietnam Pro'" font-size="13" lengthAdjust="spacing" textLength="42.5293" x="483.46" y="553.9289">(email)</text></g><!--entity REDIS--><g class="entity" data-qualified-name="L3.REDIS" data-source-line="24" id="ent0014"><path d="M177.4632,520.327 C180.1231,514.4089 186.1034,513.4026 190.3159,518.5184 C192.9235,511.3901 199.1337,511.6827 203.2912,516.8879 C207.4343,511.2327 212.5165,510.3503 216.8383,516.6861 C220.6643,510.4974 225.9092,510.1456 229.8926,516.5226 C234.9152,509.9188 241.1795,511.3827 243.4402,519.1299 C247.1309,512.1976 253.9709,511.6167 257.5729,519.2161 C264.644,522.4925 264.4854,527.2745 259.1279,532.056 C264.2622,533.6932 264.7143,538.3936 260.9559,541.714 C266.6751,546.8878 264.8858,551.7886 258.2899,554.3678 C261.8457,558.2509 261.6458,561.7171 256.4083,563.8566 C254.1298,571.4511 248.6487,572.0506 243.2598,567.1225 C241.7249,574.0272 236.6855,576.638 230.8163,571.6622 C228.0685,577.6548 222.1752,579.4254 217.8042,573.4232 C211.9406,578.9603 207.572,578.8576 203.7952,571.2066 C197.9398,575.8398 193.1891,574.8056 191.731,566.9565 C186.2489,572.5252 179.8781,572.8766 176.8245,564.3823 C171.441,562.0948 169.1741,558.0244 174.2916,553.3303 C167.8342,552.8436 167.2401,548.0991 169.9279,543.5374 C166.1524,538.1981 167.8189,533.906 173.9877,532.095 C169.6754,527.0879 170.3074,521.9471 177.4632,520.327" fill="#F1F1F1" style="stroke:#181818;stroke-width:0.5;"/><text fill="#000000" font-family="'Be Vietnam Pro'" font-size="13" lengthAdjust="spacing" textLength="50.5527" x="183.53" y="538.6184">Upstash</text><text fill="#000000" font-family="'Be Vietnam Pro'" font-size="13" lengthAdjust="spacing" textLength="65.4443" x="183.53" y="553.9289">(rate limit)</text></g><!--entity User--><g class="entity" data-qualified-name="User" data-source-line="6" id="ent0001"><ellipse cx="786.2449" cy="14" fill="#F1F1F1" rx="8" ry="8" style="stroke:#181818;stroke-width:0.5;"/><path d="M786.2449,22 L786.2449,49 M773.2449,30 L799.2449,30 M786.2449,49 L773.2449,64 M786.2449,49 L799.2449,64" fill="none" style="stroke:#181818;stroke-width:0.5;"/><text fill="#000000" font-family="'Be Vietnam Pro'" font-size="13" lengthAdjust="spacing" textLength="75.5498" x="748.47" y="78.0684">Ng&#432;&#7901;i d&#249;ng</text></g><!--link User to UI--><g class="link" data-entity-1="ent0001" data-entity-2="ent0003" data-link-type="dependency" data-source-line="27" id="lnk15"><path d="M786.25,80.9 C786.25,109.84 786.25,144.64 786.25,171.54" fill="none" id="User-to-UI" style="stroke:#181818;stroke-width:1;"/><polygon fill="#181818" points="786.25,176.54,790.25,167.54,786.25,171.54,782.25,167.54,786.25,176.54" style="stroke:#181818;stroke-width:1;stroke-linejoin:miter;stroke-miterlimit:10;"/></g><!--link UI to RSC--><g class="link" data-entity-1="ent0003" data-entity-2="ent0005" data-link-type="dependency" data-source-line="28" id="lnk16"><path d="M835.19,237.85 C861.75,254.21 895.04,275.07 924.25,294.43 C951.86,312.73 978.2784,331.2179 1001.9884,348.1179" fill="none" id="UI-to-RSC" style="stroke:#181818;stroke-width:1;"/><polygon fill="#181818" points="1006.06,351.02,1001.0529,342.5389,1001.9884,348.1179,996.4095,349.0534,1006.06,351.02" style="stroke:#181818;stroke-width:1;stroke-linejoin:miter;stroke-miterlimit:10;"/><text fill="#000000" font-family="'Be Vietnam Pro'" font-size="13" lengthAdjust="spacing" textLength="33.1792" x="910.49" y="282.9984">HTTP</text></g><!--link UI to SA--><g class="link" data-entity-1="ent0003" data-entity-2="ent0006" data-link-type="dependency" data-source-line="29" id="lnk17"><path d="M686.18,225.07 C626.97,238.05 552.09,259.77 492.25,294.43 C466.96,309.08 446.6444,328.5542 429.9444,347.2142" fill="none" id="UI-to-SA" style="stroke:#181818;stroke-width:1;"/><polygon fill="#181818" points="426.61,350.94,435.5926,346.9011,429.9444,347.2142,429.6314,341.566,426.61,350.94" style="stroke:#181818;stroke-width:1;stroke-linejoin:miter;stroke-miterlimit:10;"/><text fill="#000000" font-family="'Be Vietnam Pro'" font-size="13" lengthAdjust="spacing" textLength="108.4751" x="537.79" y="282.9984">g&#7885;i h&#224;m m&#225;y ch&#7911;</text></g><!--link RSC to DB--><g class="link" data-entity-1="ent0005" data-entity-2="ent0010" data-link-type="dependency" data-source-line="30" id="lnk18"><path d="M1022.08,412.52 C1007.01,428.76 986.66,448.14 965.25,461.05 C904.13,497.91 828.5778,519.0415 778.8878,530.2315" fill="none" id="RSC-to-DB" style="stroke:#181818;stroke-width:1;"/><polygon fill="#181818" points="774.01,531.33,783.6689,533.255,778.8878,530.2315,781.9113,525.4505,774.01,531.33" style="stroke:#181818;stroke-width:1;stroke-linejoin:miter;stroke-miterlimit:10;"/><text fill="#000000" font-family="'Be Vietnam Pro'" font-size="13" lengthAdjust="spacing" textLength="75.8354" x="988.93" y="457.6184">Prisma ORM</text></g><!--link SA to DB--><g class="link" data-entity-1="ent0006" data-entity-2="ent0010" data-link-type="dependency" data-source-line="31" id="lnk19"><path d="M442.37,412.29 C457.28,421.67 474.83,430.93 492.25,436.05 C515.29,442.82 689.9,428.55 708.25,444.05 C727.29,460.14 731.1722,484.2003 730.9422,506.2103" fill="none" id="SA-to-DB" style="stroke:#181818;stroke-width:1;"/><polygon fill="#181818" points="730.89,511.21,734.9838,502.2523,730.9422,506.2103,726.9843,502.1687,730.89,511.21" style="stroke:#181818;stroke-width:1;stroke-linejoin:miter;stroke-miterlimit:10;"/><text fill="#000000" font-family="'Be Vietnam Pro'" font-size="13" lengthAdjust="spacing" textLength="146.2119" x="721.93" y="457.6184">Prisma ORM (giao d&#7883;ch)</text></g><!--link SA to PAYOS--><g class="link" data-entity-1="ent0006" data-entity-2="ent0012" data-link-type="dependency" data-source-line="32" id="lnk20"><path d="M415.05,412.42 C424.17,429.72 438.19,450.2 457.25,461.05 C497.53,483.99 520.76,446.47 561.25,469.05 C580.79,479.95 592.6563,497.1671 601.2263,513.7671" fill="none" id="SA-to-PAYOS" style="stroke:#181818;stroke-width:1;"/><polygon fill="#181818" points="603.52,518.21,602.9456,508.3779,601.2263,513.7671,595.8371,512.0478,603.52,518.21" style="stroke:#181818;stroke-width:1;stroke-linejoin:miter;stroke-miterlimit:10;"/><text fill="#000000" font-family="'Be Vietnam Pro'" font-size="13" lengthAdjust="spacing" textLength="143.3491" x="458.25" y="457.6184">t&#7841;o li&#234;n k&#7871;t thanh to&#225;n</text></g><!--link SA to RESEND--><g class="link" data-entity-1="ent0006" data-entity-2="ent0013" data-link-type="dependency" data-source-line="33" id="lnk21"><path d="M345.3,412.54 C324.76,427.02 309.99,444.78 325.25,461.05 C334.77,471.2 437.93,462.57 450.25,469.05 C467.66,478.21 478.7685,491.1909 488.2885,506.4109" fill="none" id="SA-to-RESEND" style="stroke:#181818;stroke-width:1;"/><polygon fill="#181818" points="490.94,510.65,489.5585,500.8985,488.2885,506.4109,482.7761,505.1409,490.94,510.65" style="stroke:#181818;stroke-width:1;stroke-linejoin:miter;stroke-miterlimit:10;"/><text fill="#000000" font-family="'Be Vietnam Pro'" font-size="13" lengthAdjust="spacing" textLength="58.8237" x="326.25" y="457.6184">g&#7917;i email</text></g><!--link API to DB--><g class="link" data-entity-1="ent0007" data-entity-2="ent0010" data-link-type="dependency" data-source-line="34" id="lnk22"><path d="M669.31,412.54 C689.26,421.75 712.25,430.85 734.25,436.05 C751.79,440.2 883.82,430.99 896.25,444.05 C938.09,488 842.2945,516.7814 779.2645,530.5714" fill="none" id="API-to-DB" style="stroke:#181818;stroke-width:1;"/><polygon fill="#181818" points="774.38,531.64,784.027,533.624,779.2645,530.5714,782.3171,525.8089,774.38,531.64" style="stroke:#181818;stroke-width:1;stroke-linejoin:miter;stroke-miterlimit:10;"/></g><!--link API to PAYOS--><g class="link" data-entity-1="ent0007" data-entity-2="ent0012" data-link-type="dependency" data-source-line="35" id="lnk23"><path d="M611.51,412.35 C610.99,422.41 610.5,433.71 610.25,444.05 C609.62,469.64 610.5489,494.0474 611.6089,513.5674" fill="none" id="API-to-PAYOS" style="stroke:#181818;stroke-width:1;"/><polygon fill="#181818" points="611.88,518.56,615.3861,509.3563,611.6089,513.5674,607.3979,509.7901,611.88,518.56" style="stroke:#181818;stroke-width:1;stroke-linejoin:miter;stroke-miterlimit:10;"/><text fill="#000000" font-family="'Be Vietnam Pro'" font-size="13" lengthAdjust="spacing" textLength="92.5742" x="611.25" y="457.6184">nh&#7853;n webhook</text></g><!--link SA to SB--><g class="link" data-entity-1="ent0006" data-entity-2="ent0011" data-link-type="dependency" data-source-line="36" id="lnk24"><path d="M328.6,391.99 C267.02,401.43 186.13,418.35 166.25,444.05 C161.63,450.03 161.1,455.52 166.25,461.05 C174.99,470.41 269.37,464.25 281.25,469.05 C303.75,478.14 321.1519,492.0271 336.6119,507.3771" fill="none" id="SA-to-SB" style="stroke:#181818;stroke-width:1;"/><polygon fill="#181818" points="340.16,510.9,336.5917,501.7203,336.6119,507.3771,330.955,507.3973,340.16,510.9" style="stroke:#181818;stroke-width:1;stroke-linejoin:miter;stroke-miterlimit:10;"/><text fill="#000000" font-family="'Be Vietnam Pro'" font-size="13" lengthAdjust="spacing" textLength="117.3555" x="167.25" y="457.6184">x&#225;c th&#7921;c / l&#432;u &#7843;nh</text></g><!--link SA to REDIS--><g class="link" data-entity-1="ent0006" data-entity-2="ent0014" data-link-type="dependency" data-source-line="37" id="lnk25"><path d="M328.7,384.61 C234.96,388.74 80.76,401.92 45.25,444.05 C6,490.62 100.0315,518.1075 163.3115,531.0575" fill="none" id="SA-to-REDIS" style="stroke:#181818;stroke-width:1;"/><polygon fill="#181818" points="168.21,532.06,160.1947,526.3368,163.3115,531.0575,158.5908,534.1744,168.21,532.06" style="stroke:#181818;stroke-width:1;stroke-linejoin:miter;stroke-miterlimit:10;"/><text fill="#000000" font-family="'Be Vietnam Pro'" font-size="13" lengthAdjust="spacing" textLength="107.1104" x="46.25" y="457.6184">gi&#7899;i h&#7841;n truy c&#7853;p</text></g><!--link CRON to DB--><g class="link" data-entity-1="ent0008" data-entity-2="ent0010" data-link-type="dependency" data-source-line="38" id="lnk26"><path d="M882.91,412.45 C909.59,427.35 936.39,442.56 937.25,444.05 C941.05,450.58 941.54,454.83 937.25,461.05 C900.66,514.07 828.606,531.0977 778.976,536.9177" fill="none" id="CRON-to-DB" style="stroke:#181818;stroke-width:1;"/><polygon fill="#181818" points="774.01,537.5,783.4146,540.4245,778.976,536.9177,782.4829,532.479,774.01,537.5" style="stroke:#181818;stroke-width:1;stroke-linejoin:miter;stroke-miterlimit:10;"/></g><?plantuml-src RLH1QnD15BxlhtZa82cqIktDWx1DAWtK96RJWjBBP7UwEytip3epQnj5y28zY0V1cmW6aQ9Oh4UpY8UL_e_rb_XcTzEc9PSa-zutt_lUDzz6Zvb8Y28nn598Fr8ofc1KIXrzsT4H2UGH4o4S4AuNEoFYZqCbKn6q99SAZY9c5li1FI0fDm-aC5s2n8rD2dkC6e6zlfADvL2FFQUmlk4Gto1denjUd1VPHmP1_ak43I0QTZLLZgEeRuW8EV8EYzafwZCg_ouY25YHlHRGx2kggJ34C2bMziM_L-zXM2FIIP6Tc99iPnrUE02-Z1Cf40wD0SNHqEBCFhNcTRqlcaF2E3eHGClpLk59gb50i59fwZWlbsagig_u6HJP5_ow0oACKDr90i-m0aqtIJZp5nLswR6vVQZjBjy4x57bKrxfl7jJ9nw6WKmDLIYj4krHzOog1T6Lk87Nkdwqnhc-dMmtEowoC-3vx-i2gzEUUyCVEnEsSNLEbSQbt7u7AOxeA99ol0ffmYK9La5Jeloeua38TPAMaW8EvGWFHaLsEe6_xowc0fwc-HIYOZOLrRdMeDTTRYnQ-WEurPh2BVlqnezgLzl44ApP9PbFQmzsDah_0koDY4QUljGcLDHxj8CQl3GfonMslNd3hheBRcgYVO7K64qIqigU4inb6Y0dcVIyijft7_UygyR0HZ70GJJ63DMtikLjTTjNcDq4ywIHlwa86inPpCmSsUvurWQRV5XRks_ZjjifV-7TmZtO7WxxyuhdOY4iihSCelmJljhvT0A-TTcnO0jfRoAahvYE2VG63nqyigGCpP0HMNkxCWULco7Eu2r9L6bpEYvcVmoOYE3BPMG-5NDmjMEbvun1kRs3OQZ7NVwSamgy-pC1TPRcB9xLTPnFVHnHP3zzp1o_E4-Xc7qMqTKeDCbEmanyO5M8x7yPxewSYMEZL8_z3m00?></g></svg>