<svg xmlns="http://www.w3.org/2000/svg" xmlns:xlink="http://www.w3.org/1999/xlink" contentStyleType="text/css" data-diagram-type="ACTIVITY" height="957px" preserveAspectRatio="none" style="width:695px;height:957px;background:#FFFFFF;" version="1.1" viewBox="0 0 695 957" width="695px" zoomAndPan="magnify"><?plantuml 1.2026.6?><defs/><g><ellipse cx="296.9979" cy="25" fill="#222222" rx="10" ry="10" style="stroke:#222222;stroke-width:1;"/><rect fill="#F1F1F1" height="35.3105" rx="12.5" ry="12.5" style="stroke:#181818;stroke-width:0.5;" width="246.0527" x="173.9716" y="55"/><text fill="#000000" font-family="'Be Vietnam Pro'" font-size="13" lengthAdjust="spacing" textLength="226.0527" x="183.9716" y="77.5684">Kh&#225;ch h&#224;ng th&#234;m s&#7843;n ph&#7849;m v&#224;o gi&#7887;</text><rect fill="#F1F1F1" height="35.3105" rx="12.5" ry="12.5" style="stroke:#181818;stroke-width:0.5;" width="153.8784" x="220.0587" y="110.3105"/><text fill="#000000" font-family="'Be Vietnam Pro'" font-size="13" lengthAdjust="spacing" textLength="133.8784" x="230.0587" y="132.8789">V&#224;o trang thanh to&#225;n</text><rect fill="#F1F1F1" height="50.6211" rx="12.5" ry="12.5" style="stroke:#181818;stroke-width:0.5;" width="264.7593" x="164.6183" y="165.6211"/><text fill="#000000" font-family="'Be Vietnam Pro'" font-size="13" lengthAdjust="spacing" textLength="204.4263" x="174.6183" y="188.1895">Nh&#7853;p &#273;&#7883;a ch&#7881;, ch&#7885;n ph&#432;&#417;ng th&#7913;c</text><text fill="#000000" font-family="'Be Vietnam Pro'" font-size="13" lengthAdjust="spacing" textLength="244.7593" x="174.6183" y="203.5">thanh to&#225;n, nh&#7853;p m&#227; gi&#7843;m gi&#225; (n&#7871;u c&#243;)</text><rect fill="#F1F1F1" height="50.6211" rx="12.5" ry="12.5" style="stroke:#181818;stroke-width:0.5;" width="187.1147" x="203.4406" y="236.2422"/><text fill="#000000" font-family="'Be Vietnam Pro'" font-size="13" lengthAdjust="spacing" textLength="167.1147" x="213.4406" y="258.8105">H&#7879; th&#7889;ng ki&#7875;m tra t&#7891;n kho</text><text fill="#000000" font-family="'Be Vietnam Pro'" font-size="13" lengthAdjust="spacing" textLength="122.7637" x="213.4406" y="274.1211">v&#224; t&#237;nh l&#7841;i t&#7893;ng ti&#7873;n</text><rect fill="#F1F1F1" height="35.3105" rx="12.5" ry="12.5" style="stroke:#181818;stroke-width:0.5;" width="147.7275" x="223.1342" y="356.5186"/><text fill="#000000" font-family="'Be Vietnam Pro'" font-size="13" lengthAdjust="spacing" textLength="127.7275" x="233.1342" y="379.0869">Th&#244;ng b&#225;o h&#7871;t h&#224;ng</text><ellipse cx="296.9979" cy="430.6738" fill="none" rx="11" ry="11" style="stroke:#222222;stroke-width:1;"/><ellipse cx="296.9979" cy="430.6738" fill="#222222" rx="6" ry="6" style="stroke:#222222;stroke-width:1;"/><polygon fill="#F1F1F1" points="253.7831,306.8633,340.2128,306.8633,352.2128,318.8633,340.2128,330.8633,253.7831,330.8633,241.7831,318.8633,253.7831,306.8633" style="stroke:#181818;stroke-width:0.5;stroke-linejoin:miter;stroke-miterlimit:10;"/><text fill="#000000" font-family="'Be Vietnam Pro'" font-size="13" lengthAdjust="spacing" textLength="39.8252" x="300.9979" y="343.4316">kh&#244;ng</text><text fill="#000000" font-family="'Be Vietnam Pro'" font-size="13" lengthAdjust="spacing" textLength="86.4297" x="253.7831" y="323.7764">C&#242;n &#273;&#7911; h&#224;ng?</text><text fill="#000000" font-family="'Be Vietnam Pro'" font-size="13" lengthAdjust="spacing" textLength="14.644" x="352.2128" y="316.1211">c&#243;</text><rect fill="#F1F1F1" height="50.6211" rx="12.5" ry="12.5" style="stroke:#181818;stroke-width:0.5;" width="277.6196" x="158.1881" y="483.6738"/><text fill="#000000" font-family="'Be Vietnam Pro'" font-size="13" lengthAdjust="spacing" textLength="257.6196" x="168.1881" y="506.2422">T&#7841;o &#273;&#417;n h&#224;ng (tr&#7841;ng th&#225;i Ch&#7901; x&#225;c nh&#7853;n),</text><text fill="#000000" font-family="'Be Vietnam Pro'" font-size="13" lengthAdjust="spacing" textLength="172.123" x="168.1881" y="521.5527">tr&#7915; t&#7891;n kho trong giao d&#7883;ch</text><polygon fill="#F1F1F1" points="217.2491,554.2949,376.7467,554.2949,388.7467,566.2949,376.7467,578.2949,217.2491,578.2949,205.2491,566.2949,217.2491,554.2949" style="stroke:#181818;stroke-width:0.5;stroke-linejoin:miter;stroke-miterlimit:10;"/><text fill="#000000" font-family="'Be Vietnam Pro'" font-size="13" lengthAdjust="spacing" textLength="159.4976" x="217.2491" y="571.208">Ph&#432;&#417;ng th&#7913;c thanh to&#225;n?</text><text fill="#000000" font-family="'Be Vietnam Pro'" font-size="13" lengthAdjust="spacing" textLength="28.8311" x="176.4181" y="563.5527">COD</text><text fill="#000000" font-family="'Be Vietnam Pro'" font-size="13" lengthAdjust="spacing" textLength="38.2573" x="388.7467" y="563.5527">PayOS</text><rect fill="#F1F1F1" height="35.3105" rx="12.5" ry="12.5" style="stroke:#181818;stroke-width:0.5;" width="138.7964" x="47.3035" y="588.2949"/><text fill="#000000" font-family="'Be Vietnam Pro'" font-size="13" lengthAdjust="spacing" textLength="118.7964" x="57.3035" y="610.8633">Ghi nh&#7853;n &#273;&#417;n COD</text><rect fill="#F1F1F1" height="35.3105" rx="12.5" ry="12.5" style="stroke:#181818;stroke-width:0.5;" width="201.4033" x="16" y="643.6055"/><text fill="#000000" font-family="'Be Vietnam Pro'" font-size="13" lengthAdjust="spacing" textLength="181.4033" x="26" y="666.1738">G&#7917;i email x&#225;c nh&#7853;n &#273;&#7863;t h&#224;ng</text><ellipse cx="116.7017" cy="709.916" fill="none" rx="11" ry="11" style="stroke:#222222;stroke-width:1;"/><ellipse cx="116.7017" cy="709.916" fill="#222222" rx="6" ry="6" style="stroke:#222222;stroke-width:1;"/><rect fill="#F1F1F1" height="35.3105" rx="12.5" ry="12.5" style="stroke:#181818;stroke-width:0.5;" width="209.0776" x="372.7554" y="588.2949"/><text fill="#000000" font-family="'Be Vietnam Pro'" font-size="13" lengthAdjust="spacing" textLength="189.0776" x="382.7554" y="610.8633">T&#7841;o li&#234;n k&#7871;t thanh to&#225;n PayOS</text><rect fill="#F1F1F1" height="35.3105" rx="12.5" ry="12.5" style="stroke:#181818;stroke-width:0.5;" width="244.853" x="354.8677" y="643.6055"/><text fill="#000000" font-family="'Be Vietnam Pro'" font-size="13" lengthAdjust="spacing" textLength="224.853" x="364.8677" y="666.1738">Chuy&#7875;n h&#432;&#7899;ng t&#7899;i trang thanh to&#225;n</text><polygon fill="#F1F1F1" points="390.9185,698.916,563.6699,698.916,575.6699,710.916,563.6699,722.916,390.9185,722.916,378.9185,710.916,390.9185,698.916" style="stroke:#181818;stroke-width:0.5;stroke-linejoin:miter;stroke-miterlimit:10;"/><text fill="#000000" font-family="'Be Vietnam Pro'" font-size="13" lengthAdjust="spacing" textLength="172.7515" x="390.9185" y="715.8291">Thanh to&#225;n trong th&#7901;i h&#7841;n?</text><text fill="#000000" font-family="'Be Vietnam Pro'" font-size="13" lengthAdjust="spacing" textLength="14.644" x="364.2744" y="708.1738">c&#243;</text><text fill="#000000" font-family="'Be Vietnam Pro'" font-size="13" lengthAdjust="spacing" textLength="50.8574" x="575.6699" y="708.1738">qu&#225; h&#7841;n</text><rect fill="#F1F1F1" height="35.3105" rx="12.5" ry="12.5" style="stroke:#181818;stroke-width:0.5;" width="231.6436" x="249.5171" y="732.916"/><text fill="#000000" font-family="'Be Vietnam Pro'" font-size="13" lengthAdjust="spacing" textLength="211.6436" x="259.5171" y="755.4844">Webhook x&#225;c nh&#7853;n &#273;&#227; thanh to&#225;n</text><rect fill="#F1F1F1" height="35.3105" rx="12.5" ry="12.5" style="stroke:#181818;stroke-width:0.5;" width="235.8711" x="247.4033" y="803.2266"/><text fill="#000000" font-family="'Be Vietnam Pro'" font-size="13" lengthAdjust="spacing" textLength="215.8711" x="257.4033" y="825.7949">C&#7853;p nh&#7853;t tr&#7841;ng th&#225;i &#272;&#227; thanh to&#225;n</text><rect fill="#F1F1F1" height="35.3105" rx="12.5" ry="12.5" style="stroke:#181818;stroke-width:0.5;" width="214.0986" x="258.2896" y="860.5371"/><text fill="#000000" font-family="'Be Vietnam Pro'" font-size="13" lengthAdjust="spacing" textLength="194.0986" x="268.2896" y="883.1055">G&#7917;i email x&#225;c nh&#7853;n thanh to&#225;n</text><ellipse cx="365.3389" cy="926.8477" fill="none" rx="11" ry="11" style="stroke:#222222;stroke-width:1;"/><ellipse cx="365.3389" cy="926.8477" fill="#222222" rx="6" ry="6" style="stroke:#222222;stroke-width:1;"/><rect fill="#F1F1F1" height="50.6211" rx="12.5" ry="12.5" style="stroke:#181818;stroke-width:0.5;" width="171.9502" x="503.2744" y="732.916"/><text fill="#000000" font-family="'Be Vietnam Pro'" font-size="13" lengthAdjust="spacing" textLength="151.9502" x="513.2744" y="755.4844">T&#225;c v&#7909; &#273;&#7883;nh k&#7923; h&#7911;y &#273;&#417;n,</text><text fill="#000000" font-family="'Be Vietnam Pro'" font-size="13" lengthAdjust="spacing" textLength="105.5679" x="513.2744" y="770.7949">ho&#224;n tr&#7843; t&#7891;n kho</text><ellipse cx="589.2495" cy="829.5371" fill="none" rx="11" ry="11" style="stroke:#222222;stroke-width:1;"/><ellipse cx="589.2495" cy="829.5371" fill="#222222" rx="6" ry="6" style="stroke:#222222;stroke-width:1;"/><line style="stroke:#181818;stroke-width:1;" x1="296.9979" x2="296.9979" y1="35" y2="55"/><polygon fill="#181818" points="292.9979,45,296.9979,55,300.9979,45,296.9979,49" style="stroke:#181818;stroke-width:1;stroke-linejoin:miter;stroke-miterlimit:10;"/><line style="stroke:#181818;stroke-width:1;" x1="296.9979" x2="296.9979" y1="90.3105" y2="110.3105"/><polygon fill="#181818" points="292.9979,100.3105,296.9979,110.3105,300.9979,100.3105,296.9979,104.3105" style="stroke:#181818;stroke-width:1;stroke-linejoin:miter;stroke-miterlimit:10;"/><line style="stroke:#181818;stroke-width:1;" x1="296.9979" x2="296.9979" y1="145.6211" y2="165.6211"/><polygon fill="#181818" points="292.9979,155.6211,296.9979,165.6211,300.9979,155.6211,296.9979,159.6211" style="stroke:#181818;stroke-width:1;stroke-linejoin:miter;stroke-miterlimit:10;"/><line style="stroke:#181818;stroke-width:1;" x1="296.9979" x2="296.9979" y1="216.2422" y2="236.2422"/><polygon fill="#181818" points="292.9979,226.2422,296.9979,236.2422,300.9979,226.2422,296.9979,230.2422" style="stroke:#181818;stroke-width:1;stroke-linejoin:miter;stroke-miterlimit:10;"/><line style="stroke:#181818;stroke-width:1;" x1="296.9979" x2="296.9979" y1="391.8291" y2="419.6738"/><polygon fill="#181818" points="292.9979,409.6738,296.9979,419.6738,300.9979,409.6738,296.9979,413.6738" style="stroke:#181818;stroke-width:1;stroke-linejoin:miter;stroke-miterlimit:10;"/><line style="stroke:#181818;stroke-width:1;" x1="296.9979" x2="296.9979" y1="330.8633" y2="356.5186"/><polygon fill="#181818" points="292.9979,346.5186,296.9979,356.5186,300.9979,346.5186,296.9979,350.5186" style="stroke:#181818;stroke-width:1;stroke-linejoin:miter;stroke-miterlimit:10;"/><line style="stroke:#181818;stroke-width:1;" x1="352.2128" x2="380.8617" y1="318.8633" y2="318.8633"/><polygon fill="#181818" points="376.8617,389.6738,380.8617,399.6738,384.8617,389.6738,380.8617,393.6738" style="stroke:#181818;stroke-width:1;stroke-linejoin:miter;stroke-miterlimit:10;"/><line style="stroke:#181818;stroke-width:1;" x1="380.8617" x2="380.8617" y1="318.8633" y2="463.6738"/><line style="stroke:#181818;stroke-width:1;" x1="380.8617" x2="296.9979" y1="463.6738" y2="463.6738"/><line style="stroke:#181818;stroke-width:1;" x1="296.9979" x2="296.9979" y1="463.6738" y2="483.6738"/><polygon fill="#181818" points="292.9979,473.6738,296.9979,483.6738,300.9979,473.6738,296.9979,477.6738" style="stroke:#181818;stroke-width:1;stroke-linejoin:miter;stroke-miterlimit:10;"/><line style="stroke:#181818;stroke-width:1;" x1="296.9979" x2="296.9979" y1="286.8633" y2="306.8633"/><polygon fill="#181818" points="292.9979,296.8633,296.9979,306.8633,300.9979,296.8633,296.9979,300.8633" style="stroke:#181818;stroke-width:1;stroke-linejoin:miter;stroke-miterlimit:10;"/><line style="stroke:#181818;stroke-width:1;" x1="116.7017" x2="116.7017" y1="623.6055" y2="643.6055"/><polygon fill="#181818" points="112.7017,633.6055,116.7017,643.6055,120.7017,633.6055,116.7017,637.6055" style="stroke:#181818;stroke-width:1;stroke-linejoin:miter;stroke-miterlimit:10;"/><line style="stroke:#181818;stroke-width:1;" x1="116.7017" x2="116.7017" y1="678.916" y2="698.916"/><polygon fill="#181818" points="112.7017,688.916,116.7017,698.916,120.7017,688.916,116.7017,692.916" style="stroke:#181818;stroke-width:1;stroke-linejoin:miter;stroke-miterlimit:10;"/><line style="stroke:#181818;stroke-width:1;" x1="477.2942" x2="477.2942" y1="623.6055" y2="643.6055"/><polygon fill="#181818" points="473.2942,633.6055,477.2942,643.6055,481.2942,633.6055,477.2942,637.6055" style="stroke:#181818;stroke-width:1;stroke-linejoin:miter;stroke-miterlimit:10;"/><line style="stroke:#181818;stroke-width:1;" x1="365.3389" x2="365.3389" y1="768.2266" y2="803.2266"/><polygon fill="#181818" points="361.3389,793.2266,365.3389,803.2266,369.3389,793.2266,365.3389,797.2266" style="stroke:#181818;stroke-width:1;stroke-linejoin:miter;stroke-miterlimit:10;"/><line style="stroke:#181818;stroke-width:1;" x1="365.3389" x2="365.3389" y1="838.5371" y2="860.5371"/><polygon fill="#181818" points="361.3389,850.5371,365.3389,860.5371,369.3389,850.5371,365.3389,854.5371" style="stroke:#181818;stroke-width:1;stroke-linejoin:miter;stroke-miterlimit:10;"/><line style="stroke:#181818;stroke-width:1;" x1="365.3389" x2="365.3389" y1="895.8477" y2="915.8477"/><polygon fill="#181818" points="361.3389,905.8477,365.3389,915.8477,369.3389,905.8477,365.3389,909.8477" style="stroke:#181818;stroke-width:1;stroke-linejoin:miter;stroke-miterlimit:10;"/><line style="stroke:#181818;stroke-width:1;" x1="589.2495" x2="589.2495" y1="783.5371" y2="818.5371"/><polygon fill="#181818" points="585.2495,808.5371,589.2495,818.5371,593.2495,808.5371,589.2495,812.5371" style="stroke:#181818;stroke-width:1;stroke-linejoin:miter;stroke-miterlimit:10;"/><line style="stroke:#181818;stroke-width:1;" x1="378.9185" x2="365.3389" y1="710.916" y2="710.916"/><line style="stroke:#181818;stroke-width:1;" x1="365.3389" x2="365.3389" y1="710.916" y2="732.916"/><polygon fill="#181818" points="361.3389,722.916,365.3389,732.916,369.3389,722.916,365.3389,726.916" style="stroke:#181818;stroke-width:1;stroke-linejoin:miter;stroke-miterlimit:10;"/><line style="stroke:#181818;stroke-width:1;" x1="575.6699" x2="589.2495" y1="710.916" y2="710.916"/><line style="stroke:#181818;stroke-width:1;" x1="589.2495" x2="589.2495" y1="710.916" y2="732.916"/><polygon fill="#181818" points="585.2495,722.916,589.2495,732.916,593.2495,722.916,589.2495,726.916" style="stroke:#181818;stroke-width:1;stroke-linejoin:miter;stroke-miterlimit:10;"/><line style="stroke:#181818;stroke-width:1;" x1="477.2942" x2="477.2942" y1="678.916" y2="698.916"/><polygon fill="#181818" points="473.2942,688.916,477.2942,698.916,481.2942,688.916,477.2942,692.916" style="stroke:#181818;stroke-width:1;stroke-linejoin:miter;stroke-miterlimit:10;"/><line style="stroke:#181818;stroke-width:1;" x1="205.2491" x2="116.7017" y1="566.2949" y2="566.2949"/><line style="stroke:#181818;stroke-width:1;" x1="116.7017" x2="116.7017" y1="566.2949" y2="588.2949"/><polygon fill="#181818" points="112.7017,578.2949,116.7017,588.2949,120.7017,578.2949,116.7017,582.2949" style="stroke:#181818;stroke-width:1;stroke-linejoin:miter;stroke-miterlimit:10;"/><line style="stroke:#181818;stroke-width:1;" x1="388.7467" x2="477.2942" y1="566.2949" y2="566.2949"/><line style="stroke:#181818;stroke-width:1;" x1="477.2942" x2="477.2942" y1="566.2949" y2="588.2949"/><polygon fill="#181818" points="473.2942,578.2949,477.2942,588.2949,481.2942,578.2949,477.2942,582.2949" style="stroke:#181818;stroke-width:1;stroke-linejoin:miter;stroke-miterlimit:10;"/><line style="stroke:#181818;stroke-width:1;" x1="296.9979" x2="296.9979" y1="534.2949" y2="554.2949"/><polygon fill="#181818" points="292.9979,544.2949,296.9979,554.2949,300.9979,544.2949,296.9979,548.2949" style="stroke:#181818;stroke-width:1;stroke-linejoin:miter;stroke-miterlimit:10;"/><?plantuml-src TPDFQnD16CRl-obUUaeW5_6M70GZAWXjeA5UUfbk9fbXTsVYxcnhl8a74H4juaaANOAKLWB52iBEeOSf-HxpJNnd9hIR6dFOoURzztkUULCaN4n9JZB8f90nosL6GUKbZOhRIC78I1vnCO4nIOjcv834oIINfHZrPIfpE69SDUCZEYPbgfvAeRO9DjvwJ66FKoKmDiZbrkRKNVw6meE7KQ58hgBk2sQgc04pfqYWcBb08blF1KoPhSypE3Id4YRSwi-zgBldNbHEV2eH39GqbS30DYOlfd1pRFL70Z6p-aF77vzSe-Nbil8bLf_7-w9HsW4HAZCpTrFgUOQ7gQ0bR7rTGcoksjZ-kTNlVVanjaaGvbtcC41P_LL0mkI-G4vGPe6DKrjNt8M-kPcO_1O9-HXQVVDBUCIp8FTH6tjI0Qs4cTzYqeu0kaF_5GvC9G79hbL8xM6iK78QKRmYQ3ciY8eH7qVT8OwJs1ObhbnigHn_2tOYIH-vJ-0rsXp4YdO7FSYj_dd7Zsea5amuaJ123sCMa0VhtZLTlwNlxppnwCyONmrOqM2WvmDMBpZGZF2qYU6igFzi5ZWWivtTO8YNbt9pWQ3Ua0O3-3m_fC_A6TuBUh2yjFgxGyQ3RzeM02Tjs6WJr3kD9zpPtb3dhGRyT5_I0oPbSay2xiszvWx6xvJFGTwrsxZvih7YVnxza-bD0WWslIfnLJtlYd7eIW-j_X7-2bYQM7s5AVfi5cu5xvv9TDnZpUysOBsxNot__0i0?></g></svg>