<svg xmlns="http://www.w3.org/2000/svg" xmlns:xlink="http://www.w3.org/1999/xlink" contentStyleType="text/css" data-diagram-type="ACTIVITY" height="896px" preserveAspectRatio="none" style="width:492px;height:896px;background:#FFFFFF;" version="1.1" viewBox="0 0 492 896" width="492px" zoomAndPan="magnify"><?plantuml 1.2026.6?><defs/><g><ellipse cx="246.9827" cy="25" fill="#222222" rx="10" ry="10" style="stroke:#222222;stroke-width:1;"/><rect fill="#F1F1F1" height="35.3105" rx="12.5" ry="12.5" style="stroke:#181818;stroke-width:0.5;" width="172.6357" x="160.6648" y="55"/><text fill="#000000" font-family="'Be Vietnam Pro'" font-size="13" lengthAdjust="spacing" textLength="152.6357" x="170.6648" y="77.5684">Qu&#7843;n tr&#7883; vi&#234;n &#273;&#259;ng nh&#7853;p</text><rect fill="#F1F1F1" height="35.3105" rx="12.5" ry="12.5" style="stroke:#181818;stroke-width:0.5;" width="197.252" x="148.3567" y="110.3105"/><text fill="#000000" font-family="'Be Vietnam Pro'" font-size="13" lengthAdjust="spacing" textLength="177.252" x="158.3567" y="132.8789">V&#224;o trang qu&#7843;n l&#253; s&#7843;n ph&#7849;m</text><polygon fill="#F1F1F1" points="217.1074,165.6211,276.8579,165.6211,288.8579,177.6211,276.8579,189.6211,217.1074,189.6211,205.1074,177.6211,217.1074,165.6211" style="stroke:#181818;stroke-width:0.5;stroke-linejoin:miter;stroke-miterlimit:10;"/><text fill="#000000" font-family="'Be Vietnam Pro'" font-size="13" lengthAdjust="spacing" textLength="59.7505" x="217.1074" y="182.5342">Thao t&#225;c?</text><text fill="#000000" font-family="'Be Vietnam Pro'" font-size="13" lengthAdjust="spacing" textLength="64.4478" x="140.6597" y="174.8789">Th&#234;m m&#7899;i</text><text fill="#000000" font-family="'Be Vietnam Pro'" font-size="13" lengthAdjust="spacing" textLength="56.6465" x="288.8579" y="174.8789">C&#7853;p nh&#7853;t</text><rect fill="#F1F1F1" height="50.6211" rx="12.5" ry="12.5" style="stroke:#181818;stroke-width:0.5;" width="203.4409" x="26.2292" y="199.6211"/><text fill="#000000" font-family="'Be Vietnam Pro'" font-size="13" lengthAdjust="spacing" textLength="160.7036" x="36.2292" y="222.1895">Nh&#7853;p th&#244;ng tin s&#7843;n ph&#7849;m</text><text fill="#000000" font-family="'Be Vietnam Pro'" font-size="13" lengthAdjust="spacing" textLength="183.4409" x="36.2292" y="237.5">(t&#234;n, danh m&#7909;c, gi&#225;, m&#244; t&#7843;...)</text><rect fill="#F1F1F1" height="35.3105" rx="12.5" ry="12.5" style="stroke:#181818;stroke-width:0.5;" width="187.5083" x="34.1956" y="285.2422"/><text fill="#000000" font-family="'Be Vietnam Pro'" font-size="13" lengthAdjust="spacing" textLength="167.5083" x="44.1956" y="307.8105">T&#7843;i l&#234;n h&#236;nh &#7843;nh s&#7843;n ph&#7849;m</text><rect fill="#F1F1F1" height="50.6211" rx="12.5" ry="12.5" style="stroke:#181818;stroke-width:0.5;" width="223.8994" x="16" y="340.5527"/><text fill="#000000" font-family="'Be Vietnam Pro'" font-size="13" lengthAdjust="spacing" textLength="110.6016" x="26" y="363.1211">Khai b&#225;o bi&#7871;n th&#7875;</text><text fill="#000000" font-family="'Be Vietnam Pro'" font-size="13" lengthAdjust="spacing" textLength="203.8994" x="26" y="378.4316">(k&#237;ch c&#7905;, m&#224;u s&#7855;c, SKU, t&#7891;n kho)</text><rect fill="#F1F1F1" height="35.3105" rx="12.5" ry="12.5" style="stroke:#181818;stroke-width:0.5;" width="171.4932" x="280.269" y="199.6211"/><text fill="#000000" font-family="'Be Vietnam Pro'" font-size="13" lengthAdjust="spacing" textLength="151.4932" x="290.269" y="222.1895">Ch&#7885;n s&#7843;n ph&#7849;m c&#7847;n s&#7917;a</text><rect fill="#F1F1F1" height="35.3105" rx="12.5" ry="12.5" style="stroke:#181818;stroke-width:0.5;" width="212.2324" x="259.8994" y="269.9316"/><text fill="#000000" font-family="'Be Vietnam Pro'" font-size="13" lengthAdjust="spacing" textLength="192.2324" x="269.8994" y="292.5">Ch&#7881;nh s&#7917;a th&#244;ng tin / bi&#7871;n th&#7875;</text><polygon fill="#F1F1F1" points="246.9827,397.1738,258.9827,409.1738,246.9827,421.1738,234.9827,409.1738,246.9827,397.1738" style="stroke:#181818;stroke-width:0.5;stroke-linejoin:miter;stroke-miterlimit:10;"/><rect fill="#F1F1F1" height="35.3105" rx="12.5" ry="12.5" style="stroke:#181818;stroke-width:0.5;" width="226.5781" x="133.6936" y="441.1738"/><text fill="#000000" font-family="'Be Vietnam Pro'" font-size="13" lengthAdjust="spacing" textLength="206.5781" x="143.6936" y="463.7422">H&#7879; th&#7889;ng ki&#7875;m tra h&#7907;p l&#7879; d&#7919; li&#7879;u</text><rect fill="#F1F1F1" height="35.3105" rx="12.5" ry="12.5" style="stroke:#181818;stroke-width:0.5;" width="170.0713" x="161.947" y="546.1396"/><text fill="#000000" font-family="'Be Vietnam Pro'" font-size="13" lengthAdjust="spacing" textLength="150.0713" x="171.947" y="568.708">Th&#244;ng b&#225;o l&#7895;i nh&#7853;p li&#7879;u</text><ellipse cx="246.9827" cy="620.2949" fill="none" rx="11" ry="11" style="stroke:#222222;stroke-width:1;"/><ellipse cx="246.9827" cy="620.2949" fill="#222222" rx="6" ry="6" style="stroke:#222222;stroke-width:1;"/><polygon fill="#F1F1F1" points="199.3911,496.4844,294.5742,496.4844,306.5742,508.4844,294.5742,520.4844,199.3911,520.4844,187.3911,508.4844,199.3911,496.4844" style="stroke:#181818;stroke-width:0.5;stroke-linejoin:miter;stroke-miterlimit:10;"/><text fill="#000000" font-family="'Be Vietnam Pro'" font-size="13" lengthAdjust="spacing" textLength="39.8252" x="250.9827" y="533.0527">kh&#244;ng</text><text fill="#000000" font-family="'Be Vietnam Pro'" font-size="13" lengthAdjust="spacing" textLength="95.1831" x="199.3911" y="513.3975">D&#7919; li&#7879;u h&#7907;p l&#7879;?</text><text fill="#000000" font-family="'Be Vietnam Pro'" font-size="13" lengthAdjust="spacing" textLength="14.644" x="306.5742" y="505.7422">c&#243;</text><rect fill="#F1F1F1" height="35.3105" rx="12.5" ry="12.5" style="stroke:#181818;stroke-width:0.5;" width="172.2231" x="160.8711" y="673.2949"/><text fill="#000000" font-family="'Be Vietnam Pro'" font-size="13" lengthAdjust="spacing" textLength="152.2231" x="170.8711" y="695.8633">L&#432;u s&#7843;n ph&#7849;m v&#224;o CSDL</text><rect fill="#F1F1F1" height="50.6211" rx="12.5" ry="12.5" style="stroke:#181818;stroke-width:0.5;" width="199.8608" x="147.0522" y="728.6055"/><text fill="#000000" font-family="'Be Vietnam Pro'" font-size="13" lengthAdjust="spacing" textLength="179.8608" x="157.0522" y="751.1738">Ghi nh&#7853;t k&#253; thay &#273;&#7893;i t&#7891;n kho</text><text fill="#000000" font-family="'Be Vietnam Pro'" font-size="13" lengthAdjust="spacing" textLength="148.4526" x="157.0522" y="766.4844">(n&#7871;u c&#243; &#273;i&#7873;u ch&#7881;nh kho)</text><rect fill="#F1F1F1" height="35.3105" rx="12.5" ry="12.5" style="stroke:#181818;stroke-width:0.5;" width="210.3472" x="141.8091" y="799.2266"/><text fill="#000000" font-family="'Be Vietnam Pro'" font-size="13" lengthAdjust="spacing" textLength="190.3472" x="151.8091" y="821.7949">C&#7853;p nh&#7853;t hi&#7875;n th&#7883; tr&#234;n website</text><ellipse cx="246.9827" cy="865.5371" fill="none" rx="11" ry="11" style="stroke:#222222;stroke-width:1;"/><ellipse cx="246.9827" cy="865.5371" fill="#222222" rx="6" ry="6" style="stroke:#222222;stroke-width:1;"/><line style="stroke:#181818;stroke-width:1;" x1="246.9827" x2="246.9827" y1="35" y2="55"/><polygon fill="#181818" points="242.9827,45,246.9827,55,250.9827,45,246.9827,49" style="stroke:#181818;stroke-width:1;stroke-linejoin:miter;stroke-miterlimit:10;"/><line style="stroke:#181818;stroke-width:1;" x1="246.9827" x2="246.9827" y1="90.3105" y2="110.3105"/><polygon fill="#181818" points="242.9827,100.3105,246.9827,110.3105,250.9827,100.3105,246.9827,104.3105" style="stroke:#181818;stroke-width:1;stroke-linejoin:miter;stroke-miterlimit:10;"/><line style="stroke:#181818;stroke-width:1;" x1="127.9497" x2="127.9497" y1="250.2422" y2="285.2422"/><polygon fill="#181818" points="123.9497,275.2422,127.9497,285.2422,131.9497,275.2422,127.9497,279.2422" style="stroke:#181818;stroke-width:1;stroke-linejoin:miter;stroke-miterlimit:10;"/><line style="stroke:#181818;stroke-width:1;" x1="127.9497" x2="127.9497" y1="320.5527" y2="340.5527"/><polygon fill="#181818" points="123.9497,330.5527,127.9497,340.5527,131.9497,330.5527,127.9497,334.5527" style="stroke:#181818;stroke-width:1;stroke-linejoin:miter;stroke-miterlimit:10;"/><line style="stroke:#181818;stroke-width:1;" x1="366.0156" x2="366.0156" y1="234.9316" y2="269.9316"/><polygon fill="#181818" points="362.0156,259.9316,366.0156,269.9316,370.0156,259.9316,366.0156,263.9316" style="stroke:#181818;stroke-width:1;stroke-linejoin:miter;stroke-miterlimit:10;"/><line style="stroke:#181818;stroke-width:1;" x1="205.1074" x2="127.9497" y1="177.6211" y2="177.6211"/><line style="stroke:#181818;stroke-width:1;" x1="127.9497" x2="127.9497" y1="177.6211" y2="199.6211"/><polygon fill="#181818" points="123.9497,189.6211,127.9497,199.6211,131.9497,189.6211,127.9497,193.6211" style="stroke:#181818;stroke-width:1;stroke-linejoin:miter;stroke-miterlimit:10;"/><line style="stroke:#181818;stroke-width:1;" x1="288.8579" x2="366.0156" y1="177.6211" y2="177.6211"/><line style="stroke:#181818;stroke-width:1;" x1="366.0156" x2="366.0156" y1="177.6211" y2="199.6211"/><polygon fill="#181818" points="362.0156,189.6211,366.0156,199.6211,370.0156,189.6211,366.0156,193.6211" style="stroke:#181818;stroke-width:1;stroke-linejoin:miter;stroke-miterlimit:10;"/><line style="stroke:#181818;stroke-width:1;" x1="127.9497" x2="127.9497" y1="391.1738" y2="409.1738"/><line style="stroke:#181818;stroke-width:1;" x1="127.9497" x2="234.9827" y1="409.1738" y2="409.1738"/><polygon fill="#181818" points="224.9827,405.1738,234.9827,409.1738,224.9827,413.1738,228.9827,409.1738" style="stroke:#181818;stroke-width:1;stroke-linejoin:miter;stroke-miterlimit:10;"/><line style="stroke:#181818;stroke-width:1;" x1="366.0156" x2="366.0156" y1="305.2422" y2="409.1738"/><line style="stroke:#181818;stroke-width:1;" x1="366.0156" x2="258.9827" y1="409.1738" y2="409.1738"/><polygon fill="#181818" points="268.9827,405.1738,258.9827,409.1738,268.9827,413.1738,264.9827,409.1738" style="stroke:#181818;stroke-width:1;stroke-linejoin:miter;stroke-miterlimit:10;"/><line style="stroke:#181818;stroke-width:1;" x1="246.9827" x2="246.9827" y1="145.6211" y2="165.6211"/><polygon fill="#181818" points="242.9827,155.6211,246.9827,165.6211,250.9827,155.6211,246.9827,159.6211" style="stroke:#181818;stroke-width:1;stroke-linejoin:miter;stroke-miterlimit:10;"/><line style="stroke:#181818;stroke-width:1;" x1="246.9827" x2="246.9827" y1="421.1738" y2="441.1738"/><polygon fill="#181818" points="242.9827,431.1738,246.9827,441.1738,250.9827,431.1738,246.9827,435.1738" style="stroke:#181818;stroke-width:1;stroke-linejoin:miter;stroke-miterlimit:10;"/><line style="stroke:#181818;stroke-width:1;" x1="246.9827" x2="246.9827" y1="581.4502" y2="609.2949"/><polygon fill="#181818" points="242.9827,599.2949,246.9827,609.2949,250.9827,599.2949,246.9827,603.2949" style="stroke:#181818;stroke-width:1;stroke-linejoin:miter;stroke-miterlimit:10;"/><line style="stroke:#181818;stroke-width:1;" x1="246.9827" x2="246.9827" y1="520.4844" y2="546.1396"/><polygon fill="#181818" points="242.9827,536.1396,246.9827,546.1396,250.9827,536.1396,246.9827,540.1396" style="stroke:#181818;stroke-width:1;stroke-linejoin:miter;stroke-miterlimit:10;"/><line style="stroke:#181818;stroke-width:1;" x1="306.5742" x2="342.0183" y1="508.4844" y2="508.4844"/><polygon fill="#181818" points="338.0183,579.2949,342.0183,589.2949,346.0183,579.2949,342.0183,583.2949" style="stroke:#181818;stroke-width:1;stroke-linejoin:miter;stroke-miterlimit:10;"/><line style="stroke:#181818;stroke-width:1;" x1="342.0183" x2="342.0183" y1="508.4844" y2="653.2949"/><line style="stroke:#181818;stroke-width:1;" x1="342.0183" x2="246.9827" y1="653.2949" y2="653.2949"/><line style="stroke:#181818;stroke-width:1;" x1="246.9827" x2="246.9827" y1="653.2949" y2="673.2949"/><polygon fill="#181818" points="242.9827,663.2949,246.9827,673.2949,250.9827,663.2949,246.9827,667.2949" style="stroke:#181818;stroke-width:1;stroke-linejoin:miter;stroke-miterlimit:10;"/><line style="stroke:#181818;stroke-width:1;" x1="246.9827" x2="246.9827" y1="476.4844" y2="496.4844"/><polygon fill="#181818" points="242.9827,486.4844,246.9827,496.4844,250.9827,486.4844,246.9827,490.4844" style="stroke:#181818;stroke-width:1;stroke-linejoin:miter;stroke-miterlimit:10;"/><line style="stroke:#181818;stroke-width:1;" x1="246.9827" x2="246.9827" y1="708.6055" y2="728.6055"/><polygon fill="#181818" points="242.9827,718.6055,246.9827,728.6055,250.9827,718.6055,246.9827,722.6055" style="stroke:#181818;stroke-width:1;stroke-linejoin:miter;stroke-miterlimit:10;"/><line style="stroke:#181818;stroke-width:1;" x1="246.9827" x2="246.9827" y1="779.2266" y2="799.2266"/><polygon fill="#181818" points="242.9827,789.2266,246.9827,799.2266,250.9827,789.2266,246.9827,793.2266" style="stroke:#181818;stroke-width:1;stroke-linejoin:miter;stroke-miterlimit:10;"/><line style="stroke:#181818;stroke-width:1;" x1="246.9827" x2="246.9827" y1="834.5371" y2="854.5371"/><polygon fill="#181818" points="242.9827,844.5371,246.9827,854.5371,250.9827,844.5371,246.9827,848.5371" style="stroke:#181818;stroke-width:1;stroke-linejoin:miter;stroke-miterlimit:10;"/><?plantuml-src RLD1QzH06BtdLtpqj0lBYdXB3e9RL6WfoguzUPbDiZj3afcOJBheJNeeKZmK4GzUkXGHYqi5UzeW7gRuF_9FV3FPRdV5M_Azb_VUzsPI9aBch60PPKgga1SgYqaNLUoLQwJaB58p8QSqOMcvYOnPc4mBLSbee59Lq8mBlOb7yOHLgNwif3vW4Dvv5DEXYBK4zgnGE_-d3iMRcEu_y4hD2ktvpwjcUI4HggbFwKYOIqatPpV7Y2DvirpaWUSVcdC50iFiLSjEpIygtLCEqhSiyCI4EYFEm3Fpy66ND8-bdPXBxDxKdqNN8_8Fd2H0SmqnBUIMoalPqV3lKSGajrzz2Niq5MRUeynSamQrt-zt0wiqmej03iJbvZleLeV_4mgyFSu4ZSrSqLWqozzOb3VrCPmIimWvXKtjrCyh--aL_8PxBtgmgZz8IhY2MOn3eSx01NULQBVA03hlj_D3RVdLZke52suvxrmgJ3QtlhUL1Xuo4XFFVzhK9svq1buY06MsTyBa8gVKeb5JNr4AwAHgIz-z6spmrYUGE5ENUDJwkpB0-IHM9xoM8ogrobSBX-PdzpRN_fyVrVQcH_PA38Qx-xWUJ_XAILE2Uw4vUuqhrDGVnLsFA5nYuOeW2n26R_6yggVjsT-icBZTlktd51tOSvx5un8_GE3Pb7y1?></g></svg>