<svg xmlns="http://www.w3.org/2000/svg" xmlns:xlink="http://www.w3.org/1999/xlink" contentStyleType="text/css" data-diagram-type="ACTIVITY" height="982px" preserveAspectRatio="none" style="width:456px;height:982px;background:#FFFFFF;" version="1.1" viewBox="0 0 456 982" width="456px" zoomAndPan="magnify"><?plantuml 1.2026.6?><defs/><g><ellipse cx="225.1991" cy="25" fill="#222222" rx="10" ry="10" style="stroke:#222222;stroke-width:1;"/><rect fill="#F1F1F1" height="50.6211" rx="12.5" ry="12.5" style="stroke:#181818;stroke-width:0.5;" width="183.687" x="133.3556" y="55"/><text fill="#000000" font-family="'Be Vietnam Pro'" font-size="13" lengthAdjust="spacing" textLength="163.687" x="143.3556" y="77.5684">Kh&#225;ch h&#224;ng m&#7903; &#273;&#417;n h&#224;ng</text><text fill="#000000" font-family="'Be Vietnam Pro'" font-size="13" lengthAdjust="spacing" textLength="91.1333" x="143.3556" y="92.8789">&#273;&#227; ho&#224;n th&#224;nh</text><rect fill="#F1F1F1" height="50.6211" rx="12.5" ry="12.5" style="stroke:#181818;stroke-width:0.5;" width="150.603" x="149.8976" y="125.6211"/><text fill="#000000" font-family="'Be Vietnam Pro'" font-size="13" lengthAdjust="spacing" textLength="130.603" x="159.8976" y="148.1895">G&#7917;i y&#234;u c&#7847;u &#273;&#7893;i / tr&#7843;</text><text fill="#000000" font-family="'Be Vietnam Pro'" font-size="13" lengthAdjust="spacing" textLength="70.3765" x="159.8976" y="163.5">(k&#232;m l&#253; do)</text><rect fill="#F1F1F1" height="50.6211" rx="12.5" ry="12.5" style="stroke:#181818;stroke-width:0.5;" width="163.2349" x="143.5817" y="196.2422"/><text fill="#000000" font-family="'Be Vietnam Pro'" font-size="13" lengthAdjust="spacing" textLength="134.3735" x="153.5817" y="218.8105">H&#7879; th&#7889;ng t&#7841;o y&#234;u c&#7847;u</text><text fill="#000000" font-family="'Be Vietnam Pro'" font-size="13" lengthAdjust="spacing" textLength="143.2349" x="153.5817" y="234.1211">(tr&#7841;ng th&#225;i &#272;&#227; y&#234;u c&#7847;u)</text><rect fill="#F1F1F1" height="50.6211" rx="12.5" ry="12.5" style="stroke:#181818;stroke-width:0.5;" width="185.0771" x="132.6605" y="266.8633"/><text fill="#000000" font-family="'Be Vietnam Pro'" font-size="13" lengthAdjust="spacing" textLength="165.0771" x="142.6605" y="289.4316">Qu&#7843;n tr&#7883; vi&#234;n xem y&#234;u c&#7847;u</text><text fill="#000000" font-family="'Be Vietnam Pro'" font-size="13" lengthAdjust="spacing" textLength="106.5771" x="142.6605" y="304.7422">t&#7841;i trang &#272;&#7893;i/Tr&#7843;</text><polygon fill="#F1F1F1" points="187.8304,337.4844,262.5677,337.4844,274.5677,349.4844,262.5677,361.4844,187.8304,361.4844,175.8304,349.4844,187.8304,337.4844" style="stroke:#181818;stroke-width:0.5;stroke-linejoin:miter;stroke-miterlimit:10;"/><text fill="#000000" font-family="'Be Vietnam Pro'" font-size="13" lengthAdjust="spacing" textLength="74.7373" x="187.8304" y="354.3975">Quy&#7871;t &#273;&#7883;nh?</text><text fill="#000000" font-family="'Be Vietnam Pro'" font-size="13" lengthAdjust="spacing" textLength="47.5757" x="128.2548" y="346.7422">T&#7915; ch&#7889;i</text><text fill="#000000" font-family="'Be Vietnam Pro'" font-size="13" lengthAdjust="spacing" textLength="67.9199" x="274.5677" y="346.7422">Ch&#7845;p nh&#7853;n</text><rect fill="#F1F1F1" height="50.6211" rx="12.5" ry="12.5" style="stroke:#181818;stroke-width:0.5;" width="198.0771" x="16" y="371.4844"/><text fill="#000000" font-family="'Be Vietnam Pro'" font-size="13" lengthAdjust="spacing" textLength="178.0771" x="26" y="394.0527">C&#7853;p nh&#7853;t tr&#7841;ng th&#225;i T&#7915; ch&#7889;i,</text><text fill="#000000" font-family="'Be Vietnam Pro'" font-size="13" lengthAdjust="spacing" textLength="81.7832" x="26" y="409.3633">ghi ch&#250; l&#253; do</text><rect fill="#F1F1F1" height="35.3105" rx="12.5" ry="12.5" style="stroke:#181818;stroke-width:0.5;" width="191.9517" x="19.0627" y="442.1055"/><text fill="#000000" font-family="'Be Vietnam Pro'" font-size="13" lengthAdjust="spacing" textLength="171.9517" x="29.0627" y="464.6738">Th&#244;ng b&#225;o cho kh&#225;ch h&#224;ng</text><ellipse cx="115.0386" cy="508.416" fill="none" rx="11" ry="11" style="stroke:#222222;stroke-width:1;"/><ellipse cx="115.0386" cy="508.416" fill="#222222" rx="6" ry="6" style="stroke:#222222;stroke-width:1;"/><rect fill="#F1F1F1" height="35.3105" rx="12.5" ry="12.5" style="stroke:#181818;stroke-width:0.5;" width="202.5649" x="234.0771" y="371.4844"/><text fill="#000000" font-family="'Be Vietnam Pro'" font-size="13" lengthAdjust="spacing" textLength="182.5649" x="244.0771" y="394.0527">C&#7853;p nh&#7853;t tr&#7841;ng th&#225;i &#272;&#227; duy&#7879;t</text><rect fill="#F1F1F1" height="35.3105" rx="12.5" ry="12.5" style="stroke:#181818;stroke-width:0.5;" width="140.9292" x="154.7345" y="589.0713"/><text fill="#000000" font-family="'Be Vietnam Pro'" font-size="13" lengthAdjust="spacing" textLength="120.9292" x="164.7345" y="611.6396">X&#225;c nh&#7853;n ho&#224;n ti&#7873;n</text><rect fill="#F1F1F1" height="35.3105" rx="12.5" ry="12.5" style="stroke:#181818;stroke-width:0.5;" width="127.0532" x="161.6725" y="644.3818"/><text fill="#000000" font-family="'Be Vietnam Pro'" font-size="13" lengthAdjust="spacing" textLength="107.0532" x="171.6725" y="666.9502">Ho&#224;n tr&#7843; t&#7891;n kho</text><rect fill="#F1F1F1" height="50.6211" rx="12.5" ry="12.5" style="stroke:#181818;stroke-width:0.5;" width="253.0161" x="98.691" y="699.6924"/><text fill="#000000" font-family="'Be Vietnam Pro'" font-size="13" lengthAdjust="spacing" textLength="125.4297" x="108.691" y="722.2607">C&#7853;p nh&#7853;t &#273;&#417;n h&#224;ng:</text><text fill="#000000" font-family="'Be Vietnam Pro'" font-size="13" lengthAdjust="spacing" textLength="233.0161" x="108.691" y="737.5713">tr&#7841;ng th&#225;i thanh to&#225;n = &#272;&#227; ho&#224;n ti&#7873;n</text><polygon fill="#F1F1F1" points="192.0421,539.416,258.3561,539.416,270.3561,551.416,258.3561,563.416,192.0421,563.416,180.0421,551.416,192.0421,539.416" style="stroke:#181818;stroke-width:0.5;stroke-linejoin:miter;stroke-miterlimit:10;"/><text fill="#000000" font-family="'Be Vietnam Pro'" font-size="13" lengthAdjust="spacing" textLength="14.644" x="229.1991" y="575.9844">c&#243;</text><text fill="#000000" font-family="'Be Vietnam Pro'" font-size="13" lengthAdjust="spacing" textLength="66.314" x="192.0421" y="556.3291">Ho&#224;n ti&#7873;n?</text><text fill="#000000" font-family="'Be Vietnam Pro'" font-size="13" lengthAdjust="spacing" textLength="39.8252" x="270.3561" y="548.6738">kh&#244;ng</text><polygon fill="#F1F1F1" points="225.1991,770.3135,237.1991,782.3135,225.1991,794.3135,213.1991,782.3135,225.1991,770.3135" style="stroke:#181818;stroke-width:0.5;stroke-linejoin:miter;stroke-miterlimit:10;"/><rect fill="#F1F1F1" height="50.6211" rx="12.5" ry="12.5" style="stroke:#181818;stroke-width:0.5;" width="160.0293" x="145.1844" y="814.3135"/><text fill="#000000" font-family="'Be Vietnam Pro'" font-size="13" lengthAdjust="spacing" textLength="122.2749" x="155.1844" y="836.8818">C&#7853;p nh&#7853;t tr&#7841;ng th&#225;i</text><text fill="#000000" font-family="'Be Vietnam Pro'" font-size="13" lengthAdjust="spacing" textLength="140.0293" x="155.1844" y="852.1924">y&#234;u c&#7847;u = &#272;&#227; ho&#224;n t&#7845;t</text><rect fill="#F1F1F1" height="35.3105" rx="12.5" ry="12.5" style="stroke:#181818;stroke-width:0.5;" width="191.9517" x="129.2233" y="884.9346"/><text fill="#000000" font-family="'Be Vietnam Pro'" font-size="13" lengthAdjust="spacing" textLength="171.9517" x="139.2233" y="907.5029">Th&#244;ng b&#225;o cho kh&#225;ch h&#224;ng</text><ellipse cx="225.1991" cy="951.2451" fill="none" rx="11" ry="11" style="stroke:#222222;stroke-width:1;"/><ellipse cx="225.1991" cy="951.2451" fill="#222222" rx="6" ry="6" style="stroke:#222222;stroke-width:1;"/><line style="stroke:#181818;stroke-width:1;" x1="225.1991" x2="225.1991" y1="35" y2="55"/><polygon fill="#181818" points="221.1991,45,225.1991,55,229.1991,45,225.1991,49" style="stroke:#181818;stroke-width:1;stroke-linejoin:miter;stroke-miterlimit:10;"/><line style="stroke:#181818;stroke-width:1;" x1="225.1991" x2="225.1991" y1="105.6211" y2="125.6211"/><polygon fill="#181818" points="221.1991,115.6211,225.1991,125.6211,229.1991,115.6211,225.1991,119.6211" style="stroke:#181818;stroke-width:1;stroke-linejoin:miter;stroke-miterlimit:10;"/><line style="stroke:#181818;stroke-width:1;" x1="225.1991" x2="225.1991" y1="176.2422" y2="196.2422"/><polygon fill="#181818" points="221.1991,186.2422,225.1991,196.2422,229.1991,186.2422,225.1991,190.2422" style="stroke:#181818;stroke-width:1;stroke-linejoin:miter;stroke-miterlimit:10;"/><line style="stroke:#181818;stroke-width:1;" x1="225.1991" x2="225.1991" y1="246.8633" y2="266.8633"/><polygon fill="#181818" points="221.1991,256.8633,225.1991,266.8633,229.1991,256.8633,225.1991,260.8633" style="stroke:#181818;stroke-width:1;stroke-linejoin:miter;stroke-miterlimit:10;"/><line style="stroke:#181818;stroke-width:1;" x1="115.0386" x2="115.0386" y1="422.1055" y2="442.1055"/><polygon fill="#181818" points="111.0386,432.1055,115.0386,442.1055,119.0386,432.1055,115.0386,436.1055" style="stroke:#181818;stroke-width:1;stroke-linejoin:miter;stroke-miterlimit:10;"/><line style="stroke:#181818;stroke-width:1;" x1="115.0386" x2="115.0386" y1="477.416" y2="497.416"/><polygon fill="#181818" points="111.0386,487.416,115.0386,497.416,119.0386,487.416,115.0386,491.416" style="stroke:#181818;stroke-width:1;stroke-linejoin:miter;stroke-miterlimit:10;"/><line style="stroke:#181818;stroke-width:1;" x1="175.8304" x2="115.0386" y1="349.4844" y2="349.4844"/><line style="stroke:#181818;stroke-width:1;" x1="115.0386" x2="115.0386" y1="349.4844" y2="371.4844"/><polygon fill="#181818" points="111.0386,361.4844,115.0386,371.4844,119.0386,361.4844,115.0386,365.4844" style="stroke:#181818;stroke-width:1;stroke-linejoin:miter;stroke-miterlimit:10;"/><line style="stroke:#181818;stroke-width:1;" x1="274.5677" x2="335.3596" y1="349.4844" y2="349.4844"/><line style="stroke:#181818;stroke-width:1;" x1="335.3596" x2="335.3596" y1="349.4844" y2="371.4844"/><polygon fill="#181818" points="331.3596,361.4844,335.3596,371.4844,339.3596,361.4844,335.3596,365.4844" style="stroke:#181818;stroke-width:1;stroke-linejoin:miter;stroke-miterlimit:10;"/><line style="stroke:#181818;stroke-width:1;" x1="335.3596" x2="335.3596" y1="406.7949" y2="524.416"/><line style="stroke:#181818;stroke-width:1;" x1="335.3596" x2="225.1991" y1="524.416" y2="524.416"/><line style="stroke:#181818;stroke-width:1;" x1="225.1991" x2="225.1991" y1="524.416" y2="539.416"/><polygon fill="#181818" points="221.1991,529.416,225.1991,539.416,229.1991,529.416,225.1991,533.416" style="stroke:#181818;stroke-width:1;stroke-linejoin:miter;stroke-miterlimit:10;"/><line style="stroke:#181818;stroke-width:1;" x1="225.1991" x2="225.1991" y1="317.4844" y2="337.4844"/><polygon fill="#181818" points="221.1991,327.4844,225.1991,337.4844,229.1991,327.4844,225.1991,331.4844" style="stroke:#181818;stroke-width:1;stroke-linejoin:miter;stroke-miterlimit:10;"/><line style="stroke:#181818;stroke-width:1;" x1="225.1991" x2="225.1991" y1="624.3818" y2="644.3818"/><polygon fill="#181818" points="221.1991,634.3818,225.1991,644.3818,229.1991,634.3818,225.1991,638.3818" style="stroke:#181818;stroke-width:1;stroke-linejoin:miter;stroke-miterlimit:10;"/><line style="stroke:#181818;stroke-width:1;" x1="225.1991" x2="225.1991" y1="679.6924" y2="699.6924"/><polygon fill="#181818" points="221.1991,689.6924,225.1991,699.6924,229.1991,689.6924,225.1991,693.6924" style="stroke:#181818;stroke-width:1;stroke-linejoin:miter;stroke-miterlimit:10;"/><line style="stroke:#181818;stroke-width:1;" x1="225.1991" x2="225.1991" y1="563.416" y2="589.0713"/><polygon fill="#181818" points="221.1991,579.0713,225.1991,589.0713,229.1991,579.0713,225.1991,583.0713" style="stroke:#181818;stroke-width:1;stroke-linejoin:miter;stroke-miterlimit:10;"/><line style="stroke:#181818;stroke-width:1;" x1="270.3561" x2="361.7072" y1="551.416" y2="551.416"/><polygon fill="#181818" points="357.7072,659.6924,361.7072,669.6924,365.7072,659.6924,361.7072,663.6924" style="stroke:#181818;stroke-width:1;stroke-linejoin:miter;stroke-miterlimit:10;"/><line style="stroke:#181818;stroke-width:1;" x1="361.7072" x2="361.7072" y1="551.416" y2="782.3135"/><line style="stroke:#181818;stroke-width:1;" x1="361.7072" x2="237.1991" y1="782.3135" y2="782.3135"/><polygon fill="#181818" points="247.1991,778.3135,237.1991,782.3135,247.1991,786.3135,243.1991,782.3135" style="stroke:#181818;stroke-width:1;stroke-linejoin:miter;stroke-miterlimit:10;"/><line style="stroke:#181818;stroke-width:1;" x1="225.1991" x2="225.1991" y1="750.3135" y2="770.3135"/><polygon fill="#181818" points="221.1991,760.3135,225.1991,770.3135,229.1991,760.3135,225.1991,764.3135" style="stroke:#181818;stroke-width:1;stroke-linejoin:miter;stroke-miterlimit:10;"/><line style="stroke:#181818;stroke-width:1;" x1="225.1991" x2="225.1991" y1="794.3135" y2="814.3135"/><polygon fill="#181818" points="221.1991,804.3135,225.1991,814.3135,229.1991,804.3135,225.1991,808.3135" style="stroke:#181818;stroke-width:1;stroke-linejoin:miter;stroke-miterlimit:10;"/><line style="stroke:#181818;stroke-width:1;" x1="225.1991" x2="225.1991" y1="864.9346" y2="884.9346"/><polygon fill="#181818" points="221.1991,874.9346,225.1991,884.9346,229.1991,874.9346,225.1991,878.9346" style="stroke:#181818;stroke-width:1;stroke-linejoin:miter;stroke-miterlimit:10;"/><line style="stroke:#181818;stroke-width:1;" x1="225.1991" x2="225.1991" y1="920.2451" y2="940.2451"/><polygon fill="#181818" points="221.1991,930.2451,225.1991,940.2451,229.1991,930.2451,225.1991,934.2451" style="stroke:#181818;stroke-width:1;stroke-linejoin:miter;stroke-miterlimit:10;"/><?plantuml-src XL9FIzn05B_dKpmyxO8WqjikHUY22WLHN8g7lOp9xCwGpPibcVZlvic35vVISxj8QL4ywIc3U9YbtsE-ITyaKHCGFON9-xtVlvaibZXZAKiWKQX2aQg4Wqvp7cGlaqomI1rBdC2OJRFcv925yIHLEKO3DLKf70kfc_E8Zra-rPiAzGuZufKl7Bv9hf5ckwbQUHkwByyuh7yACirI7VI-2hi81GZxYnmaplo4vVpV0giV8rpExJK8HGVG_fVe1xqjP-uadDgR749N_CbfmvaV4jOecYkkHzY9xTy4flOH8jMbXMrdBcZTcJbfQ5SiL6ERu7vjuKVaHSBoYYHVvvvWBoTUzFJc4ewalK4uuKcBnDDAGZ3YMLvvFsj3xwOVo35qzl9JLppfqkabYeqkQN64pj2PMmYzCzaD07e3LzpD00LzDBHjDQ2h8vm8IGTRr2dxVdaex0F13otb2uM2k56j1sHQpG9ETmoT0IdyheNm8-Moa8WIc0lT3pX6Sbo6sgwkHJfpZY-9GdjVyXsGTit_V7ybi7HQR_f-w3xCToIlLOQMZSPBw573BLDQC1IWbIN4vyfYMwOA6fUTT6lNxwGSOUD1jGcfAihzGRs-tFy0?></g></svg>