<svg xmlns="http://www.w3.org/2000/svg" xmlns:xlink="http://www.w3.org/1999/xlink" contentStyleType="text/css" data-diagram-type="CLASS" height="599px" preserveAspectRatio="none" style="width:1364px;height:599px;background:#FFFFFF;" version="1.1" viewBox="0 0 1364 599" width="1364px" zoomAndPan="magnify"><?plantuml 1.2026.6?><defs/><g><!--class User--><g class="entity" data-qualified-name="User" data-source-line="8" id="ent0001"><rect fill="#F1F1F1" height="87.2422" rx="2.5" ry="2.5" style="stroke:#181818;stroke-width:0.5;" width="136.6997" x="428.12" y="164"/><text fill="#000000" font-family="'Be Vietnam Pro'" font-size="13" lengthAdjust="spacing" textLength="28.1963" x="482.3717" y="181.5684">User</text><line style="stroke:#181818;stroke-width:0.5;" x1="429.12" x2="563.8197" y1="189.3105" y2="189.3105"/><g data-visibility-modifier="IE_MANDATORY"><ellipse cx="439.12" cy="202.4658" fill="#000000" rx="3" ry="3" style="stroke:#000000;stroke-width:1;"/></g><text fill="#000000" font-family="'Be Vietnam Pro'" font-size="13" lengthAdjust="spacing" textLength="85.7632" x="447.12" y="205.8789">id : uuid &#171;PK&#187;</text><line style="stroke:#181818;stroke-width:1;" x1="429.12" x2="563.8197" y1="212.6211" y2="212.6211"/><text fill="#000000" font-family="'Be Vietnam Pro'" font-size="13" lengthAdjust="spacing" textLength="124.6997" x="434.12" y="229.1895">email, name, phone</text><text fill="#000000" font-family="'Be Vietnam Pro'" font-size="13" lengthAdjust="spacing" textLength="24.3052" x="434.12" y="244.5">role</text></g><!--class Address--><g class="entity" data-qualified-name="Address" data-source-line="14" id="ent0002"><rect fill="#F1F1F1" height="87.2422" rx="2.5" ry="2.5" style="stroke:#181818;stroke-width:0.5;" width="208.6123" x="177.16" y="326.55"/><text fill="#000000" font-family="'Be Vietnam Pro'" font-size="13" lengthAdjust="spacing" textLength="51.1494" x="255.8914" y="344.1184">Address</text><line style="stroke:#181818;stroke-width:0.5;" x1="178.16" x2="384.7723" y1="351.8605" y2="351.8605"/><g data-visibility-modifier="IE_MANDATORY"><ellipse cx="188.16" cy="365.0158" fill="#000000" rx="3" ry="3" style="stroke:#000000;stroke-width:1;"/></g><text fill="#000000" font-family="'Be Vietnam Pro'" font-size="13" lengthAdjust="spacing" textLength="45.3477" x="196.16" y="368.4289">id &#171;PK&#187;</text><line style="stroke:#181818;stroke-width:1;" x1="178.16" x2="384.7723" y1="375.1711" y2="375.1711"/><text fill="#000000" font-family="'Be Vietnam Pro'" font-size="13" lengthAdjust="spacing" textLength="72.376" x="183.16" y="391.7395">userId &#171;FK&#187;</text><text fill="#000000" font-family="'Be Vietnam Pro'" font-size="13" lengthAdjust="spacing" textLength="196.6123" x="183.16" y="407.05">recipientName, phone, address</text></g><!--class Category--><g class="entity" data-qualified-name="Category" data-source-line="20" id="ent0003"><rect fill="#F1F1F1" height="71.9316" rx="2.5" ry="2.5" style="stroke:#181818;stroke-width:0.5;" width="142.4189" x="871.26" y="24.41"/><text fill="#000000" font-family="'Be Vietnam Pro'" font-size="13" lengthAdjust="spacing" textLength="56.4814" x="914.2288" y="41.9784">Category</text><line style="stroke:#181818;stroke-width:0.5;" x1="872.26" x2="1012.6789" y1="49.7205" y2="49.7205"/><g data-visibility-modifier="IE_MANDATORY"><ellipse cx="882.26" cy="62.8758" fill="#000000" rx="3" ry="3" style="stroke:#000000;stroke-width:1;"/></g><text fill="#000000" font-family="'Be Vietnam Pro'" font-size="13" lengthAdjust="spacing" textLength="45.3477" x="890.26" y="66.2889">id &#171;PK&#187;</text><line style="stroke:#181818;stroke-width:1;" x1="872.26" x2="1012.6789" y1="73.0311" y2="73.0311"/><text fill="#000000" font-family="'Be Vietnam Pro'" font-size="13" lengthAdjust="spacing" textLength="130.4189" x="877.26" y="89.5995">name, slug, parentId</text></g><!--class Product--><g class="entity" data-qualified-name="Product" data-source-line="25" id="ent0004"><rect fill="#F1F1F1" height="102.5527" rx="2.5" ry="2.5" style="stroke:#181818;stroke-width:0.5;" width="156.5933" x="864.17" y="156.34"/><text fill="#000000" font-family="'Be Vietnam Pro'" font-size="13" lengthAdjust="spacing" textLength="48.2612" x="918.336" y="173.9084">Product</text><line style="stroke:#181818;stroke-width:0.5;" x1="865.17" x2="1019.7633" y1="181.6505" y2="181.6505"/><g data-visibility-modifier="IE_MANDATORY"><ellipse cx="875.17" cy="194.8058" fill="#000000" rx="3" ry="3" style="stroke:#000000;stroke-width:1;"/></g><text fill="#000000" font-family="'Be Vietnam Pro'" font-size="13" lengthAdjust="spacing" textLength="45.3477" x="883.17" y="198.2189">id &#171;PK&#187;</text><line style="stroke:#181818;stroke-width:1;" x1="865.17" x2="1019.7633" y1="204.9611" y2="204.9611"/><text fill="#000000" font-family="'Be Vietnam Pro'" font-size="13" lengthAdjust="spacing" textLength="99.2646" x="870.17" y="221.5295">categoryId &#171;FK&#187;</text><text fill="#000000" font-family="'Be Vietnam Pro'" font-size="13" lengthAdjust="spacing" textLength="137.0332" x="870.17" y="236.84">name, slug, basePrice</text><text fill="#000000" font-family="'Be Vietnam Pro'" font-size="13" lengthAdjust="spacing" textLength="144.5933" x="870.17" y="252.1505">ratingAvg, ratingCount</text></g><!--class ProductImage--><g class="entity" data-qualified-name="ProductImage" data-source-line="32" id="ent0005"><rect fill="#F1F1F1" height="87.2422" rx="2.5" ry="2.5" style="stroke:#181818;stroke-width:0.5;" width="106.377" x="889.28" y="326.55"/><text fill="#000000" font-family="'Be Vietnam Pro'" font-size="13" lengthAdjust="spacing" textLength="86.6709" x="899.133" y="344.1184">ProductImage</text><line style="stroke:#181818;stroke-width:0.5;" x1="890.28" x2="994.657" y1="351.8605" y2="351.8605"/><g data-visibility-modifier="IE_MANDATORY"><ellipse cx="900.28" cy="365.0158" fill="#000000" rx="3" ry="3" style="stroke:#000000;stroke-width:1;"/></g><text fill="#000000" font-family="'Be Vietnam Pro'" font-size="13" lengthAdjust="spacing" textLength="45.3477" x="908.28" y="368.4289">id &#171;PK&#187;</text><line style="stroke:#181818;stroke-width:1;" x1="890.28" x2="994.657" y1="375.1711" y2="375.1711"/><text fill="#000000" font-family="'Be Vietnam Pro'" font-size="13" lengthAdjust="spacing" textLength="94.377" x="895.28" y="391.7395">productId &#171;FK&#187;</text><text fill="#000000" font-family="'Be Vietnam Pro'" font-size="13" lengthAdjust="spacing" textLength="83.4463" x="895.28" y="407.05">url, isPrimary</text></g><!--class Variant--><g class="entity" data-qualified-name="Variant" data-source-line="38" id="ent0006"><rect fill="#F1F1F1" height="87.2422" rx="2.5" ry="2.5" style="stroke:#181818;stroke-width:0.5;" width="149.4902" x="1030.73" y="326.55"/><text fill="#000000" font-family="'Be Vietnam Pro'" font-size="13" lengthAdjust="spacing" textLength="93.1265" x="1058.9119" y="344.1184">ProductVariant</text><line style="stroke:#181818;stroke-width:0.5;" x1="1031.73" x2="1179.2202" y1="351.8605" y2="351.8605"/><g data-visibility-modifier="IE_MANDATORY"><ellipse cx="1041.73" cy="365.0158" fill="#000000" rx="3" ry="3" style="stroke:#000000;stroke-width:1;"/></g><text fill="#000000" font-family="'Be Vietnam Pro'" font-size="13" lengthAdjust="spacing" textLength="45.3477" x="1049.73" y="368.4289">id &#171;PK&#187;</text><line style="stroke:#181818;stroke-width:1;" x1="1031.73" x2="1179.2202" y1="375.1711" y2="375.1711"/><text fill="#000000" font-family="'Be Vietnam Pro'" font-size="13" lengthAdjust="spacing" textLength="94.377" x="1036.73" y="391.7395">productId &#171;FK&#187;</text><text fill="#000000" font-family="'Be Vietnam Pro'" font-size="13" lengthAdjust="spacing" textLength="137.4902" x="1036.73" y="407.05">sku, size, color, stock</text></g><!--class Order--><g class="entity" data-qualified-name="Order" data-source-line="44" id="ent0007"><rect fill="#F1F1F1" height="102.5527" rx="2.5" ry="2.5" style="stroke:#181818;stroke-width:0.5;" width="150.874" x="421.03" y="318.89"/><text fill="#000000" font-family="'Be Vietnam Pro'" font-size="13" lengthAdjust="spacing" textLength="36.1626" x="478.3857" y="336.4584">Order</text><line style="stroke:#181818;stroke-width:0.5;" x1="422.03" x2="570.904" y1="344.2005" y2="344.2005"/><g data-visibility-modifier="IE_MANDATORY"><ellipse cx="432.03" cy="357.3558" fill="#000000" rx="3" ry="3" style="stroke:#000000;stroke-width:1;"/></g><text fill="#000000" font-family="'Be Vietnam Pro'" font-size="13" lengthAdjust="spacing" textLength="45.3477" x="440.03" y="360.7689">id &#171;PK&#187;</text><line style="stroke:#181818;stroke-width:1;" x1="422.03" x2="570.904" y1="367.5111" y2="367.5111"/><text fill="#000000" font-family="'Be Vietnam Pro'" font-size="13" lengthAdjust="spacing" textLength="72.376" x="427.03" y="384.0795">userId &#171;FK&#187;</text><text fill="#000000" font-family="'Be Vietnam Pro'" font-size="13" lengthAdjust="spacing" textLength="112.9058" x="427.03" y="399.39">orderCode, status</text><text fill="#000000" font-family="'Be Vietnam Pro'" font-size="13" lengthAdjust="spacing" textLength="138.874" x="427.03" y="414.7005">paymentMethod, total</text></g><!--class OrderItem--><g class="entity" data-qualified-name="OrderItem" data-source-line="51" id="ent0008"><rect fill="#F1F1F1" height="102.5527" rx="2.5" ry="2.5" style="stroke:#181818;stroke-width:0.5;" width="126.918" x="543.01" y="481.45"/><text fill="#000000" font-family="'Be Vietnam Pro'" font-size="13" lengthAdjust="spacing" textLength="64.1494" x="574.3943" y="499.0184">OrderItem</text><line style="stroke:#181818;stroke-width:0.5;" x1="544.01" x2="668.928" y1="506.7605" y2="506.7605"/><g data-visibility-modifier="IE_MANDATORY"><ellipse cx="554.01" cy="519.9158" fill="#000000" rx="3" ry="3" style="stroke:#000000;stroke-width:1;"/></g><text fill="#000000" font-family="'Be Vietnam Pro'" font-size="13" lengthAdjust="spacing" textLength="45.3477" x="562.01" y="523.3289">id &#171;PK&#187;</text><line style="stroke:#181818;stroke-width:1;" x1="544.01" x2="668.928" y1="530.0711" y2="530.0711"/><text fill="#000000" font-family="'Be Vietnam Pro'" font-size="13" lengthAdjust="spacing" textLength="79.168" x="549.01" y="546.6395">orderId &#171;FK&#187;</text><text fill="#000000" font-family="'Be Vietnam Pro'" font-size="13" lengthAdjust="spacing" textLength="88.2134" x="549.01" y="561.95">variantId &#171;FK&#187;</text><text fill="#000000" font-family="'Be Vietnam Pro'" font-size="13" lengthAdjust="spacing" textLength="114.918" x="549.01" y="577.2605">quantity, unitPrice</text></g><!--class Review--><g class="entity" data-qualified-name="Review" data-source-line="58" id="ent0009"><rect fill="#F1F1F1" height="102.5527" rx="2.5" ry="2.5" style="stroke:#181818;stroke-width:0.5;" width="106.377" x="607.28" y="318.89"/><text fill="#000000" font-family="'Be Vietnam Pro'" font-size="13" lengthAdjust="spacing" textLength="43.2085" x="638.8642" y="336.4584">Review</text><line style="stroke:#181818;stroke-width:0.5;" x1="608.28" x2="712.657" y1="344.2005" y2="344.2005"/><g data-visibility-modifier="IE_MANDATORY"><ellipse cx="618.28" cy="357.3558" fill="#000000" rx="3" ry="3" style="stroke:#000000;stroke-width:1;"/></g><text fill="#000000" font-family="'Be Vietnam Pro'" font-size="13" lengthAdjust="spacing" textLength="45.3477" x="626.28" y="360.7689">id &#171;PK&#187;</text><line style="stroke:#181818;stroke-width:1;" x1="608.28" x2="712.657" y1="367.5111" y2="367.5111"/><text fill="#000000" font-family="'Be Vietnam Pro'" font-size="13" lengthAdjust="spacing" textLength="94.377" x="613.28" y="384.0795">productId &#171;FK&#187;</text><text fill="#000000" font-family="'Be Vietnam Pro'" font-size="13" lengthAdjust="spacing" textLength="72.376" x="613.28" y="399.39">userId &#171;FK&#187;</text><text fill="#000000" font-family="'Be Vietnam Pro'" font-size="13" lengthAdjust="spacing" textLength="83.7446" x="613.28" y="414.7005">rating, status</text></g><!--class Wishlist--><g class="entity" data-qualified-name="Wishlist" data-source-line="65" id="ent0010"><rect fill="#F1F1F1" height="87.2422" rx="2.5" ry="2.5" style="stroke:#181818;stroke-width:0.5;" width="106.377" x="748.28" y="326.55"/><text fill="#000000" font-family="'Be Vietnam Pro'" font-size="13" lengthAdjust="spacing" textLength="76.5654" x="763.1858" y="344.1184">WishlistItem</text><line style="stroke:#181818;stroke-width:0.5;" x1="749.28" x2="853.657" y1="351.8605" y2="351.8605"/><g data-visibility-modifier="IE_MANDATORY"><ellipse cx="759.28" cy="365.0158" fill="#000000" rx="3" ry="3" style="stroke:#000000;stroke-width:1;"/></g><text fill="#000000" font-family="'Be Vietnam Pro'" font-size="13" lengthAdjust="spacing" textLength="45.3477" x="767.28" y="368.4289">id &#171;PK&#187;</text><line style="stroke:#181818;stroke-width:1;" x1="749.28" x2="853.657" y1="375.1711" y2="375.1711"/><text fill="#000000" font-family="'Be Vietnam Pro'" font-size="13" lengthAdjust="spacing" textLength="72.376" x="754.28" y="391.7395">userId &#171;FK&#187;</text><text fill="#000000" font-family="'Be Vietnam Pro'" font-size="13" lengthAdjust="spacing" textLength="94.377" x="754.28" y="407.05">productId &#171;FK&#187;</text></g><!--class Voucher--><g class="entity" data-qualified-name="Voucher" data-source-line="71" id="ent0011"><rect fill="#F1F1F1" height="87.2422" rx="2.5" ry="2.5" style="stroke:#181818;stroke-width:0.5;" width="134.9414" x="7" y="326.55"/><text fill="#000000" font-family="'Be Vietnam Pro'" font-size="13" lengthAdjust="spacing" textLength="51.8413" x="48.55" y="344.1184">Voucher</text><line style="stroke:#181818;stroke-width:0.5;" x1="8" x2="140.9414" y1="351.8605" y2="351.8605"/><g data-visibility-modifier="IE_MANDATORY"><ellipse cx="18" cy="365.0158" fill="#000000" rx="3" ry="3" style="stroke:#000000;stroke-width:1;"/></g><text fill="#000000" font-family="'Be Vietnam Pro'" font-size="13" lengthAdjust="spacing" textLength="45.3477" x="26" y="368.4289">id &#171;PK&#187;</text><line style="stroke:#181818;stroke-width:1;" x1="8" x2="140.9414" y1="375.1711" y2="375.1711"/><text fill="#000000" font-family="'Be Vietnam Pro'" font-size="13" lengthAdjust="spacing" textLength="122.9414" x="13" y="391.7395">code, discountType</text><text fill="#000000" font-family="'Be Vietnam Pro'" font-size="13" lengthAdjust="spacing" textLength="88.9561" x="13" y="407.05">discountValue</text></g><!--class VR--><g class="entity" data-qualified-name="VR" data-source-line="77" id="ent0012"><rect fill="#F1F1F1" height="102.5527" rx="2.5" ry="2.5" style="stroke:#181818;stroke-width:0.5;" width="133.7212" x="318.61" y="481.45"/><text fill="#000000" font-family="'Be Vietnam Pro'" font-size="13" lengthAdjust="spacing" textLength="127.7212" x="321.61" y="499.0184">VoucherRedemption</text><line style="stroke:#181818;stroke-width:0.5;" x1="319.61" x2="451.3312" y1="506.7605" y2="506.7605"/><g data-visibility-modifier="IE_MANDATORY"><ellipse cx="329.61" cy="519.9158" fill="#000000" rx="3" ry="3" style="stroke:#000000;stroke-width:1;"/></g><text fill="#000000" font-family="'Be Vietnam Pro'" font-size="13" lengthAdjust="spacing" textLength="45.3477" x="337.61" y="523.3289">id &#171;PK&#187;</text><line style="stroke:#181818;stroke-width:1;" x1="319.61" x2="451.3312" y1="530.0711" y2="530.0711"/><text fill="#000000" font-family="'Be Vietnam Pro'" font-size="13" lengthAdjust="spacing" textLength="95.1895" x="324.61" y="546.6395">voucherId &#171;FK&#187;</text><text fill="#000000" font-family="'Be Vietnam Pro'" font-size="13" lengthAdjust="spacing" textLength="72.376" x="324.61" y="561.95">userId &#171;FK&#187;</text><text fill="#000000" font-family="'Be Vietnam Pro'" font-size="13" lengthAdjust="spacing" textLength="79.168" x="324.61" y="577.2605">orderId &#171;FK&#187;</text></g><!--class FlashSale--><g class="entity" data-qualified-name="FlashSale" data-source-line="84" id="ent0013"><rect fill="#F1F1F1" height="71.9316" rx="2.5" ry="2.5" style="stroke:#181818;stroke-width:0.5;" width="156.3394" x="1193.3" y="171.65"/><text fill="#000000" font-family="'Be Vietnam Pro'" font-size="13" lengthAdjust="spacing" textLength="57.7827" x="1242.5783" y="189.2184">FlashSale</text><line style="stroke:#181818;stroke-width:0.5;" x1="1194.3" x2="1348.6394" y1="196.9605" y2="196.9605"/><g data-visibility-modifier="IE_MANDATORY"><ellipse cx="1204.3" cy="210.1158" fill="#000000" rx="3" ry="3" style="stroke:#000000;stroke-width:1;"/></g><text fill="#000000" font-family="'Be Vietnam Pro'" font-size="13" lengthAdjust="spacing" textLength="45.3477" x="1212.3" y="213.5289">id &#171;PK&#187;</text><line style="stroke:#181818;stroke-width:1;" x1="1194.3" x2="1348.6394" y1="220.2711" y2="220.2711"/><text fill="#000000" font-family="'Be Vietnam Pro'" font-size="13" lengthAdjust="spacing" textLength="144.3394" x="1199.3" y="236.8395">name, startsAt, endsAt</text></g><!--class FSI--><g class="entity" data-qualified-name="FSI" data-source-line="89" id="ent0014"><rect fill="#F1F1F1" height="102.5527" rx="2.5" ry="2.5" style="stroke:#181818;stroke-width:0.5;" width="112.7119" x="1215.11" y="318.89"/><text fill="#000000" font-family="'Be Vietnam Pro'" font-size="13" lengthAdjust="spacing" textLength="85.7695" x="1228.5812" y="336.4584">FlashSaleItem</text><line style="stroke:#181818;stroke-width:0.5;" x1="1216.11" x2="1326.8219" y1="344.2005" y2="344.2005"/><g data-visibility-modifier="IE_MANDATORY"><ellipse cx="1226.11" cy="357.3558" fill="#000000" rx="3" ry="3" style="stroke:#000000;stroke-width:1;"/></g><text fill="#000000" font-family="'Be Vietnam Pro'" font-size="13" lengthAdjust="spacing" textLength="45.3477" x="1234.11" y="360.7689">id &#171;PK&#187;</text><line style="stroke:#181818;stroke-width:1;" x1="1216.11" x2="1326.8219" y1="367.5111" y2="367.5111"/><text fill="#000000" font-family="'Be Vietnam Pro'" font-size="13" lengthAdjust="spacing" textLength="100.7119" x="1221.11" y="384.0795">flashSaleId &#171;FK&#187;</text><text fill="#000000" font-family="'Be Vietnam Pro'" font-size="13" lengthAdjust="spacing" textLength="94.377" x="1221.11" y="399.39">productId &#171;FK&#187;</text><text fill="#000000" font-family="'Be Vietnam Pro'" font-size="13" lengthAdjust="spacing" textLength="54.9707" x="1221.11" y="414.7005">salePrice</text></g><!--class Return--><g class="entity" data-qualified-name="Return" data-source-line="96" id="ent0015"><rect fill="#F1F1F1" height="102.5527" rx="2.5" ry="2.5" style="stroke:#181818;stroke-width:0.5;" width="98.2251" x="72.36" y="481.45"/><text fill="#000000" font-family="'Be Vietnam Pro'" font-size="13" lengthAdjust="spacing" textLength="92.2251" x="75.36" y="499.0184">ReturnRequest</text><line style="stroke:#181818;stroke-width:0.5;" x1="73.36" x2="169.5851" y1="506.7605" y2="506.7605"/><g data-visibility-modifier="IE_MANDATORY"><ellipse cx="83.36" cy="519.9158" fill="#000000" rx="3" ry="3" style="stroke:#000000;stroke-width:1;"/></g><text fill="#000000" font-family="'Be Vietnam Pro'" font-size="13" lengthAdjust="spacing" textLength="45.3477" x="91.36" y="523.3289">id &#171;PK&#187;</text><line style="stroke:#181818;stroke-width:1;" x1="73.36" x2="169.5851" y1="530.0711" y2="530.0711"/><text fill="#000000" font-family="'Be Vietnam Pro'" font-size="13" lengthAdjust="spacing" textLength="79.168" x="78.36" y="546.6395">orderId &#171;FK&#187;</text><text fill="#000000" font-family="'Be Vietnam Pro'" font-size="13" lengthAdjust="spacing" textLength="72.376" x="78.36" y="561.95">userId &#171;FK&#187;</text><text fill="#000000" font-family="'Be Vietnam Pro'" font-size="13" lengthAdjust="spacing" textLength="38.2256" x="78.36" y="577.2605">status</text></g><!--class InvLog--><g class="entity" data-qualified-name="InvLog" data-source-line="103" id="ent0016"><rect fill="#F1F1F1" height="87.2422" rx="2.5" ry="2.5" style="stroke:#181818;stroke-width:0.5;" width="100.2134" x="1055.36" y="489.1"/><text fill="#000000" font-family="'Be Vietnam Pro'" font-size="13" lengthAdjust="spacing" textLength="81.834" x="1064.5497" y="506.6684">InventoryLog</text><line style="stroke:#181818;stroke-width:0.5;" x1="1056.36" x2="1154.5734" y1="514.4105" y2="514.4105"/><g data-visibility-modifier="IE_MANDATORY"><ellipse cx="1066.36" cy="527.5658" fill="#000000" rx="3" ry="3" style="stroke:#000000;stroke-width:1;"/></g><text fill="#000000" font-family="'Be Vietnam Pro'" font-size="13" lengthAdjust="spacing" textLength="45.3477" x="1074.36" y="530.9789">id &#171;PK&#187;</text><line style="stroke:#181818;stroke-width:1;" x1="1056.36" x2="1154.5734" y1="537.7211" y2="537.7211"/><text fill="#000000" font-family="'Be Vietnam Pro'" font-size="13" lengthAdjust="spacing" textLength="88.2134" x="1061.36" y="554.2895">variantId &#171;FK&#187;</text><text fill="#000000" font-family="'Be Vietnam Pro'" font-size="13" lengthAdjust="spacing" textLength="81.8721" x="1061.36" y="569.6">delta, reason</text></g><!--link User to Address--><g class="link" data-entity-1="ent0001" data-entity-2="ent0002" data-link-type="crowfoot" data-source-line="110" id="lnk17"><path codeLine="110" d="M419.85,222 C356.93,222 281.47,222 281.47,222 C281.47,222 281.47,264.44 281.47,308.12" fill="none" id="User-Address" style="stroke:#181818;stroke-width:1;"/><line style="stroke:#181818;stroke-width:1;" x1="423.85" x2="423.85" y1="218" y2="226"/><line style="stroke:#181818;stroke-width:1;" x1="420.85" x2="420.85" y1="218" y2="226"/><line style="stroke:#181818;stroke-width:1;" x1="419.85" x2="427.85" y1="222" y2="222"/><line style="stroke:#181818;stroke-width:1;" x1="281.47" x2="287.47" y1="318.12" y2="326.12"/><line style="stroke:#181818;stroke-width:1;" x1="281.47" x2="275.47" y1="318.12" y2="326.12"/><line style="stroke:#181818;stroke-width:1;" x1="281.47" x2="281.47" y1="318.12" y2="326.12"/><ellipse cx="281.47" cy="312.12" fill="none" rx="4" ry="4" style="stroke:#181818;stroke-width:1;"/></g><!--link User to Order--><g class="link" data-entity-1="ent0001" data-entity-2="ent0007" data-link-type="crowfoot" data-source-line="111" id="lnk18"><path codeLine="111" d="M496.47,259.61 C496.47,280.29 496.47,279.09 496.47,300.65" fill="none" id="User-Order" style="stroke:#181818;stroke-width:1;"/><line style="stroke:#181818;stroke-width:1;" x1="492.47" x2="500.47" y1="255.61" y2="255.61"/><line style="stroke:#181818;stroke-width:1;" x1="492.47" x2="500.47" y1="258.61" y2="258.61"/><line style="stroke:#181818;stroke-width:1;" x1="496.47" x2="496.47" y1="259.61" y2="251.61"/><line style="stroke:#181818;stroke-width:1;" x1="496.47" x2="502.47" y1="310.65" y2="318.65"/><line style="stroke:#181818;stroke-width:1;" x1="496.47" x2="490.47" y1="310.65" y2="318.65"/><line style="stroke:#181818;stroke-width:1;" x1="496.47" x2="496.47" y1="310.65" y2="318.65"/><ellipse cx="496.47" cy="304.65" fill="none" rx="4" ry="4" style="stroke:#181818;stroke-width:1;"/></g><!--link User to Review--><g class="link" data-entity-1="ent0001" data-entity-2="ent0009" data-link-type="crowfoot" data-source-line="112" id="lnk19"><path codeLine="112" d="M573.07,222 C618.01,222 660.47,222 660.47,222 C660.47,222 660.47,257.97 660.47,300.76" fill="none" id="User-Review" style="stroke:#181818;stroke-width:1;"/><line style="stroke:#181818;stroke-width:1;" x1="569.07" x2="569.07" y1="226" y2="218"/><line style="stroke:#181818;stroke-width:1;" x1="572.07" x2="572.07" y1="226" y2="218"/><line style="stroke:#181818;stroke-width:1;" x1="573.07" x2="565.07" y1="222" y2="222"/><line style="stroke:#181818;stroke-width:1;" x1="660.47" x2="666.47" y1="310.76" y2="318.76"/><line style="stroke:#181818;stroke-width:1;" x1="660.47" x2="654.47" y1="310.76" y2="318.76"/><line style="stroke:#181818;stroke-width:1;" x1="660.47" x2="660.47" y1="310.76" y2="318.76"/><ellipse cx="660.47" cy="304.76" fill="none" rx="4" ry="4" style="stroke:#181818;stroke-width:1;"/></g><!--link User to Wishlist--><g class="link" data-entity-1="ent0001" data-entity-2="ent0010" data-link-type="crowfoot" data-source-line="113" id="lnk20"><path codeLine="113" d="M573.3,193 C663.26,193 801.47,193 801.47,193 C801.47,193 801.47,255.91 801.47,308.38" fill="none" id="User-Wishlist" style="stroke:#181818;stroke-width:1;"/><line style="stroke:#181818;stroke-width:1;" x1="569.3" x2="569.3" y1="197" y2="189"/><line style="stroke:#181818;stroke-width:1;" x1="572.3" x2="572.3" y1="197" y2="189"/><line style="stroke:#181818;stroke-width:1;" x1="573.3" x2="565.3" y1="193" y2="193"/><line style="stroke:#181818;stroke-width:1;" x1="801.47" x2="807.47" y1="318.38" y2="326.38"/><line style="stroke:#181818;stroke-width:1;" x1="801.47" x2="795.47" y1="318.38" y2="326.38"/><line style="stroke:#181818;stroke-width:1;" x1="801.47" x2="801.47" y1="318.38" y2="326.38"/><ellipse cx="801.47" cy="312.38" fill="none" rx="4" ry="4" style="stroke:#181818;stroke-width:1;"/></g><!--link User to Return--><g class="link" data-entity-1="ent0001" data-entity-2="ent0015" data-link-type="crowfoot" data-source-line="114" id="lnk21"><path codeLine="114" d="M419.9,193 C319.29,193 151.49,193 151.49,193 C151.49,193 151.49,368.09 151.49,463.13" fill="none" id="User-Return" style="stroke:#181818;stroke-width:1;"/><line style="stroke:#181818;stroke-width:1;" x1="423.9" x2="423.9" y1="189" y2="197"/><line style="stroke:#181818;stroke-width:1;" x1="420.9" x2="420.9" y1="189" y2="197"/><line style="stroke:#181818;stroke-width:1;" x1="419.9" x2="427.9" y1="193" y2="193"/><line style="stroke:#181818;stroke-width:1;" x1="151.49" x2="157.49" y1="473.13" y2="481.13"/><line style="stroke:#181818;stroke-width:1;" x1="151.49" x2="145.49" y1="473.13" y2="481.13"/><line style="stroke:#181818;stroke-width:1;" x1="151.49" x2="151.49" y1="473.13" y2="481.13"/><ellipse cx="151.49" cy="467.13" fill="none" rx="4" ry="4" style="stroke:#181818;stroke-width:1;"/></g><!--link Category to Product--><g class="link" data-entity-1="ent0003" data-entity-2="ent0004" data-link-type="crowfoot" data-source-line="115" id="lnk22"><path codeLine="115" d="M966.21,104.77 C966.21,122.66 966.21,118.52 966.21,138.08" fill="none" id="Category-Product" style="stroke:#181818;stroke-width:1;"/><line style="stroke:#181818;stroke-width:1;" x1="962.21" x2="970.21" y1="100.77" y2="100.77"/><line style="stroke:#181818;stroke-width:1;" x1="962.21" x2="970.21" y1="103.77" y2="103.77"/><line style="stroke:#181818;stroke-width:1;" x1="966.21" x2="966.21" y1="104.77" y2="96.77"/><line style="stroke:#181818;stroke-width:1;" x1="966.21" x2="972.21" y1="148.08" y2="156.08"/><line style="stroke:#181818;stroke-width:1;" x1="966.21" x2="960.21" y1="148.08" y2="156.08"/><line style="stroke:#181818;stroke-width:1;" x1="966.21" x2="966.21" y1="148.08" y2="156.08"/><ellipse cx="966.21" cy="142.08" fill="none" rx="4" ry="4" style="stroke:#181818;stroke-width:1;"/></g><!--link Category to Category--><g class="link" data-entity-1="ent0003" data-entity-2="ent0003" data-link-type="crowfoot" data-source-line="116" id="lnk23"><path codeLine="116" d="M942.47,16.11 C942.47,6.13 942.47,6 942.47,6 C942.47,6 867.72,6 867.72,6 C867.72,6 867.72,126 867.72,126 C867.72,126 918.73,126 918.73,126 C918.73,126 918.73,129.82 918.73,114.64" fill="none" id="Category-Category" style="stroke:#181818;stroke-width:1;"/><line style="stroke:#181818;stroke-width:1;" x1="946.47" x2="938.47" y1="20.11" y2="20.11"/><line style="stroke:#181818;stroke-width:1;" x1="946.47" x2="938.47" y1="17.11" y2="17.11"/><line style="stroke:#181818;stroke-width:1;" x1="942.47" x2="942.47" y1="16.11" y2="24.11"/><line style="stroke:#181818;stroke-width:1;" x1="918.73" x2="912.73" y1="104.64" y2="96.64"/><line style="stroke:#181818;stroke-width:1;" x1="918.73" x2="924.73" y1="104.64" y2="96.64"/><line style="stroke:#181818;stroke-width:1;" x1="918.73" x2="918.73" y1="104.64" y2="96.64"/><ellipse cx="918.73" cy="110.64" fill="none" rx="4" ry="4" style="stroke:#181818;stroke-width:1;"/></g><!--link Product to ProductImage--><g class="link" data-entity-1="ent0004" data-entity-2="ent0005" data-link-type="crowfoot" data-source-line="117" id="lnk24"><path codeLine="117" d="M942.47,267.05 C942.47,288.63 942.47,287.47 942.47,308.18" fill="none" id="Product-ProductImage" style="stroke:#181818;stroke-width:1;"/><line style="stroke:#181818;stroke-width:1;" x1="938.47" x2="946.47" y1="263.05" y2="263.05"/><line style="stroke:#181818;stroke-width:1;" x1="938.47" x2="946.47" y1="266.05" y2="266.05"/><line style="stroke:#181818;stroke-width:1;" x1="942.47" x2="942.47" y1="267.05" y2="259.05"/><line style="stroke:#181818;stroke-width:1;" x1="942.47" x2="948.47" y1="318.18" y2="326.18"/><line style="stroke:#181818;stroke-width:1;" x1="942.47" x2="936.47" y1="318.18" y2="326.18"/><line style="stroke:#181818;stroke-width:1;" x1="942.47" x2="942.47" y1="318.18" y2="326.18"/><ellipse cx="942.47" cy="312.18" fill="none" rx="4" ry="4" style="stroke:#181818;stroke-width:1;"/></g><!--link Product to Variant--><g class="link" data-entity-1="ent0004" data-entity-2="ent0006" data-link-type="crowfoot" data-source-line="118" id="lnk25"><path codeLine="118" d="M1004.03,267 C1004.03,314.57 1004.03,370 1004.03,370 C1004.03,370 997.34,370 1012.42,370" fill="none" id="Product-Variant" style="stroke:#181818;stroke-width:1;"/><line style="stroke:#181818;stroke-width:1;" x1="1000.03" x2="1008.03" y1="263" y2="263"/><line style="stroke:#181818;stroke-width:1;" x1="1000.03" x2="1008.03" y1="266" y2="266"/><line style="stroke:#181818;stroke-width:1;" x1="1004.03" x2="1004.03" y1="267" y2="259"/><line style="stroke:#181818;stroke-width:1;" x1="1022.42" x2="1030.42" y1="370" y2="364"/><line style="stroke:#181818;stroke-width:1;" x1="1022.42" x2="1030.42" y1="370" y2="376"/><line style="stroke:#181818;stroke-width:1;" x1="1022.42" x2="1030.42" y1="370" y2="370"/><ellipse cx="1016.42" cy="370" fill="none" rx="4" ry="4" style="stroke:#181818;stroke-width:1;"/></g><!--link Product to Review--><g class="link" data-entity-1="ent0004" data-entity-2="ent0009" data-link-type="crowfoot" data-source-line="119" id="lnk26"><path codeLine="119" d="M872.54,267.34 C872.54,298.43 872.54,324 872.54,324 C872.54,324 794.81,324 731.99,324" fill="none" id="Product-Review" style="stroke:#181818;stroke-width:1;"/><line style="stroke:#181818;stroke-width:1;" x1="868.54" x2="876.54" y1="263.34" y2="263.34"/><line style="stroke:#181818;stroke-width:1;" x1="868.54" x2="876.54" y1="266.34" y2="266.34"/><line style="stroke:#181818;stroke-width:1;" x1="872.54" x2="872.54" y1="267.34" y2="259.34"/><line style="stroke:#181818;stroke-width:1;" x1="721.99" x2="713.99" y1="324" y2="330"/><line style="stroke:#181818;stroke-width:1;" x1="721.99" x2="713.99" y1="324" y2="318"/><line style="stroke:#181818;stroke-width:1;" x1="721.99" x2="713.99" y1="324" y2="324"/><ellipse cx="727.99" cy="324" fill="none" rx="4" ry="4" style="stroke:#181818;stroke-width:1;"/></g><!--link Product to Wishlist--><g class="link" data-entity-1="ent0004" data-entity-2="ent0010" data-link-type="crowfoot" data-source-line="120" id="lnk27"><path codeLine="120" d="M880.91,267 C880.91,314.57 880.91,370 880.91,370 C880.91,370 887.27,370 872.9,370" fill="none" id="Product-Wishlist" style="stroke:#181818;stroke-width:1;"/><line style="stroke:#181818;stroke-width:1;" x1="876.91" x2="884.91" y1="263" y2="263"/><line style="stroke:#181818;stroke-width:1;" x1="876.91" x2="884.91" y1="266" y2="266"/><line style="stroke:#181818;stroke-width:1;" x1="880.91" x2="880.91" y1="267" y2="259"/><line style="stroke:#181818;stroke-width:1;" x1="862.9" x2="854.9" y1="370" y2="376"/><line style="stroke:#181818;stroke-width:1;" x1="862.9" x2="854.9" y1="370" y2="364"/><line style="stroke:#181818;stroke-width:1;" x1="862.9" x2="854.9" y1="370" y2="370"/><ellipse cx="868.9" cy="370" fill="none" rx="4" ry="4" style="stroke:#181818;stroke-width:1;"/></g><!--link Product to FSI--><g class="link" data-entity-1="ent0004" data-entity-2="ent0014" data-link-type="crowfoot" data-source-line="121" id="lnk28"><path codeLine="121" d="M1012.4,267.33 C1012.4,297.24 1012.4,321 1012.4,321 C1012.4,321 1120.35,321 1196.62,321" fill="none" id="Product-FSI" style="stroke:#181818;stroke-width:1;"/><line style="stroke:#181818;stroke-width:1;" x1="1008.4" x2="1016.4" y1="263.33" y2="263.33"/><line style="stroke:#181818;stroke-width:1;" x1="1008.4" x2="1016.4" y1="266.33" y2="266.33"/><line style="stroke:#181818;stroke-width:1;" x1="1012.4" x2="1012.4" y1="267.33" y2="259.33"/><line style="stroke:#181818;stroke-width:1;" x1="1206.62" x2="1214.62" y1="321" y2="315"/><line style="stroke:#181818;stroke-width:1;" x1="1206.62" x2="1214.62" y1="321" y2="327"/><line style="stroke:#181818;stroke-width:1;" x1="1206.62" x2="1214.62" y1="321" y2="321"/><ellipse cx="1200.62" cy="321" fill="none" rx="4" ry="4" style="stroke:#181818;stroke-width:1;"/></g><!--link Variant to OrderItem--><g class="link" data-entity-1="ent0006" data-entity-2="ent0008" data-link-type="crowfoot" data-source-line="122" id="lnk29"><path codeLine="122" d="M1043.04,422.24 C1043.04,454.62 1043.04,485 1043.04,485 C1043.04,485 809.68,485 688.42,485" fill="none" id="Variant-OrderItem" style="stroke:#181818;stroke-width:1;"/><line style="stroke:#181818;stroke-width:1;" x1="1039.04" x2="1047.04" y1="418.24" y2="418.24"/><line style="stroke:#181818;stroke-width:1;" x1="1039.04" x2="1047.04" y1="421.24" y2="421.24"/><line style="stroke:#181818;stroke-width:1;" x1="1043.04" x2="1043.04" y1="422.24" y2="414.24"/><line style="stroke:#181818;stroke-width:1;" x1="678.42" x2="670.42" y1="485" y2="491"/><line style="stroke:#181818;stroke-width:1;" x1="678.42" x2="670.42" y1="485" y2="479"/><line style="stroke:#181818;stroke-width:1;" x1="678.42" x2="670.42" y1="485" y2="485"/><ellipse cx="684.42" cy="485" fill="none" rx="4" ry="4" style="stroke:#181818;stroke-width:1;"/></g><!--link Variant to InvLog--><g class="link" data-entity-1="ent0006" data-entity-2="ent0016" data-link-type="crowfoot" data-source-line="123" id="lnk30"><path codeLine="123" d="M1105.47,422.16 C1105.47,445.29 1105.47,447.56 1105.47,470.7" fill="none" id="Variant-InvLog" style="stroke:#181818;stroke-width:1;"/><line style="stroke:#181818;stroke-width:1;" x1="1101.47" x2="1109.47" y1="418.16" y2="418.16"/><line style="stroke:#181818;stroke-width:1;" x1="1101.47" x2="1109.47" y1="421.16" y2="421.16"/><line style="stroke:#181818;stroke-width:1;" x1="1105.47" x2="1105.47" y1="422.16" y2="414.16"/><line style="stroke:#181818;stroke-width:1;" x1="1105.47" x2="1111.47" y1="480.7" y2="488.7"/><line style="stroke:#181818;stroke-width:1;" x1="1105.47" x2="1099.47" y1="480.7" y2="488.7"/><line style="stroke:#181818;stroke-width:1;" x1="1105.47" x2="1105.47" y1="480.7" y2="488.7"/><ellipse cx="1105.47" cy="474.7" fill="none" rx="4" ry="4" style="stroke:#181818;stroke-width:1;"/></g><!--link Order to OrderItem--><g class="link" data-entity-1="ent0007" data-entity-2="ent0008" data-link-type="crowfoot" data-source-line="124" id="lnk31"><path codeLine="124" d="M557.46,429.6 C557.46,448.58 557.46,444.07 557.46,463.07" fill="none" id="Order-OrderItem" style="stroke:#181818;stroke-width:1;"/><line style="stroke:#181818;stroke-width:1;" x1="553.46" x2="561.46" y1="425.6" y2="425.6"/><line style="stroke:#181818;stroke-width:1;" x1="553.46" x2="561.46" y1="428.6" y2="428.6"/><line style="stroke:#181818;stroke-width:1;" x1="557.46" x2="557.46" y1="429.6" y2="421.6"/><line style="stroke:#181818;stroke-width:1;" x1="557.46" x2="563.46" y1="473.07" y2="481.07"/><line style="stroke:#181818;stroke-width:1;" x1="557.46" x2="551.46" y1="473.07" y2="481.07"/><line style="stroke:#181818;stroke-width:1;" x1="557.46" x2="557.46" y1="473.07" y2="481.07"/><ellipse cx="557.46" cy="467.07" fill="none" rx="4" ry="4" style="stroke:#181818;stroke-width:1;"/></g><!--link Order to Return--><g class="link" data-entity-1="ent0007" data-entity-2="ent0015" data-link-type="association" data-source-line="125" id="lnk32"><path codeLine="125" d="M412.77,418 C313.84,418 161.04,418 161.04,418 C161.04,418 161.04,435.62 161.04,466.07" fill="none" id="Order-Return" style="stroke:#181818;stroke-width:1;"/><line style="stroke:#181818;stroke-width:1;" x1="416.77" x2="416.77" y1="414" y2="422"/><line style="stroke:#181818;stroke-width:1;" x1="413.77" x2="413.77" y1="414" y2="422"/><line style="stroke:#181818;stroke-width:1;" x1="412.77" x2="420.77" y1="418" y2="418"/><line style="stroke:#181818;stroke-width:1;" x1="161.04" x2="161.04" y1="470.07" y2="481.07"/><ellipse cx="161.04" cy="470.07" fill="none" rx="4" ry="4" style="stroke:#181818;stroke-width:1;"/><line style="stroke:#181818;stroke-width:1;" x1="165.04" x2="157.04" y1="477.07" y2="477.07"/></g><!--link Order to VR--><g class="link" data-entity-1="ent0007" data-entity-2="ent0012" data-link-type="association" data-source-line="126" id="lnk33"><path codeLine="126" d="M436.68,429.6 C436.68,448.58 436.68,447.07 436.68,466.07" fill="none" id="Order-VR" style="stroke:#181818;stroke-width:1;"/><line style="stroke:#181818;stroke-width:1;" x1="432.68" x2="440.68" y1="425.6" y2="425.6"/><line style="stroke:#181818;stroke-width:1;" x1="432.68" x2="440.68" y1="428.6" y2="428.6"/><line style="stroke:#181818;stroke-width:1;" x1="436.68" x2="436.68" y1="429.6" y2="421.6"/><line style="stroke:#181818;stroke-width:1;" x1="436.68" x2="436.68" y1="470.07" y2="481.07"/><ellipse cx="436.68" cy="470.07" fill="none" rx="4" ry="4" style="stroke:#181818;stroke-width:1;"/><line style="stroke:#181818;stroke-width:1;" x1="440.68" x2="432.68" y1="477.07" y2="477.07"/></g><!--link Voucher to VR--><g class="link" data-entity-1="ent0011" data-entity-2="ent0012" data-link-type="crowfoot" data-source-line="127" id="lnk34"><path codeLine="127" d="M107.15,421.9 C107.15,440.94 107.15,451 107.15,451 C107.15,451 352.19,451 352.19,451 C352.19,451 352.19,446.75 352.19,462.97" fill="none" id="Voucher-VR" style="stroke:#181818;stroke-width:1;"/><line style="stroke:#181818;stroke-width:1;" x1="103.15" x2="111.15" y1="417.9" y2="417.9"/><line style="stroke:#181818;stroke-width:1;" x1="103.15" x2="111.15" y1="420.9" y2="420.9"/><line style="stroke:#181818;stroke-width:1;" x1="107.15" x2="107.15" y1="421.9" y2="413.9"/><line style="stroke:#181818;stroke-width:1;" x1="352.19" x2="358.19" y1="472.97" y2="480.97"/><line style="stroke:#181818;stroke-width:1;" x1="352.19" x2="346.19" y1="472.97" y2="480.97"/><line style="stroke:#181818;stroke-width:1;" x1="352.19" x2="352.19" y1="472.97" y2="480.97"/><ellipse cx="352.19" cy="466.97" fill="none" rx="4" ry="4" style="stroke:#181818;stroke-width:1;"/></g><!--link FlashSale to FSI--><g class="link" data-entity-1="ent0013" data-entity-2="ent0014" data-link-type="crowfoot" data-source-line="128" id="lnk35"><path codeLine="128" d="M1271.47,251.69 C1271.47,273.67 1271.47,276.12 1271.47,300.47" fill="none" id="FlashSale-FSI" style="stroke:#181818;stroke-width:1;"/><line style="stroke:#181818;stroke-width:1;" x1="1267.47" x2="1275.47" y1="247.69" y2="247.69"/><line style="stroke:#181818;stroke-width:1;" x1="1267.47" x2="1275.47" y1="250.69" y2="250.69"/><line style="stroke:#181818;stroke-width:1;" x1="1271.47" x2="1271.47" y1="251.69" y2="243.69"/><line style="stroke:#181818;stroke-width:1;" x1="1271.47" x2="1277.47" y1="310.47" y2="318.47"/><line style="stroke:#181818;stroke-width:1;" x1="1271.47" x2="1265.47" y1="310.47" y2="318.47"/><line style="stroke:#181818;stroke-width:1;" x1="1271.47" x2="1271.47" y1="310.47" y2="318.47"/><ellipse cx="1271.47" cy="304.47" fill="none" rx="4" ry="4" style="stroke:#181818;stroke-width:1;"/></g><?plantuml-src bLN9Rjim4BthAmWV2_jGz5O40L831enq2PpMFK_4YKLO8XrowC1D-kyTaLfeAKgJYpLy7Bmt6yTkh_G1B5IYCjhaXJKL2h8UCzVTk0AaULHw9-wXTEdD7UJxdJLUowKfZHMFXQBqNk8z-99MHjDtOEBP5nHRXQJvxiQQsSkkj-eFYe-VaijIQQJJ0OMnL9YiK195hcnUOeQQ59t4x9T3EnFWH6s8fqo83q99yLbupv-BYvlhoqi65ml-mGfKEHSS1Sx5eJ0Q6RI6sVvsV5TIMdGkK3PsptfEvrbnNOEh25hCrK5XpBaHc0k898d44WXtnfw2HdkO4ed1kjBlc14iSwnbmiNLb3wdGDNOKqnvevI6dBBVWSCRg_9G523k-zMHuMWkkTaqrbrNiCDKF01J4HmQdoG0RxaXoh5k1VOq5jY2LQ1ZVetz3dQtzvmTZzLSvFMWye5ClazaVbZPp4-mtjfgKpilZQoBHq3UrVfmgfZs6_AeohaWGr0EbTQ4LQzMdwOKWq8gUOpPfz23Xq0-5ruhYhth1JTuLFWOrABvdhOCHpiCGPTiB_9RkQ9KZhh4Mk2jbHo9zznRu_EYwKvZJyvsQ8LKBg_dz2Ul30RRunPAZsFU3Kgi3gICZWgRAV9Zz7-jFeDkzLgh4bnn2sLy9DtfFw-Tm9Axehb0BVdx4bzNyDNjUehjldD-hU3yJDXbF3tahTxWWqT7pH3Lo9ldTLYYqUYizP5DNaXVpIu8CC3cP1V6yo-n9E0DXU2CPkOi_0SyFoyMvgbTtcTOU7LdI7mPPr0xmGE_ElciszODt6of4TwUitOdd_k7BJcyQzRR46uY7A1Ta0ESfo5hzsIQT3qkmujOxomklf5p0Z-twPzXsqtMliesWqtMJtWVq3y0?></g></svg>