<svg xmlns="http://www.w3.org/2000/svg" xmlns:xlink="http://www.w3.org/1999/xlink" contentStyleType="text/css" data-diagram-type="DESCRIPTION" height="942px" preserveAspectRatio="none" style="width:692px;height:942px;background:#FFFFFF;" version="1.1" viewBox="0 0 692 942" width="692px" zoomAndPan="magnify"><?plantuml 1.2026.6?><defs/><g><!--cluster Ch?c n?ng Qu?n tr?--><g class="cluster" data-qualified-name="Ch.c n.ng Qu.n tr." data-source-line="10" id="ent0002"><rect fill="none" height="827" rx="2.5" ry="2.5" style="stroke:#181818;stroke-width:1;" width="543.85" x="134.38" y="7"/><text fill="#000000" font-family="'Be Vietnam Pro'" font-size="13" font-weight="700" lengthAdjust="spacing" textLength="131.3267" x="340.6417" y="21.5684">Ch&#7913;c n&#259;ng Qu&#7843;n tr&#7883;</text></g><!--entity L--><g class="entity" data-qualified-name="Ch.c n.ng Qu.n tr..L" data-source-line="11" id="ent0003"><ellipse cx="254.9687" cy="54.9962" fill="#F1F1F1" rx="51.5787" ry="13.8262" style="stroke:#181818;stroke-width:0.5;"/><text fill="#000000" font-family="'Be Vietnam Pro'" font-size="13" lengthAdjust="spacing" textLength="68.7007" x="220.6184" y="59.1515">&#272;&#259;ng nh&#7853;p</text></g><!--entity M1--><g class="entity" data-qualified-name="Ch.c n.ng Qu.n tr..M1" data-source-line="12" id="ent0004"><ellipse cx="254.9733" cy="126.0007" fill="#F1F1F1" rx="100.9533" ry="22.5907" style="stroke:#181818;stroke-width:0.5;"/><text fill="#000000" font-family="'Be Vietnam Pro'" font-size="13" lengthAdjust="spacing" textLength="180.3306" x="164.8081" y="130.1559">Qu&#7843;n l&#253; danh m&#7909;c s&#7843;n ph&#7849;m</text></g><!--entity M2--><g class="entity" data-qualified-name="Ch.c n.ng Qu.n tr..M2" data-source-line="13" id="ent0005"><ellipse cx="254.9656" cy="273.9971" fill="#F1F1F1" rx="101.9856" ry="22.7971" style="stroke:#181818;stroke-width:0.5;"/><text fill="#000000" font-family="'Be Vietnam Pro'" font-size="13" lengthAdjust="spacing" textLength="182.5713" x="163.68" y="278.1524">Qu&#7843;n l&#253; s&#7843;n ph&#7849;m &amp; bi&#7871;n th&#7875;</text></g><!--entity M3--><g class="entity" data-qualified-name="Ch.c n.ng Qu.n tr..M3" data-source-line="14" id="ent0006"><ellipse cx="571.3951" cy="499.003" fill="#F1F1F1" rx="66.3151" ry="15.663" style="stroke:#181818;stroke-width:0.5;"/><text fill="#000000" font-family="'Be Vietnam Pro'" font-size="13" lengthAdjust="spacing" textLength="100.8706" x="520.9598" y="503.1583">Qu&#7843;n l&#253; t&#7891;n kho</text></g><!--entity M4--><g class="entity" data-qualified-name="Ch.c n.ng Qu.n tr..M4" data-source-line="15" id="ent0007"><ellipse cx="254.97" cy="199.998" fill="#F1F1F1" rx="71.14" ry="16.628" style="stroke:#181818;stroke-width:0.5;"/><text fill="#000000" font-family="'Be Vietnam Pro'" font-size="13" lengthAdjust="spacing" textLength="112.7471" x="198.5964" y="204.1533">Qu&#7843;n l&#253; &#273;&#417;n h&#224;ng</text></g><!--entity M5--><g class="entity" data-qualified-name="Ch.c n.ng Qu.n tr..M5" data-source-line="16" id="ent0008"><ellipse cx="571.4003" cy="165.9953" fill="#F1F1F1" rx="90.8303" ry="22.8553" style="stroke:#181818;stroke-width:0.5;"/><text fill="#000000" font-family="'Be Vietnam Pro'" font-size="13" lengthAdjust="spacing" textLength="135.4526" x="503.6739" y="165.1638">C&#7853;p nh&#7853;t tr&#7841;ng th&#225;i &amp;</text><text fill="#000000" font-family="'Be Vietnam Pro'" font-size="13" lengthAdjust="spacing" textLength="74.5405" x="534.13" y="180.4744">m&#227; v&#7853;n &#273;&#417;n</text></g><!--entity M6--><g class="entity" data-qualified-name="Ch.c n.ng Qu.n tr..M6" data-source-line="17" id="ent0009"><ellipse cx="571.405" cy="240.999" fill="#F1F1F1" rx="73.295" ry="17.059" style="stroke:#181818;stroke-width:0.5;"/><text fill="#000000" font-family="'Be Vietnam Pro'" font-size="13" lengthAdjust="spacing" textLength="117.9204" x="512.4448" y="245.1543">In phi&#7871;u giao h&#224;ng</text></g><!--entity M7--><g class="entity" data-qualified-name="Ch.c n.ng Qu.n tr..M7" data-source-line="18" id="ent0010"><ellipse cx="254.9724" cy="349.0045" fill="#F1F1F1" rx="75.6724" ry="17.5345" style="stroke:#181818;stroke-width:0.5;"/><text fill="#000000" font-family="'Be Vietnam Pro'" font-size="13" lengthAdjust="spacing" textLength="123.5508" x="193.197" y="353.1598">X&#7917; l&#253; &#273;&#7893;i / tr&#7843; h&#224;ng</text></g><!--entity M8--><g class="entity" data-qualified-name="Ch.c n.ng Qu.n tr..M8" data-source-line="19" id="ent0011"><ellipse cx="254.9735" cy="420.0027" fill="#F1F1F1" rx="78.4135" ry="18.0827" style="stroke:#181818;stroke-width:0.5;"/><text fill="#000000" font-family="'Be Vietnam Pro'" font-size="13" lengthAdjust="spacing" textLength="129.9556" x="189.9957" y="424.158">Qu&#7843;n l&#253; m&#227; gi&#7843;m gi&#225;</text></g><!--entity M9--><g class="entity" data-qualified-name="Ch.c n.ng Qu.n tr..M9" data-source-line="20" id="ent0012"><ellipse cx="254.9741" cy="489.9968" fill="#F1F1F1" rx="70.6341" ry="16.5268" style="stroke:#181818;stroke-width:0.5;"/><text fill="#000000" font-family="'Be Vietnam Pro'" font-size="13" lengthAdjust="spacing" textLength="111.522" x="199.2131" y="494.1521">Qu&#7843;n l&#253; flash sale</text></g><!--entity M10--><g class="entity" data-qualified-name="Ch.c n.ng Qu.n tr..M10" data-source-line="21" id="ent0013"><ellipse cx="254.9698" cy="563.004" fill="#F1F1F1" rx="96.1698" ry="21.634" style="stroke:#181818;stroke-width:0.5;"/><text fill="#000000" font-family="'Be Vietnam Pro'" font-size="13" lengthAdjust="spacing" textLength="169.8887" x="170.0255" y="567.1592">Qu&#7843;n l&#253; banner &amp; n&#7897;i dung</text></g><!--entity M11--><g class="entity" data-qualified-name="Ch.c n.ng Qu.n tr..M11" data-source-line="22" id="ent0014"><ellipse cx="254.9664" cy="642.9993" fill="#F1F1F1" rx="104.5964" ry="23.3193" style="stroke:#181818;stroke-width:0.5;"/><text fill="#000000" font-family="'Be Vietnam Pro'" font-size="13" lengthAdjust="spacing" textLength="188.2207" x="160.8561" y="647.1546">Qu&#7843;n l&#253; t&#224;i kho&#7843;n kh&#225;ch h&#224;ng</text></g><!--entity M12--><g class="entity" data-qualified-name="Ch.c n.ng Qu.n tr..M12" data-source-line="23" id="ent0015"><ellipse cx="254.9723" cy="718.9965" fill="#F1F1F1" rx="78.2823" ry="18.0565" style="stroke:#181818;stroke-width:0.5;"/><text fill="#000000" font-family="'Be Vietnam Pro'" font-size="13" lengthAdjust="spacing" textLength="129.6509" x="190.1468" y="723.1517">Ki&#7875;m duy&#7879;t &#273;&#225;nh gi&#225;</text></g><!--entity M13--><g class="entity" data-qualified-name="Ch.c n.ng Qu.n tr..M13" data-source-line="24" id="ent0016"><ellipse cx="254.9723" cy="794.9985" fill="#F1F1F1" rx="103.3923" ry="23.0785" style="stroke:#181818;stroke-width:0.5;"/><text fill="#000000" font-family="'Be Vietnam Pro'" font-size="13" lengthAdjust="spacing" textLength="185.6182" x="162.1632" y="799.1537">Th&#7889;ng k&#234;, b&#225;o c&#225;o doanh thu</text></g><!--entity M14--><g class="entity" data-qualified-name="Ch.c n.ng Qu.n tr..M14" data-source-line="25" id="ent0017"><ellipse cx="571.4008" cy="783.0022" fill="#F1F1F1" rx="73.5108" ry="17.1022" style="stroke:#181818;stroke-width:0.5;"/><text fill="#000000" font-family="'Be Vietnam Pro'" font-size="13" lengthAdjust="spacing" textLength="118.4346" x="512.1835" y="787.1574">Xu&#7845;t b&#225;o c&#225;o Excel</text></g><!--entity QTV--><g class="entity" data-qualified-name="QTV" data-source-line="8" id="ent0001"><ellipse cx="46.6885" cy="433.85" fill="#F1F1F1" rx="8" ry="8" style="stroke:#181818;stroke-width:0.5;"/><path d="M46.6885,441.85 L46.6885,468.85 M33.6885,449.85 L59.6885,449.85 M46.6885,468.85 L33.6885,483.85 M46.6885,468.85 L59.6885,483.85" fill="none" style="stroke:#181818;stroke-width:0.5;"/><text fill="#000000" font-family="'Be Vietnam Pro'" font-size="13" lengthAdjust="spacing" textLength="81.377" x="6" y="497.9184">Qu&#7843;n tr&#7883; vi&#234;n</text></g><!--link QTV to L--><g class="link" data-entity-1="ent0001" data-entity-2="ent0003" data-link-type="dependency" data-source-line="28" id="lnk18"><path d="M50.55,424.96 C57.79,339.16 79.64,134.29 126.38,86 C146.12,65.61 171.8564,58.2334 198.2064,55.5134" fill="none" id="QTV-to-L" style="stroke:#181818;stroke-width:1;"/><polygon fill="#181818" points="203.18,55,193.8168,51.9453,198.2064,55.5134,194.6383,59.903,203.18,55" style="stroke:#181818;stroke-width:1;stroke-linejoin:miter;stroke-miterlimit:10;"/></g><!--link QTV to M1--><g class="link" data-entity-1="ent0001" data-entity-2="ent0004" data-link-type="dependency" data-source-line="29" id="lnk19"><path d="M46.74,424.87 C47.31,362.34 57.72,237.81 126.38,166 C138.41,153.42 149.6349,146.4718 166.1549,140.5318" fill="none" id="QTV-to-M1" style="stroke:#181818;stroke-width:1;"/><polygon fill="#181818" points="170.86,138.84,161.0374,138.1211,166.1549,140.5318,163.7443,145.6493,170.86,138.84" style="stroke:#181818;stroke-width:1;stroke-linejoin:miter;stroke-miterlimit:10;"/></g><!--link QTV to M2--><g class="link" data-entity-1="ent0001" data-entity-2="ent0005" data-link-type="dependency" data-source-line="30" id="lnk20"><path d="M58.61,424.95 C70.17,391.21 91.64,342.93 126.38,314 C140.2,302.49 152.6166,295.8908 169.8066,290.0408" fill="none" id="QTV-to-M2" style="stroke:#181818;stroke-width:1;"/><polygon fill="#181818" points="174.54,288.43,164.7312,287.5428,169.8066,290.0408,167.3085,295.1163,174.54,288.43" style="stroke:#181818;stroke-width:1;stroke-linejoin:miter;stroke-miterlimit:10;"/></g><!--link QTV to M3--><g class="link" data-entity-1="ent0001" data-entity-2="ent0006" data-link-type="dependency" data-source-line="31" id="lnk21"><path d="M49.85,501.13 C55.62,587.55 74.65,794.05 126.38,836 C239.05,927.39 348.73,901.32 450.57,798 C472.01,776.25 542.4928,578.5274 563.1628,519.6874" fill="none" id="QTV-to-M3" style="stroke:#181818;stroke-width:1;"/><polygon fill="#181818" points="564.82,514.97,558.0632,522.1356,563.1628,519.6874,565.611,524.787,564.82,514.97" style="stroke:#181818;stroke-width:1;stroke-linejoin:miter;stroke-miterlimit:10;"/></g><!--link QTV to M4--><g class="link" data-entity-1="ent0001" data-entity-2="ent0007" data-link-type="dependency" data-source-line="32" id="lnk22"><path d="M50.04,425.1 C55.26,374.28 72.09,284.59 126.38,234 C142.81,218.69 160.4769,211.1948 182.0569,206.4448" fill="none" id="QTV-to-M4" style="stroke:#181818;stroke-width:1;"/><polygon fill="#181818" points="186.94,205.37,177.2905,203.3982,182.0569,206.4448,179.0103,211.2112,186.94,205.37" style="stroke:#181818;stroke-width:1;stroke-linejoin:miter;stroke-miterlimit:10;"/></g><!--link QTV to M7--><g class="link" data-entity-1="ent0001" data-entity-2="ent0010" data-link-type="dependency" data-source-line="33" id="lnk23"><path d="M78.07,424.87 C91.49,410.23 108.31,394.53 126.38,384 C146.42,372.33 165.6513,365.5902 187.4713,360.2902" fill="none" id="QTV-to-M7" style="stroke:#181818;stroke-width:1;"/><polygon fill="#181818" points="192.33,359.11,182.6402,357.3473,187.4713,360.2902,184.5284,365.1213,192.33,359.11" style="stroke:#181818;stroke-width:1;stroke-linejoin:miter;stroke-miterlimit:10;"/></g><!--link QTV to M8--><g class="link" data-entity-1="ent0001" data-entity-2="ent0011" data-link-type="dependency" data-source-line="34" id="lnk24"><path d="M87.46,454.71 C118.14,448.32 156.1251,440.3998 190.6851,433.1998" fill="none" id="QTV-to-M8" style="stroke:#181818;stroke-width:1;"/><polygon fill="#181818" points="195.58,432.18,185.9534,430.0997,190.6851,433.1998,187.585,437.9315,195.58,432.18" style="stroke:#181818;stroke-width:1;stroke-linejoin:miter;stroke-miterlimit:10;"/></g><!--link QTV to M9--><g class="link" data-entity-1="ent0001" data-entity-2="ent0012" data-link-type="dependency" data-source-line="35" id="lnk25"><path d="M87.46,468.21 C117.2,472.1 153.4521,476.8524 187.4421,481.2924" fill="none" id="QTV-to-M9" style="stroke:#181818;stroke-width:1;"/><polygon fill="#181818" points="192.4,481.94,183.9939,476.808,187.4421,481.2924,182.9577,484.7406,192.4,481.94" style="stroke:#181818;stroke-width:1;stroke-linejoin:miter;stroke-miterlimit:10;"/></g><!--link QTV to M10--><g class="link" data-entity-1="ent0001" data-entity-2="ent0013" data-link-type="dependency" data-source-line="36" id="lnk26"><path d="M87.83,498.61 C99.66,507.83 113.02,517.09 126.38,524 C145.09,533.7 161.8373,540.0051 181.8173,545.9451" fill="none" id="QTV-to-M10" style="stroke:#181818;stroke-width:1;"/><polygon fill="#181818" points="186.61,547.37,179.1231,540.9711,181.8173,545.9451,176.8433,548.6394,186.61,547.37" style="stroke:#181818;stroke-width:1;stroke-linejoin:miter;stroke-miterlimit:10;"/></g><!--link QTV to M11--><g class="link" data-entity-1="ent0001" data-entity-2="ent0014" data-link-type="dependency" data-source-line="37" id="lnk27"><path d="M60.28,500.94 C72.51,532.25 94.01,575.66 126.38,602 C140.45,613.46 153.0638,620.1082 170.3838,626.0882" fill="none" id="QTV-to-M11" style="stroke:#181818;stroke-width:1;"/><polygon fill="#181818" points="175.11,627.72,167.9082,621.0018,170.3838,626.0882,165.2973,628.5637,175.11,627.72" style="stroke:#181818;stroke-width:1;stroke-linejoin:miter;stroke-miterlimit:10;"/></g><!--link QTV to M12--><g class="link" data-entity-1="ent0001" data-entity-2="ent0015" data-link-type="dependency" data-source-line="38" id="lnk28"><path d="M50.65,500.81 C56.55,550.05 74.14,635.51 126.38,684 C141.7,698.23 157.4026,705.5343 177.5326,710.6243" fill="none" id="QTV-to-M12" style="stroke:#181818;stroke-width:1;"/><polygon fill="#181818" points="182.38,711.85,174.6352,705.7658,177.5326,710.6243,172.674,713.5217,182.38,711.85" style="stroke:#181818;stroke-width:1;stroke-linejoin:miter;stroke-miterlimit:10;"/></g><!--link QTV to M13--><g class="link" data-entity-1="ent0001" data-entity-2="ent0016" data-link-type="dependency" data-source-line="39" id="lnk29"><path d="M46.95,501.01 C47.88,562.67 58.83,684.66 126.38,755 C138.11,767.23 148.8389,773.9997 164.8889,779.9197" fill="none" id="QTV-to-M13" style="stroke:#181818;stroke-width:1;"/><polygon fill="#181818" points="169.58,781.65,162.5203,774.7826,164.8889,779.9197,159.7519,782.2883,169.58,781.65" style="stroke:#181818;stroke-width:1;stroke-linejoin:miter;stroke-miterlimit:10;"/></g><!--link M4 to M5--><g class="link" data-entity-1="ent0007" data-entity-2="ent0008" data-link-type="dependency" data-source-line="41" id="lnk30"><path d="M320.36,193.04 C368.6,187.83 430.039,181.1775 482.289,175.5275" fill="none" id="M4-to-M5" style="stroke:#181818;stroke-width:1;stroke-dasharray:7,7;"/><polygon fill="#181818" points="487.26,174.99,477.8821,171.9807,482.289,175.5275,478.7422,179.9344,487.26,174.99" style="stroke:#181818;stroke-width:1;stroke-linejoin:miter;stroke-miterlimit:10;"/><text fill="#000000" font-family="'Be Vietnam Pro'" font-size="13" lengthAdjust="spacing" textLength="59.3569" x="390.57" y="176.5284">&#171;include&#187;</text></g><!--link M4 to M6--><g class="link" data-entity-1="ent0007" data-entity-2="ent0009" data-link-type="dependency" data-source-line="42" id="lnk31"><path d="M318.09,208.1 C372.59,215.21 446.5519,224.8538 501.5619,232.0238" fill="none" id="M4-to-M6" style="stroke:#181818;stroke-width:1;stroke-dasharray:7,7;"/><polygon fill="#181818" points="506.52,232.67,498.1125,227.5403,501.5619,232.0238,497.0785,235.4732,506.52,232.67" style="stroke:#181818;stroke-width:1;stroke-linejoin:miter;stroke-miterlimit:10;"/><text fill="#000000" font-family="'Be Vietnam Pro'" font-size="13" lengthAdjust="spacing" textLength="57.1924" x="391.57" y="214.6184">&#171;extend&#187;</text></g><!--link M2 to M3--><g class="link" data-entity-1="ent0005" data-entity-2="ent0006" data-link-type="dependency" data-source-line="43" id="lnk32"><path d="M315.21,292.76 C330.18,298.6 345.88,305.72 359.57,314 C442.68,364.31 520.9036,444.8814 552.8836,479.6214" fill="none" id="M2-to-M3" style="stroke:#181818;stroke-width:1;stroke-dasharray:7,7;"/><polygon fill="#181818" points="556.27,483.3,553.1174,473.9693,552.8836,479.6214,547.2316,479.3876,556.27,483.3" style="stroke:#181818;stroke-width:1;stroke-linejoin:miter;stroke-miterlimit:10;"/><text fill="#000000" font-family="'Be Vietnam Pro'" font-size="13" lengthAdjust="spacing" textLength="57.1924" x="391.57" y="331.4384">&#171;extend&#187;</text></g><!--link M13 to M14--><g class="link" data-entity-1="ent0016" data-entity-2="ent0017" data-link-type="dependency" data-source-line="44" id="lnk33"><path d="M357.19,791.14 C403.33,789.38 451.8736,787.5309 493.7536,785.9309" fill="none" id="M13-to-M14" style="stroke:#181818;stroke-width:1;stroke-dasharray:7,7;"/><polygon fill="#181818" points="498.75,785.74,489.6039,782.0865,493.7536,785.9309,489.9093,790.0807,498.75,785.74" style="stroke:#181818;stroke-width:1;stroke-linejoin:miter;stroke-miterlimit:10;"/><text fill="#000000" font-family="'Be Vietnam Pro'" font-size="13" lengthAdjust="spacing" textLength="57.1924" x="391.57" y="784.4984">&#171;extend&#187;</text></g><?plantuml-src TL8zRzH04EtzAqPNf28XlhjyeUWAJY0X228YYbBGxAttlAkpPoDxdGGGLOeKD4I8WYxMAKKYvG-SXIXyud_udp2sB-SzX1lxQUQzcJUp4qyKdhA8XH1gr5n6EXHWeaGuyJ8JI-RfSuK-Z5aGsvaHunC_qWbwGnte2CwbCdRU4sEM1EQbHlEMKU7ESm77IXYatBj8T_vFVQy-2N1xJY361eo6IFdIWASYmOtIw3YC6shMEKoAsHJ9RP5zXJELtsC7M0o7HyUEKt8P-W7r7CeYk-E0yqkQmDPquBC3aCI2ivXuysyL0sKnUpYjAhsnqmjbaFy2Zw64iCXkESHLy9GqTs6bEN1RH3OJrc2aYjblCaBcBcjXjqLeYkmxmaJgcjPheSsl_wG8Chz1loRsRUAm7AgUpPJJpr8QrSWyLR3s0SDy2cUKmhfAhT-ozQzAwwNb17p5jDrds-QT5Dd3mawH_L3mj6esjVaxBGEK9dngCGtfbwSrURU5F0vOB25cWQXvUosy4KCK4UqRY-od0YzvTE5kjgqxlr7bjgl0X3R4fUtUNNdVrugUZuut-LXaLuQ6pbCwZSQ-k_AeH_JOrxJtINx_14Pvge6N7q-NzsHaij2ilF09ERir5ll51HV1WjbtlZWEtJkihm_eMXyHtU0ITXlOQs2_WJiDt6tWdbLiqy9MPTSgJPwTWpviR13UWcUmlw-G1uad1eDbVBkAYmiZq2l3tJhS-oVizkgusrz9_0K0?></g></svg>