<svg xmlns="http://www.w3.org/2000/svg" xmlns:xlink="http://www.w3.org/1999/xlink" contentStyleType="text/css" data-diagram-type="DESCRIPTION" height="1171px" preserveAspectRatio="none" style="width:688px;height:1171px;background:#FFFFFF;" version="1.1" viewBox="0 0 688 1171" width="688px" zoomAndPan="magnify"><?plantuml 1.2026.6?><defs/><g><!--cluster Ch?c n?ng Kh?ch h?ng--><g class="cluster" data-qualified-name="Ch.c n.ng Kh.ch h.ng" data-source-line="10" id="ent0002"><rect fill="none" height="1003" rx="2.5" ry="2.5" style="stroke:#181818;stroke-width:1;" width="547.15" x="126.99" y="7"/><text fill="#000000" font-family="'Be Vietnam Pro'" font-size="13" font-weight="700" lengthAdjust="spacing" textLength="154.6543" x="323.2379" y="21.5684">Ch&#7913;c n&#259;ng Kh&#225;ch h&#224;ng</text></g><!--entity R--><g class="entity" data-qualified-name="Ch.c n.ng Kh.ch h.ng.R" data-source-line="11" id="ent0003"><ellipse cx="248.1223" cy="54.9962" fill="#F1F1F1" rx="39.4823" ry="13.8262" style="stroke:#181818;stroke-width:0.5;"/><text fill="#000000" font-family="'Be Vietnam Pro'" font-size="13" lengthAdjust="spacing" textLength="51.5938" x="222.3254" y="59.1515">&#272;&#259;ng k&#253;</text></g><!--entity L--><g class="entity" data-qualified-name="Ch.c n.ng Kh.ch h.ng.L" data-source-line="12" id="ent0004"><ellipse cx="248.1187" cy="117.9962" fill="#F1F1F1" rx="51.5787" ry="13.8262" style="stroke:#181818;stroke-width:0.5;"/><text fill="#000000" font-family="'Be Vietnam Pro'" font-size="13" lengthAdjust="spacing" textLength="68.7007" x="213.7684" y="122.1515">&#272;&#259;ng nh&#7853;p</text></g><!--entity LO--><g class="entity" data-qualified-name="Ch.c n.ng Kh.ch h.ng.LO" data-source-line="13" id="ent0005"><ellipse cx="248.1239" cy="180.9962" fill="#F1F1F1" rx="49.1639" ry="13.8262" style="stroke:#181818;stroke-width:0.5;"/><text fill="#000000" font-family="'Be Vietnam Pro'" font-size="13" lengthAdjust="spacing" textLength="65.2856" x="215.4811" y="185.1515">&#272;&#259;ng xu&#7845;t</text></g><!--entity P1--><g class="entity" data-qualified-name="Ch.c n.ng Kh.ch h.ng.P1" data-source-line="14" id="ent0006"><ellipse cx="248.1153" cy="250.9971" fill="#F1F1F1" rx="92.3353" ry="20.8671" style="stroke:#181818;stroke-width:0.5;"/><text fill="#000000" font-family="'Be Vietnam Pro'" font-size="13" lengthAdjust="spacing" textLength="161.4399" x="167.3953" y="255.1523">Xem danh s&#225;ch s&#7843;n ph&#7849;m</text></g><!--entity P2--><g class="entity" data-qualified-name="Ch.c n.ng Kh.ch h.ng.P2" data-source-line="15" id="ent0007"><ellipse cx="566.1916" cy="426.9963" fill="#F1F1F1" rx="76.1316" ry="17.6263" style="stroke:#181818;stroke-width:0.5;"/><text fill="#000000" font-family="'Be Vietnam Pro'" font-size="13" lengthAdjust="spacing" textLength="124.6299" x="503.8767" y="431.1516">T&#236;m ki&#7871;m s&#7843;n ph&#7849;m</text></g><!--entity P3--><g class="entity" data-qualified-name="Ch.c n.ng Kh.ch h.ng.P3" data-source-line="16" id="ent0008"><ellipse cx="566.1934" cy="250.9967" fill="#F1F1F1" rx="61.0334" ry="14.6067" style="stroke:#181818;stroke-width:0.5;"/><text fill="#000000" font-family="'Be Vietnam Pro'" font-size="13" lengthAdjust="spacing" textLength="87.2422" x="522.5723" y="255.152">L&#7885;c s&#7843;n ph&#7849;m</text></g><!--entity P4--><g class="entity" data-qualified-name="Ch.c n.ng Kh.ch h.ng.P4" data-source-line="17" id="ent0009"><ellipse cx="248.1234" cy="391.0007" fill="#F1F1F1" rx="83.0534" ry="19.0107" style="stroke:#181818;stroke-width:0.5;"/><text fill="#000000" font-family="'Be Vietnam Pro'" font-size="13" lengthAdjust="spacing" textLength="140.6196" x="177.8136" y="395.156">Xem chi ti&#7871;t s&#7843;n ph&#7849;m</text></g><!--entity C1--><g class="entity" data-qualified-name="Ch.c n.ng Kh.ch h.ng.C1" data-source-line="18" id="ent0010"><ellipse cx="248.116" cy="461.0032" fill="#F1F1F1" rx="69.016" ry="16.2032" style="stroke:#181818;stroke-width:0.5;"/><text fill="#000000" font-family="'Be Vietnam Pro'" font-size="13" lengthAdjust="spacing" textLength="107.5737" x="194.3291" y="465.1585">Qu&#7843;n l&#253; gi&#7887; h&#224;ng</text></g><!--entity W1--><g class="entity" data-qualified-name="Ch.c n.ng Kh.ch h.ng.W1" data-source-line="19" id="ent0011"><ellipse cx="248.1172" cy="535.0034" fill="#F1F1F1" rx="99.9172" ry="22.3834" style="stroke:#181818;stroke-width:0.5;"/><text fill="#000000" font-family="'Be Vietnam Pro'" font-size="13" lengthAdjust="spacing" textLength="178.0771" x="159.0786" y="539.1587">Qu&#7843;n l&#253; danh s&#225;ch y&#234;u th&#237;ch</text></g><!--entity CMP--><g class="entity" data-qualified-name="Ch.c n.ng Kh.ch h.ng.CMP" data-source-line="20" id="ent0012"><ellipse cx="248.1235" cy="609.0007" fill="#F1F1F1" rx="71.9535" ry="16.7907" style="stroke:#181818;stroke-width:0.5;"/><text fill="#000000" font-family="'Be Vietnam Pro'" font-size="13" lengthAdjust="spacing" textLength="114.7085" x="190.7693" y="613.156">So s&#225;nh s&#7843;n ph&#7849;m</text></g><!--entity O1--><g class="entity" data-qualified-name="Ch.c n.ng Kh.ch h.ng.O1" data-source-line="21" id="ent0013"><ellipse cx="566.1894" cy="674.9979" fill="#F1F1F1" rx="61.3394" ry="14.6679" style="stroke:#181818;stroke-width:0.5;"/><text fill="#000000" font-family="'Be Vietnam Pro'" font-size="13" lengthAdjust="spacing" textLength="88.0547" x="522.1621" y="679.1532">T&#7841;o &#273;&#417;n h&#224;ng</text></g><!--entity O2--><g class="entity" data-qualified-name="Ch.c n.ng Kh.ch h.ng.O2" data-source-line="22" id="ent0014"><ellipse cx="566.1939" cy="606.9988" fill="#F1F1F1" rx="80.8439" ry="18.5688" style="stroke:#181818;stroke-width:0.5;"/><text fill="#000000" font-family="'Be Vietnam Pro'" font-size="13" lengthAdjust="spacing" textLength="135.5669" x="498.4105" y="611.1541">&#193;p d&#7909;ng m&#227; gi&#7843;m gi&#225;</text></g><!--entity O3--><g class="entity" data-qualified-name="Ch.c n.ng Kh.ch h.ng.O3" data-source-line="23" id="ent0015"><ellipse cx="248.1164" cy="674.9962" fill="#F1F1F1" rx="43.5264" ry="13.8262" style="stroke:#181818;stroke-width:0.5;"/><text fill="#000000" font-family="'Be Vietnam Pro'" font-size="13" lengthAdjust="spacing" textLength="57.313" x="219.4599" y="679.1515">&#272;&#7863;t h&#224;ng</text></g><!--entity O4--><g class="entity" data-qualified-name="Ch.c n.ng Kh.ch h.ng.O4" data-source-line="24" id="ent0016"><ellipse cx="566.1922" cy="742.9984" fill="#F1F1F1" rx="81.2422" ry="18.6484" style="stroke:#181818;stroke-width:0.5;"/><text fill="#000000" font-family="'Be Vietnam Pro'" font-size="13" lengthAdjust="spacing" textLength="136.481" x="497.9517" y="747.1537">Thanh to&#225;n &#273;&#417;n h&#224;ng</text></g><!--entity O5--><g class="entity" data-qualified-name="Ch.c n.ng Kh.ch h.ng.O5" data-source-line="25" id="ent0017"><ellipse cx="248.1184" cy="321.9957" fill="#F1F1F1" rx="61.7284" ry="14.7457" style="stroke:#181818;stroke-width:0.5;"/><text fill="#000000" font-family="'Be Vietnam Pro'" font-size="13" lengthAdjust="spacing" textLength="89.083" x="203.5769" y="326.151">H&#7911;y &#273;&#417;n h&#224;ng</text></g><!--entity O6--><g class="entity" data-qualified-name="Ch.c n.ng Kh.ch h.ng.O6" data-source-line="26" id="ent0018"><ellipse cx="248.1196" cy="742.9959" fill="#F1F1F1" rx="81.9296" ry="18.7859" style="stroke:#181818;stroke-width:0.5;"/><text fill="#000000" font-family="'Be Vietnam Pro'" font-size="13" lengthAdjust="spacing" textLength="138.0552" x="179.0921" y="747.1512">Xem l&#7883;ch s&#7917; &#273;&#417;n h&#224;ng</text></g><!--entity O7--><g class="entity" data-qualified-name="Ch.c n.ng Kh.ch h.ng.O7" data-source-line="27" id="ent0019"><ellipse cx="248.1193" cy="815.9999" fill="#F1F1F1" rx="83.3993" ry="19.0799" style="stroke:#181818;stroke-width:0.5;"/><text fill="#000000" font-family="'Be Vietnam Pro'" font-size="13" lengthAdjust="spacing" textLength="141.4067" x="177.4159" y="820.1551">Y&#234;u c&#7847;u &#273;&#7893;i / tr&#7843; h&#224;ng</text></g><!--entity RV--><g class="entity" data-qualified-name="Ch.c n.ng Kh.ch h.ng.RV" data-source-line="28" id="ent0020"><ellipse cx="248.1159" cy="893.9952" fill="#F1F1F1" rx="105.1259" ry="23.4252" style="stroke:#181818;stroke-width:0.5;"/><text fill="#000000" font-family="'Be Vietnam Pro'" font-size="13" lengthAdjust="spacing" textLength="189.3633" x="153.4342" y="898.1504">&#272;&#225;nh gi&#225;, b&#236;nh lu&#7853;n s&#7843;n ph&#7849;m</text></g><!--entity A1--><g class="entity" data-qualified-name="Ch.c n.ng Kh.ch h.ng.A1" data-source-line="29" id="ent0021"><ellipse cx="248.1199" cy="972.996" fill="#F1F1F1" rx="93.2799" ry="21.056" style="stroke:#181818;stroke-width:0.5;"/><text fill="#000000" font-family="'Be Vietnam Pro'" font-size="13" lengthAdjust="spacing" textLength="163.5283" x="166.3557" y="977.1513">Qu&#7843;n l&#253; th&#244;ng tin c&#225; nh&#226;n</text></g><!--entity A2--><g class="entity" data-qualified-name="Ch.c n.ng Kh.ch h.ng.A2" data-source-line="30" id="ent0022"><ellipse cx="566.1883" cy="965.9997" fill="#F1F1F1" rx="91.9483" ry="20.7897" style="stroke:#181818;stroke-width:0.5;"/><text fill="#000000" font-family="'Be Vietnam Pro'" font-size="13" lengthAdjust="spacing" textLength="160.583" x="485.8968" y="970.1549">Qu&#7843;n l&#253; &#273;&#7883;a ch&#7881; giao h&#224;ng</text></g><!--entity KH--><g class="entity" data-qualified-name="KH" data-source-line="8" id="ent0001"><ellipse cx="42.9973" cy="579.85" fill="#F1F1F1" rx="8" ry="8" style="stroke:#181818;stroke-width:0.5;"/><path d="M42.9973,587.85 L42.9973,614.85 M29.9973,595.85 L55.9973,595.85 M42.9973,614.85 L29.9973,629.85 M42.9973,614.85 L55.9973,629.85" fill="none" style="stroke:#181818;stroke-width:0.5;"/><text fill="#000000" font-family="'Be Vietnam Pro'" font-size="13" lengthAdjust="spacing" textLength="73.9946" x="6" y="643.9184">Kh&#225;ch h&#224;ng</text></g><!--link KH to R--><g class="link" data-entity-1="ent0001" data-entity-2="ent0003" data-link-type="dependency" data-source-line="33" id="lnk23"><path d="M44,570.88 C44.81,462.63 53.01,156.76 118.99,87 C141.76,62.93 174.6579,56.1202 203.3379,54.5102" fill="none" id="KH-to-R" style="stroke:#181818;stroke-width:1;"/><polygon fill="#181818" points="208.33,54.23,199.12,50.7407,203.3379,54.5102,199.5683,58.7281,208.33,54.23" style="stroke:#181818;stroke-width:1;stroke-linejoin:miter;stroke-miterlimit:10;"/></g><!--link KH to L--><g class="link" data-entity-1="ent0001" data-entity-2="ent0004" data-link-type="dependency" data-source-line="34" id="lnk24"><path d="M44.92,570.97 C48.13,472.16 61.93,210.78 118.99,150 C138.61,129.11 164.6483,121.5208 191.2483,118.6808" fill="none" id="KH-to-L" style="stroke:#181818;stroke-width:1;"/><polygon fill="#181818" points="196.22,118.15,186.8462,115.1281,191.2483,118.6808,187.6955,123.0829,196.22,118.15" style="stroke:#181818;stroke-width:1;stroke-linejoin:miter;stroke-miterlimit:10;"/></g><!--link KH to LO--><g class="link" data-entity-1="ent0001" data-entity-2="ent0005" data-link-type="dependency" data-source-line="35" id="lnk25"><path d="M46.08,571.1 C51.74,482.31 70.36,264.52 118.99,213 C139.22,191.58 166.4434,184.0837 193.5034,181.4537" fill="none" id="KH-to-LO" style="stroke:#181818;stroke-width:1;"/><polygon fill="#181818" points="198.48,180.97,189.1353,177.8594,193.5034,181.4537,189.9092,185.8219,198.48,180.97" style="stroke:#181818;stroke-width:1;stroke-linejoin:miter;stroke-miterlimit:10;"/></g><!--link KH to P1--><g class="link" data-entity-1="ent0001" data-entity-2="ent0006" data-link-type="dependency" data-source-line="36" id="lnk26"><path d="M48.18,571.06 C57.22,495.64 80.91,330.63 118.99,290 C131.88,276.26 144.672,268.8466 162.662,263.0366" fill="none" id="KH-to-P1" style="stroke:#181818;stroke-width:1;"/><polygon fill="#181818" points="167.42,261.5,157.6263,260.4595,162.662,263.0366,160.0849,268.0724,167.42,261.5" style="stroke:#181818;stroke-width:1;stroke-linejoin:miter;stroke-miterlimit:10;"/></g><!--link KH to P2--><g class="link" data-entity-1="ent0001" data-entity-2="ent0007" data-link-type="dependency" data-source-line="37" id="lnk27"><path d="M45.14,647.06 C48.76,738.36 63.3,965.72 118.99,1012 C199.06,1078.55 250.79,1030.52 353.25,1012 C395.73,1004.32 418.34,1012.55 444.25,978 C498.65,905.45 445.85,657.13 474.25,571 C490.82,520.74 525.4949,474.2142 546.7749,448.4642" fill="none" id="KH-to-P2" style="stroke:#181818;stroke-width:1;"/><polygon fill="#181818" points="549.96,444.61,541.1434,448.9994,546.7749,448.4642,547.3101,454.0957,549.96,444.61" style="stroke:#181818;stroke-width:1;stroke-linejoin:miter;stroke-miterlimit:10;"/></g><!--link KH to P4--><g class="link" data-entity-1="ent0001" data-entity-2="ent0009" data-link-type="dependency" data-source-line="38" id="lnk28"><path d="M49.64,570.94 C57.77,529.64 76.73,464.59 118.99,427 C134.19,413.49 149.254,406.3177 168.814,401.0177" fill="none" id="KH-to-P4" style="stroke:#181818;stroke-width:1;"/><polygon fill="#181818" points="173.64,399.71,163.9071,398.203,168.814,401.0177,165.9994,405.9246,173.64,399.71" style="stroke:#181818;stroke-width:1;stroke-linejoin:miter;stroke-miterlimit:10;"/></g><!--link KH to C1--><g class="link" data-entity-1="ent0001" data-entity-2="ent0010" data-link-type="dependency" data-source-line="39" id="lnk29"><path d="M60.07,571.12 C72.6,545.97 92.37,514.18 118.99,495 C138.32,481.08 158.0827,473.9157 180.5827,469.0557" fill="none" id="KH-to-C1" style="stroke:#181818;stroke-width:1;"/><polygon fill="#181818" points="185.47,468,175.8284,465.9903,180.5827,469.0557,177.5174,473.81,185.47,468" style="stroke:#181818;stroke-width:1;stroke-linejoin:miter;stroke-miterlimit:10;"/></g><!--link KH to W1--><g class="link" data-entity-1="ent0001" data-entity-2="ent0011" data-link-type="dependency" data-source-line="40" id="lnk30"><path d="M80.24,591.49 C92.42,585.89 106.17,579.89 118.99,575 C140.23,566.91 159.0889,560.6433 180.2289,554.1733" fill="none" id="KH-to-W1" style="stroke:#181818;stroke-width:1;"/><polygon fill="#181818" points="185.01,552.71,175.2334,551.519,180.2289,554.1733,177.5747,559.1688,185.01,552.71" style="stroke:#181818;stroke-width:1;stroke-linejoin:miter;stroke-miterlimit:10;"/></g><!--link KH to CMP--><g class="link" data-entity-1="ent0001" data-entity-2="ent0012" data-link-type="dependency" data-source-line="41" id="lnk31"><path d="M80.31,609 C106.79,609 138.52,609 170.77,609" fill="none" id="KH-to-CMP" style="stroke:#181818;stroke-width:1;"/><polygon fill="#181818" points="175.77,609,166.77,605,170.77,609,166.77,613,175.77,609" style="stroke:#181818;stroke-width:1;stroke-linejoin:miter;stroke-miterlimit:10;"/></g><!--link KH to O3--><g class="link" data-entity-1="ent0001" data-entity-2="ent0015" data-link-type="dependency" data-source-line="42" id="lnk32"><path d="M80.46,627.13 C92.53,632.7 106.17,638.53 118.99,643 C149.2,653.52 179.6433,661.0215 205.5433,666.6315" fill="none" id="KH-to-O3" style="stroke:#181818;stroke-width:1;"/><polygon fill="#181818" points="210.43,667.69,202.4807,661.8754,205.5433,666.6315,200.7872,669.6941,210.43,667.69" style="stroke:#181818;stroke-width:1;stroke-linejoin:miter;stroke-miterlimit:10;"/></g><!--link KH to O6--><g class="link" data-entity-1="ent0001" data-entity-2="ent0018" data-link-type="dependency" data-source-line="43" id="lnk33"><path d="M65.21,646.98 C78.3,667.19 96.81,690.93 118.99,706 C137.19,718.37 154.6863,725.371 175.5863,730.901" fill="none" id="KH-to-O6" style="stroke:#181818;stroke-width:1;"/><polygon fill="#181818" points="180.42,732.18,172.7426,726.011,175.5863,730.901,170.6962,733.7448,180.42,732.18" style="stroke:#181818;stroke-width:1;stroke-linejoin:miter;stroke-miterlimit:10;"/></g><!--link KH to O7--><g class="link" data-entity-1="ent0001" data-entity-2="ent0019" data-link-type="dependency" data-source-line="44" id="lnk34"><path d="M50.99,647.02 C60.06,685.67 79.65,744.61 118.99,779 C134.51,792.56 149.8998,799.8412 169.6698,805.2912" fill="none" id="KH-to-O7" style="stroke:#181818;stroke-width:1;"/><polygon fill="#181818" points="174.49,806.62,166.8767,800.372,169.6698,805.2912,164.7506,808.0843,174.49,806.62" style="stroke:#181818;stroke-width:1;stroke-linejoin:miter;stroke-miterlimit:10;"/></g><!--link KH to RV--><g class="link" data-entity-1="ent0001" data-entity-2="ent0020" data-link-type="dependency" data-source-line="45" id="lnk35"><path d="M45.17,647.08 C48.86,700.31 63.38,796.75 118.99,853 C131.14,865.29 142.2891,872.1692 158.6591,878.2092" fill="none" id="KH-to-RV" style="stroke:#181818;stroke-width:1;"/><polygon fill="#181818" points="163.35,879.94,156.291,873.0719,158.6591,878.2092,153.5218,880.5773,163.35,879.94" style="stroke:#181818;stroke-width:1;stroke-linejoin:miter;stroke-miterlimit:10;"/></g><!--link KH to A1--><g class="link" data-entity-1="ent0001" data-entity-2="ent0021" data-link-type="dependency" data-source-line="46" id="lnk36"><path d="M47.94,646.91 C56.65,723.6 79.92,893.42 118.99,935 C131.55,948.36 143.7945,955.5456 161.3145,961.2356" fill="none" id="KH-to-A1" style="stroke:#181818;stroke-width:1;"/><polygon fill="#181818" points="166.07,962.78,158.7457,956.1956,161.3145,961.2356,156.2746,963.8044,166.07,962.78" style="stroke:#181818;stroke-width:1;stroke-linejoin:miter;stroke-miterlimit:10;"/></g><!--link KH to A2--><g class="link" data-entity-1="ent0001" data-entity-2="ent0022" data-link-type="dependency" data-source-line="47" id="lnk37"><path d="M44.29,647.12 C45.94,745.35 56.28,1003.06 118.99,1054 C245.7,1156.93 454.5883,1038.9358 531.8783,988.6758" fill="none" id="KH-to-A2" style="stroke:#181818;stroke-width:1;"/><polygon fill="#181818" points="536.07,985.95,526.3444,987.503,531.8783,988.6758,530.7056,994.2097,536.07,985.95" style="stroke:#181818;stroke-width:1;stroke-linejoin:miter;stroke-miterlimit:10;"/></g><!--link P1 to P2--><g class="link" data-entity-1="ent0006" data-entity-2="ent0007" data-link-type="dependency" data-source-line="49" id="lnk38"><path d="M301.97,268.29 C318.69,274.42 337.04,281.85 353.25,290 C425.85,326.53 500.4923,379.0873 538.3123,406.9073" fill="none" id="P1-to-P2" style="stroke:#181818;stroke-width:1;stroke-dasharray:7,7;"/><polygon fill="#181818" points="542.34,409.87,537.4603,401.3149,538.3123,406.9073,532.72,407.7592,542.34,409.87" style="stroke:#181818;stroke-width:1;stroke-linejoin:miter;stroke-miterlimit:10;"/><text fill="#000000" font-family="'Be Vietnam Pro'" font-size="13" lengthAdjust="spacing" textLength="57.1924" x="385.25" y="302.6584">&#171;extend&#187;</text></g><!--link P1 to P3--><g class="link" data-entity-1="ent0006" data-entity-2="ent0008" data-link-type="dependency" data-source-line="50" id="lnk39"><path d="M340.54,251 C393.42,251 453.47,251 499.94,251" fill="none" id="P1-to-P3" style="stroke:#181818;stroke-width:1;stroke-dasharray:7,7;"/><polygon fill="#181818" points="504.94,251,495.94,247,499.94,251,495.94,255,504.94,251" style="stroke:#181818;stroke-width:1;stroke-linejoin:miter;stroke-miterlimit:10;"/><text fill="#000000" font-family="'Be Vietnam Pro'" font-size="13" lengthAdjust="spacing" textLength="57.1924" x="385.25" y="247.5684">&#171;extend&#187;</text></g><!--link O3 to O1--><g class="link" data-entity-1="ent0015" data-entity-2="ent0013" data-link-type="dependency" data-source-line="51" id="lnk40"><path d="M292.08,675 C346.93,675 437.19,675 499.46,675" fill="none" id="O3-to-O1" style="stroke:#181818;stroke-width:1;stroke-dasharray:7,7;"/><polygon fill="#181818" points="504.46,675,495.46,671,499.46,675,495.46,679,504.46,675" style="stroke:#181818;stroke-width:1;stroke-linejoin:miter;stroke-miterlimit:10;"/><text fill="#000000" font-family="'Be Vietnam Pro'" font-size="13" lengthAdjust="spacing" textLength="59.3569" x="384.25" y="671.5684">&#171;include&#187;</text></g><!--link O3 to O4--><g class="link" data-entity-1="ent0015" data-entity-2="ent0016" data-link-type="dependency" data-source-line="52" id="lnk41"><path d="M285.07,682.74 C338.79,694.29 435.7419,715.148 500.7019,729.128" fill="none" id="O3-to-O4" style="stroke:#181818;stroke-width:1;stroke-dasharray:7,7;"/><polygon fill="#181818" points="505.59,730.18,497.633,724.376,500.7019,729.128,495.9499,732.1969,505.59,730.18" style="stroke:#181818;stroke-width:1;stroke-linejoin:miter;stroke-miterlimit:10;"/><text fill="#000000" font-family="'Be Vietnam Pro'" font-size="13" lengthAdjust="spacing" textLength="59.3569" x="384.25" y="701.4984">&#171;include&#187;</text></g><!--link O3 to O2--><g class="link" data-entity-1="ent0015" data-entity-2="ent0014" data-link-type="dependency" data-source-line="53" id="lnk42"><path d="M285.07,667.27 C338.87,655.69 436.0419,634.7921 500.9919,620.8121" fill="none" id="O3-to-O2" style="stroke:#181818;stroke-width:1;stroke-dasharray:7,7;"/><polygon fill="#181818" points="505.88,619.76,496.2398,617.7434,500.9919,620.8121,497.9232,625.5643,505.88,619.76" style="stroke:#181818;stroke-width:1;stroke-linejoin:miter;stroke-miterlimit:10;"/><text fill="#000000" font-family="'Be Vietnam Pro'" font-size="13" lengthAdjust="spacing" textLength="57.1924" x="385.25" y="631.4784">&#171;extend&#187;</text></g><!--link A1 to A2--><g class="link" data-entity-1="ent0021" data-entity-2="ent0022" data-link-type="dependency" data-source-line="54" id="lnk43"><path d="M341.39,970.96 C383.21,970.03 427.5112,969.0504 469.1712,968.1304" fill="none" id="A1-to-A2" style="stroke:#181818;stroke-width:1;stroke-dasharray:7,7;"/><polygon fill="#181818" points="474.17,968.02,465.0839,964.2197,469.1712,968.1304,465.2605,972.2177,474.17,968.02" style="stroke:#181818;stroke-width:1;stroke-linejoin:miter;stroke-miterlimit:10;"/><text fill="#000000" font-family="'Be Vietnam Pro'" font-size="13" lengthAdjust="spacing" textLength="59.3569" x="384.25" y="965.4484">&#171;include&#187;</text></g><?plantuml-src TLFFQnD15BxlN_78sLQIr1Qa56902gqcjgNLutHsaXcoEnDsPschU11FKaGzU3U6KYhDJH1sAHwc-7_CV-BRRRFCDflJVhplUx--DnkFX1oJY8GGAgaeZrJ8G4S9y-AIYJdnrOcGGnYG87QPOq97mqWbqk-gG4LmmeLsUPyDI1BevqhgbmGBDvunE1HCI-JwaMhKI_V5MmRDjXUmWGQj8193hi4N4QDQAEbvX6firjZXPa8vSFD33Xj0OjZPzhnSHEGmm6PTRhCh2lBs8uvU5R_p09AOKHAZxlPheHYPcwBANWqdkKrduuBUhQ5F4vjUw3kwv_Al6Mv698Uuw1xRT2fXZCMkmaBTRxhg0tCTmaZOz6zO8ssvqbsRVQOrelR3xfGBq7b9NQDUSzMlae8Fp0qCXSs-ECPscqk4pcvdvbS2cfiPvKNEKILdN-KoMMD1zqM_ue5D9mfkl_sRI6U0NgMO-J06tsONw7neflcqwJJ4ZvdSYLlL4zdqZtPhLJmwuFaAMk5mYrqh_cpRxF9iKVFaeUE1pSwBMsUpHVMwgtwJMqPjUfcWq6RV1Jp6Vm-NSJCsgiiK9kQhFe9ZSuqum6lCvAAlUuTBReOt-etEQI61cWa-RVDJ5XcTPLVEXpid-9HizWbx4-NCrsbvxprlPnjMLhRmrxa7koNepH4-zJbgbMXjZhebUrIY_6NSGxpP7AsNQADiUpX7dJ8Pv_BwJLXTpVl1KzZSPAUQINzhgmotg-5UkmZtcaLOI1eaFdFYQqlY3wftxgftMbNvVm00?></g></svg>