<svg xmlns="http://www.w3.org/2000/svg" xmlns:xlink="http://www.w3.org/1999/xlink" contentStyleType="text/css" data-diagram-type="DESCRIPTION" height="914px" preserveAspectRatio="none" style="width:375px;height:914px;background:#FFFFFF;" version="1.1" viewBox="0 0 375 914" width="375px" zoomAndPan="magnify"><?plantuml 1.2026.6?><defs/><g><!--cluster H? th?ng Ecokids--><g class="cluster" data-qualified-name="H. th.ng Ecokids" data-source-line="11" id="ent0003"><rect fill="none" height="893" rx="2.5" ry="2.5" style="stroke:#181818;stroke-width:1;" width="230.54" x="131.38" y="7"/><text fill="#000000" font-family="'Be Vietnam Pro'" font-size="13" font-weight="700" lengthAdjust="spacing" textLength="117" x="188.15" y="21.5684">H&#7879; th&#7889;ng Ecokids</text></g><!--entity U1--><g class="entity" data-qualified-name="H. th.ng Ecokids.U1" data-source-line="12" id="ent0004"><ellipse cx="246.6544" cy="388.9989" fill="#F1F1F1" rx="80.7444" ry="18.5489" style="stroke:#181818;stroke-width:0.5;"/><text fill="#000000" font-family="'Be Vietnam Pro'" font-size="13" lengthAdjust="spacing" textLength="135.3384" x="178.9853" y="393.1542">&#272;&#259;ng k&#253; / &#272;&#259;ng nh&#7853;p</text></g><!--entity U2--><g class="entity" data-qualified-name="H. th.ng Ecokids.U2" data-source-line="13" id="ent0005"><ellipse cx="246.6528" cy="312.0048" fill="#F1F1F1" rx="73.7928" ry="23.7148" style="stroke:#181818;stroke-width:0.5;"/><text fill="#000000" font-family="'Be Vietnam Pro'" font-size="13" lengthAdjust="spacing" textLength="104.6475" x="194.329" y="309.8622">Duy&#7879;t, t&#236;m ki&#7871;m,</text><text fill="#000000" font-family="'Be Vietnam Pro'" font-size="13" lengthAdjust="spacing" textLength="84.0684" x="204.6186" y="325.1728">l&#7885;c s&#7843;n ph&#7849;m</text></g><!--entity U3--><g class="entity" data-qualified-name="H. th.ng Ecokids.U3" data-source-line="14" id="ent0006"><ellipse cx="246.6506" cy="228.9972" fill="#F1F1F1" rx="91.1306" ry="24.4372" style="stroke:#181818;stroke-width:0.5;"/><text fill="#000000" font-family="'Be Vietnam Pro'" font-size="13" lengthAdjust="spacing" textLength="120.7515" x="186.2748" y="225.1913">Qu&#7843;n l&#253; gi&#7887; h&#224;ng &amp;</text><text fill="#000000" font-family="'Be Vietnam Pro'" font-size="13" lengthAdjust="spacing" textLength="125.8867" x="183.7072" y="240.5018">danh s&#225;ch y&#234;u th&#237;ch</text></g><!--entity U4--><g class="entity" data-qualified-name="H. th.ng Ecokids.U4" data-source-line="15" id="ent0007"><ellipse cx="246.6507" cy="144.9987" fill="#F1F1F1" rx="52.4907" ry="24.4987" style="stroke:#181818;stroke-width:0.5;"/><text fill="#000000" font-family="'Be Vietnam Pro'" font-size="13" lengthAdjust="spacing" textLength="70.4907" x="211.4054" y="141.7168">&#272;&#7863;t h&#224;ng &amp;</text><text fill="#000000" font-family="'Be Vietnam Pro'" font-size="13" lengthAdjust="spacing" textLength="68.4531" x="212.4242" y="157.0274">thanh to&#225;n</text></g><!--entity U5--><g class="entity" data-qualified-name="H. th.ng Ecokids.U5" data-source-line="16" id="ent0008"><ellipse cx="246.6498" cy="63.0016" fill="#F1F1F1" rx="87.3498" ry="22.3616" style="stroke:#181818;stroke-width:0.5;"/><text fill="#000000" font-family="'Be Vietnam Pro'" font-size="13" lengthAdjust="spacing" textLength="133.4023" x="179.9487" y="62.9606">Theo d&#245;i &#273;&#417;n h&#224;ng &amp;</text><text fill="#000000" font-family="'Be Vietnam Pro'" font-size="13" lengthAdjust="spacing" textLength="41.3994" x="225.9501" y="78.2712">&#273;&#7893;i tr&#7843;</text></g><!--entity U6--><g class="entity" data-qualified-name="H. th.ng Ecokids.U6" data-source-line="17" id="ent0009"><ellipse cx="246.6515" cy="460.0023" fill="#F1F1F1" rx="74.9615" ry="17.3923" style="stroke:#181818;stroke-width:0.5;"/><text fill="#000000" font-family="'Be Vietnam Pro'" font-size="13" lengthAdjust="spacing" textLength="121.875" x="185.714" y="464.1576">&#272;&#225;nh gi&#225; s&#7843;n ph&#7849;m</text></g><!--entity A1--><g class="entity" data-qualified-name="H. th.ng Ecokids.A1" data-source-line="18" id="ent0010"><ellipse cx="246.6544" cy="860.0033" fill="#F1F1F1" rx="82.6844" ry="23.7033" style="stroke:#181818;stroke-width:0.5;"/><text fill="#000000" font-family="'Be Vietnam Pro'" font-size="13" lengthAdjust="spacing" textLength="117.8569" x="187.726" y="857.8778">Qu&#7843;n l&#253; s&#7843;n ph&#7849;m,</text><text fill="#000000" font-family="'Be Vietnam Pro'" font-size="13" lengthAdjust="spacing" textLength="94.3516" x="199.4787" y="873.1883">danh m&#7909;c, kho</text></g><!--entity A2--><g class="entity" data-qualified-name="H. th.ng Ecokids.A2" data-source-line="19" id="ent0011"><ellipse cx="246.6454" cy="778.9992" fill="#F1F1F1" rx="82.7354" ry="22.3892" style="stroke:#181818;stroke-width:0.5;"/><text fill="#000000" font-family="'Be Vietnam Pro'" font-size="13" lengthAdjust="spacing" textLength="125.9248" x="183.683" y="778.9132">Qu&#7843;n l&#253; &#273;&#417;n h&#224;ng &amp;</text><text fill="#000000" font-family="'Be Vietnam Pro'" font-size="13" lengthAdjust="spacing" textLength="41.3994" x="225.9457" y="794.2237">&#273;&#7893;i tr&#7843;</text></g><!--entity A3--><g class="entity" data-qualified-name="H. th.ng Ecokids.A3" data-source-line="20" id="ent0012"><ellipse cx="246.6453" cy="698.9955" fill="#F1F1F1" rx="91.2453" ry="22.5255" style="stroke:#181818;stroke-width:0.5;"/><text fill="#000000" font-family="'Be Vietnam Pro'" font-size="13" lengthAdjust="spacing" textLength="138.3916" x="177.4495" y="698.6886">Qu&#7843;n l&#253; khuy&#7871;n m&#227;i &amp;</text><text fill="#000000" font-family="'Be Vietnam Pro'" font-size="13" lengthAdjust="spacing" textLength="56.3481" x="218.4712" y="713.9991">n&#7897;i dung</text></g><!--entity A4--><g class="entity" data-qualified-name="H. th.ng Ecokids.A4" data-source-line="21" id="ent0013"><ellipse cx="246.6536" cy="616.9992" fill="#F1F1F1" rx="99.2736" ry="24.2892" style="stroke:#181818;stroke-width:0.5;"/><text fill="#000000" font-family="'Be Vietnam Pro'" font-size="13" lengthAdjust="spacing" textLength="138.4741" x="177.4165" y="614.0173">Qu&#7843;n l&#253; kh&#225;ch h&#224;ng &amp;</text><text fill="#000000" font-family="'Be Vietnam Pro'" font-size="13" lengthAdjust="spacing" textLength="128.7622" x="182.2725" y="629.3278">ki&#7875;m duy&#7879;t &#273;&#225;nh gi&#225;</text></g><!--entity A5--><g class="entity" data-qualified-name="H. th.ng Ecokids.A5" data-source-line="22" id="ent0014"><ellipse cx="246.6515" cy="535.0007" fill="#F1F1F1" rx="80.2215" ry="23.0407" style="stroke:#181818;stroke-width:0.5;"/><text fill="#000000" font-family="'Be Vietnam Pro'" font-size="13" lengthAdjust="spacing" textLength="72.5791" x="210.3619" y="529.1214">Th&#7889;ng k&#234; &amp;</text><text fill="#000000" font-family="'Be Vietnam Pro'" font-size="13" lengthAdjust="spacing" textLength="117.9902" x="187.6564" y="544.4319">b&#225;o c&#225;o doanh thu</text></g><!--entity KH--><g class="entity" data-qualified-name="KH" data-source-line="8" id="ent0001"><ellipse cx="46.6873" cy="241.84" fill="#F1F1F1" rx="8" ry="8" style="stroke:#181818;stroke-width:0.5;"/><path d="M46.6873,249.84 L46.6873,276.84 M33.6873,257.84 L59.6873,257.84 M46.6873,276.84 L33.6873,291.84 M46.6873,276.84 L59.6873,291.84" fill="none" style="stroke:#181818;stroke-width:0.5;"/><text fill="#000000" font-family="'Be Vietnam Pro'" font-size="13" lengthAdjust="spacing" textLength="73.9946" x="9.69" y="305.9084">Kh&#225;ch h&#224;ng</text></g><!--entity QTV--><g class="entity" data-qualified-name="QTV" data-source-line="9" id="ent0002"><ellipse cx="46.6885" cy="669.84" fill="#F1F1F1" rx="8" ry="8" style="stroke:#181818;stroke-width:0.5;"/><path d="M46.6885,677.84 L46.6885,704.84 M33.6885,685.84 L59.6885,685.84 M46.6885,704.84 L33.6885,719.84 M46.6885,704.84 L59.6885,719.84" fill="none" style="stroke:#181818;stroke-width:0.5;"/><text fill="#000000" font-family="'Be Vietnam Pro'" font-size="13" lengthAdjust="spacing" textLength="81.377" x="6" y="733.9084">Qu&#7843;n tr&#7883; vi&#234;n</text></g><!--link KH to U1--><g class="link" data-entity-1="ent0001" data-entity-2="ent0004" data-link-type="dependency" data-source-line="25" id="lnk15"><path d="M75.1,308.78 C88.15,324.42 104.95,341.55 123.38,353 C141.23,364.09 157.8576,370.5893 177.7576,376.0393" fill="none" id="KH-to-U1" style="stroke:#181818;stroke-width:1;"/><polygon fill="#181818" points="182.58,377.36,174.9562,371.1248,177.7576,376.0393,172.8431,378.8407,182.58,377.36" style="stroke:#181818;stroke-width:1;stroke-linejoin:miter;stroke-miterlimit:10;"/></g><!--link KH to U2--><g class="link" data-entity-1="ent0001" data-entity-2="ent0005" data-link-type="dependency" data-source-line="26" id="lnk16"><path d="M84,278.52 C111.9,284.3 146.2038,291.4064 179.0038,298.1964" fill="none" id="KH-to-U2" style="stroke:#181818;stroke-width:1;"/><polygon fill="#181818" points="183.9,299.21,175.8977,293.4686,179.0038,298.1964,174.276,301.3025,183.9,299.21" style="stroke:#181818;stroke-width:1;stroke-linejoin:miter;stroke-miterlimit:10;"/></g><!--link KH to U3--><g class="link" data-entity-1="ent0001" data-entity-2="ent0006" data-link-type="dependency" data-source-line="27" id="lnk17"><path d="M84,263.3 C109.22,257.94 138.7887,251.6667 169.4087,245.1767" fill="none" id="KH-to-U3" style="stroke:#181818;stroke-width:1;"/><polygon fill="#181818" points="174.3,244.14,164.6662,242.0931,169.4087,245.1767,166.325,249.9192,174.3,244.14" style="stroke:#181818;stroke-width:1;stroke-linejoin:miter;stroke-miterlimit:10;"/></g><!--link KH to U4--><g class="link" data-entity-1="ent0001" data-entity-2="ent0007" data-link-type="dependency" data-source-line="28" id="lnk18"><path d="M74.83,233.1 C87.96,217.03 104.87,199.23 123.38,187 C146.03,172.02 169.7712,163.1537 193.5812,156.5637" fill="none" id="KH-to-U4" style="stroke:#181818;stroke-width:1;"/><polygon fill="#181818" points="198.4,155.23,188.6591,153.7756,193.5812,156.5637,190.7931,161.4858,198.4,155.23" style="stroke:#181818;stroke-width:1;stroke-linejoin:miter;stroke-miterlimit:10;"/></g><!--link KH to U5--><g class="link" data-entity-1="ent0001" data-entity-2="ent0008" data-link-type="dependency" data-source-line="29" id="lnk19"><path d="M55.39,232.98 C65,194.99 85.06,137.42 123.38,103 C137.5,90.31 150.9793,83.199 169.0193,77.279" fill="none" id="KH-to-U5" style="stroke:#181818;stroke-width:1;"/><polygon fill="#181818" points="173.77,75.72,163.9715,74.7256,169.0193,77.279,166.4659,82.3268,173.77,75.72" style="stroke:#181818;stroke-width:1;stroke-linejoin:miter;stroke-miterlimit:10;"/></g><!--link KH to U6--><g class="link" data-entity-1="ent0001" data-entity-2="ent0009" data-link-type="dependency" data-source-line="30" id="lnk20"><path d="M56.89,309.15 C67.29,344.2 87.61,395.09 123.38,425 C139.3,438.31 155.1786,445.3206 175.0186,450.4406" fill="none" id="KH-to-U6" style="stroke:#181818;stroke-width:1;"/><polygon fill="#181818" points="179.86,451.69,172.145,445.568,175.0186,450.4406,170.146,453.3142,179.86,451.69" style="stroke:#181818;stroke-width:1;stroke-linejoin:miter;stroke-miterlimit:10;"/></g><!--link QTV to A1--><g class="link" data-entity-1="ent0002" data-entity-2="ent0010" data-link-type="dependency" data-source-line="32" id="lnk21"><path d="M63.25,736.9 C75.88,763.32 96.06,797.55 123.38,819 C139.22,831.45 154.2806,838.6777 173.3206,844.8077" fill="none" id="QTV-to-A1" style="stroke:#181818;stroke-width:1;"/><polygon fill="#181818" points="178.08,846.34,170.7389,839.7743,173.3206,844.8077,168.2872,847.3894,178.08,846.34" style="stroke:#181818;stroke-width:1;stroke-linejoin:miter;stroke-miterlimit:10;"/></g><!--link QTV to A2--><g class="link" data-entity-1="ent0002" data-entity-2="ent0011" data-link-type="dependency" data-source-line="33" id="lnk22"><path d="M87.53,721.68 C98.92,727.71 111.47,733.95 123.38,739 C144.35,747.9 163.2523,754.5437 184.1423,761.1437" fill="none" id="QTV-to-A2" style="stroke:#181818;stroke-width:1;"/><polygon fill="#181818" points="188.91,762.65,181.5332,756.1245,184.1423,761.1437,179.1231,763.7528,188.91,762.65" style="stroke:#181818;stroke-width:1;stroke-linejoin:miter;stroke-miterlimit:10;"/></g><!--link QTV to A3--><g class="link" data-entity-1="ent0002" data-entity-2="ent0012" data-link-type="dependency" data-source-line="34" id="lnk23"><path d="M87.75,699 C107.18,699 126.38,699 149.94,699" fill="none" id="QTV-to-A3" style="stroke:#181818;stroke-width:1;"/><polygon fill="#181818" points="154.94,699,145.94,695,149.94,699,145.94,703,154.94,699" style="stroke:#181818;stroke-width:1;stroke-linejoin:miter;stroke-miterlimit:10;"/></g><!--link QTV to A4--><g class="link" data-entity-1="ent0002" data-entity-2="ent0013" data-link-type="dependency" data-source-line="35" id="lnk24"><path d="M87.58,676.43 C98.97,670.4 111.51,664.14 123.38,659 C142.64,650.66 159.4029,644.41 178.9429,637.81" fill="none" id="QTV-to-A4" style="stroke:#181818;stroke-width:1;"/><polygon fill="#181818" points="183.68,636.21,173.8732,635.3004,178.9429,637.81,176.4333,642.8797,183.68,636.21" style="stroke:#181818;stroke-width:1;stroke-linejoin:miter;stroke-miterlimit:10;"/></g><!--link QTV to A5--><g class="link" data-entity-1="ent0002" data-entity-2="ent0014" data-link-type="dependency" data-source-line="36" id="lnk25"><path d="M62.38,660.93 C74.79,633.45 95.1,597.38 123.38,575 C139.4,562.32 154.8134,555.0677 174.1434,549.0877" fill="none" id="QTV-to-A5" style="stroke:#181818;stroke-width:1;"/><polygon fill="#181818" points="178.92,547.61,169.1399,546.4486,174.1434,549.0877,171.5042,554.0912,178.92,547.61" style="stroke:#181818;stroke-width:1;stroke-linejoin:miter;stroke-miterlimit:10;"/></g><?plantuml-src XL8nQzj05DxlLpmyT78ejkoC1JTjCHXAGvDCMIwdi-wGT6TqfuQqTChGePJMGuTi5QP3JJAMWaJ9SAR_u_v9Jv8ZAIMcY_Z4Uzztt_VUKo4N2vpW668f9669Z2de9AL8DHN5i2_FkGXWZYFLhPnX4WQ9J8L_82EPm3dZkbltwHodaNuXXNw9dN3lAOKJJhLmjLU9x3tS-fg_fJ3mK4Jd6hI4X0TCWyyJIZIN0Y5Cj7kiDsCc8moO-IQ27c05i-bTwJ2r-Kgu8BRu26-uMOkguV3e1A5I1eiWSdQcjlW0cjbYwS8z9pBalkh1EmIGAagmSYsRBvjBLmpDRtWCsn_1R7wpg1IF1ztcP-c5KzHzqEOwXf3R_3Rkduh85fy8gChImd5_n3LtsELkBKVkeO3RudET2nwT2XyB1ghAUc7MgJDiRWYh9RpxNct-IxT4pKgcbYQhun-Fkjr7Z4hmpKyEc-MVJBIqpT8MNtavl7nLyyRtNt5wp9aqsGEPzdTawdRsjvbYMtmdVGYPhBYJmGxk__nDTWqoP6uX-Qs0sAnuIHMskEBWfzk3cNWxYUrfbJotokBI7MczNsUe6K6jyyzWwuCApRhadfbC0Ya_lgpsmTAQD4Rl4PfDOM_lINb7TsZO8Az1emQD6xIFaBld2hl9DN3OGg-5enQE_m80?></g></svg>